<?xml version="1.0" encoding="UTF-8"?>
<svg id="Layer_2" data-name="Layer 2" xmlns="http://www.w3.org/2000/svg" width="140.19" height="128.41" viewBox="0 0 140.19 128.41">
  <g id="Objects">
    <g>
      <path d="M140.19,41.76c0-6.15-4.99-11.14-11.14-11.14-4.07,0-7.62,2.19-9.57,5.45-3.29-1.85-7.09-2.91-11.13-2.91H42.35c-12.57,0-22.75,10.19-22.75,22.75v63.34h14.2v-18.29h10.05v18.29h14.2v-18.29h34.6v18.29h14.2v-18.29h10.05v18.29h14.2V55.91c0-1.07-.08-2.13-.22-3.16,5.28-.87,9.32-5.45,9.32-10.98Z" style="fill: #8c6746;"/>
      <path d="M80.48,13.31c0-7.35-5.96-13.31-13.31-13.31-4.91,0-9.18,2.66-11.49,6.61-4.61-2.46-9.86-3.85-15.45-3.85s-10.84,1.4-15.45,3.85C22.49,2.66,18.21,0,13.31,0,5.96,0,0,5.96,0,13.31c0,5.78,3.7,10.69,8.85,12.53-.97,3.1-1.49,6.39-1.49,9.81,0,18.16,14.72,32.88,32.88,32.88s32.88-14.72,32.88-32.88c0-3.42-.52-6.71-1.49-9.81,5.15-1.84,8.85-6.74,8.85-12.53Z" style="fill: #bf6836;"/>
      <ellipse cx="40.24" cy="53.86" rx="25.75" ry="17.95" style="fill: #ffce8b;"/>
      <g>
        <path d="M35.54,24.31c0,4.89-3.96,8.85-8.85,8.85s-8.85-3.96-8.85-8.85,3.96-8.85,8.85-8.85,8.85,3.96,8.85,8.85Z" style="fill: #ffce8b;"/>
        <path d="M29.79,24.31c0,1.71-1.39,3.1-3.1,3.1s-3.1-1.39-3.1-3.1,1.39-3.1,3.1-3.1,3.1,1.39,3.1,3.1Z" style="fill: #8c6746;"/>
        <path d="M62.64,24.31c0,4.89-3.96,8.85-8.85,8.85s-8.85-3.96-8.85-8.85,3.96-8.85,8.85-8.85,8.85,3.96,8.85,8.85Z" style="fill: #ffce8b;"/>
        <path d="M56.89,24.31c0,1.71-1.39,3.1-3.1,3.1s-3.1-1.39-3.1-3.1,1.39-3.1,3.1-3.1,3.1,1.39,3.1,3.1Z" style="fill: #8c6746;"/>
      </g>
      <path d="M46.62,47.57c0,3.52-2.86,6.38-6.38,6.38s-6.38-2.86-6.38-6.38,2.86-2.38,6.38-2.38,6.38-1.14,6.38,2.38Z" style="fill: #8c6746;"/>
      <rect x="19.6" y="119.25" width="14.26" height="9.16" style="fill: #bf6836;"/>
      <rect x="43.89" y="119.25" width="14.26" height="9.16" style="fill: #bf6836;"/>
      <rect x="92.6" y="119.25" width="14.26" height="9.16" style="fill: #bf6836;"/>
      <rect x="116.87" y="119.25" width="14.26" height="9.16" style="fill: #bf6836;"/>
    </g>
  </g>
</svg>