<?xml version="1.0" encoding="UTF-8"?>
<svg id="Layer_2" data-name="Layer 2" xmlns="http://www.w3.org/2000/svg" width="125.82" height="168.35" viewBox="0 0 125.82 168.35">
  <g id="Objects">
    <g>
      <g>
        <path d="M8.92,86.59l14.46-11.45-1.26-1.59-14.46,11.45c.26,.21,.51,.45,.72,.72,.22,.28,.4,.57,.54,.87Z" style="fill: #d9933d;"/>
        <path d="M7.64,92.06c1.68-1.33,2.16-3.62,1.28-5.48-.14-.3-.32-.59-.54-.87-.22-.27-.46-.51-.72-.72-1.61-1.29-3.94-1.34-5.62-.01-1.96,1.55-2.03,7.37-2.03,7.37,0,0,5.68,1.26,7.64-.29Z" style="fill: #732514;"/>
      </g>
      <g>
        <rect x="16.96" y="106.52" width="9.51" height="49.19" style="fill: #d9933d;"/>
        <rect x="16.96" y="155.71" width="9.51" height="12.65" style="fill: #732514;"/>
        <rect x="33.04" y="106.52" width="9.51" height="49.19" style="fill: #d9933d;"/>
        <rect x="33.04" y="155.71" width="9.51" height="12.65" style="fill: #732514;"/>
      </g>
      <g>
        <rect x="81.17" y="106.52" width="9.51" height="49.19" style="fill: #d9933d;"/>
        <rect x="81.17" y="155.71" width="9.51" height="12.65" style="fill: #732514;"/>
        <rect x="97.25" y="106.52" width="9.51" height="49.19" style="fill: #d9933d;"/>
        <rect x="97.25" y="155.71" width="9.51" height="12.65" style="fill: #732514;"/>
      </g>
      <path d="M89.89,63.85H36.51c-10.8,0-19.55,8.75-19.55,19.55v27.16H89.89V63.85Z" style="fill: #d9933d;"/>
      <path d="M59.33,77.46c0,9.26-7.5,16.76-16.76,16.76h0c-9.26,0-16.76-7.5-16.76-16.76v-19.37c0-9.26,7.5-16.76,16.76-16.76h0c9.26,0,16.76,7.5,16.76,16.76v19.37Z" style="fill: #d9933d;"/>
      <path d="M90.05,77.46c0,9.26-7.5,16.76-16.76,16.76h0c-9.26,0-16.76-7.5-16.76-16.76v-19.37c0-9.26,7.5-16.76,16.76-16.76h0c9.26,0,16.76,7.5,16.76,16.76v19.37Z" style="fill: #d9933d;"/>
      <rect x="89.89" y="21.25" width="16.87" height="89.32" style="fill: #d9933d;"/>
      <path d="M114.7,0h-24.81V22.25h24.81c6.14,0,11.12-4.98,11.12-11.12S120.84,0,114.7,0Z" style="fill: #d9933d;"/>
      <path d="M86.24,6.29h7.01V0h-7.01c-1.74,0-3.14,1.41-3.14,3.14s1.41,3.14,3.14,3.14Z" style="fill: #d9933d;"/>
      <path d="M106.62,8.99c0,3.15-2.55,5.71-5.71,5.71s-5.71-2.55-5.71-5.71,2.55-5.71,5.71-5.71,5.71,2.55,5.71,5.71Z" style="fill: #ffebd0;"/>
      <path d="M104.79,8.99c0,1.03-.84,1.87-1.87,1.87s-1.87-.84-1.87-1.87,.84-1.87,1.87-1.87,1.87,.84,1.87,1.87Z" style="fill: #732514;"/>
      <path d="M122.81,13c0,1.45-1.18,2.63-2.63,2.63s-2.63-1.18-2.63-2.63,1.18-2.63,2.63-2.63,2.63,1.18,2.63,2.63Z" style="fill: #732514;"/>
    </g>
  </g>
</svg>