<?xml version="1.0" encoding="UTF-8"?>
<svg width="128px" height="89px" viewBox="0 0 128 89" version="1.1" xmlns="http://www.w3.org/2000/svg" xmlns:xlink="http://www.w3.org/1999/xlink">
    <!-- Generator: Sketch 39.1 (31720) - http://www.bohemiancoding.com/sketch -->
    <title>Group</title>
    <desc>Created with Sketch.</desc>
    <defs></defs>
    <g id="Page-1" stroke="none" stroke-width="1" fill="none" fill-rule="evenodd">
        <g id="Group" fill="#FFFFFF">
            <path d="M99.0645042,86.4711756 C96.7054299,84.6405051 95.3962178,82.4020468 94.6178311,79.8193915 C93.7683757,76.9998695 93.6218598,74.0844568 93.4830907,71.1713993 C93.3911394,69.2397912 93.299188,67.3065007 93.2729162,65.3732103 C93.2537176,63.9674868 92.3429613,63.2612605 91.2816473,62.7010571 C90.2314483,62.1465735 89.1933748,62.19536 88.2341167,63.0227114 C85.7921852,65.1289415 83.3354336,67.2186851 80.8726194,69.3006901 C78.6361469,71.1912503 76.3110912,72.9415073 73.4737352,73.8687869 C70.83847,74.7304571 68.228803,74.6039487 65.7703673,73.3920252 C63.4267867,72.2366268 62.1792123,70.1388082 61.9966568,67.5931634 C61.8578878,65.6548261 61.9306405,63.6589544 62.2317559,61.7394588 C62.9481681,57.1720349 62.935369,52.6527247 62.0727777,48.1091894 C61.7767146,46.5493679 61.6308723,44.9340307 61.6487237,43.3469561 C61.7012673,38.6668186 65.1836301,35.7843789 69.7828819,36.7035834 C71.3713163,37.0208638 72.9301107,37.7220432 74.3673137,38.4979165 C75.8378617,39.2919585 77.1373061,40.3999163 78.5212919,41.3564677 C80.2966603,42.5831953 82.095606,43.7759406 83.8561545,45.0231922 C84.6776539,45.6049289 85.4260639,46.2892855 86.2206179,46.9097149 C86.727866,47.3057265 87.2162523,47.7686934 87.7922113,48.0220466 C88.3900635,48.2854936 89.0835721,48.3329343 89.7353152,48.4745833 C89.8148043,48.3655707 89.8942934,48.2565582 89.9737825,48.1472092 C89.635617,47.4369453 89.4318421,46.6102668 88.9353721,46.0366051 C86.8625933,43.6420302 84.6527294,41.3652156 82.5873605,38.9642479 C80.7810048,36.8644106 78.9355782,34.7659191 77.4044029,32.4692535 C75.25584,29.2459813 74.5700782,25.6502495 75.8072113,21.8667739 C76.5101507,19.7168043 77.9897928,18.1519359 79.9702835,17.1210271 C80.5489371,16.8202332 81.3259766,16.7515957 81.9965815,16.7986999 C86.557436,17.117999 91.1091964,17.5890408 95.6734191,17.8272534 C99.2399865,18.013315 102.76041,17.4426814 106.297,16.9070395 C112.290342,15.999611 116.128722,19.0448967 115.603622,25.2932671 C115.380312,27.951289 114.156315,30.2223838 112.554745,32.2946315 C109.656424,36.0444613 106.72678,39.770066 103.820713,43.5138395 C102.771862,44.8650567 101.760397,46.2455459 100.716597,47.6011371 C100.365296,48.0570383 100.249767,48.4570874 100.686957,48.9405783 C101.112359,49.4109472 101.484206,49.4876598 102.061512,49.1400981 C104.97802,47.3854672 107.334737,44.9710411 109.79452,42.6774037 C111.789157,40.8174612 113.817813,38.9941927 116.291405,37.7846245 C118.276611,36.8136054 120.338275,36.0935842 122.616176,36.5538594 C123.726329,36.7782772 124.633043,37.2839743 125.359223,38.1984684 C127.317484,40.665382 127.781282,43.4630342 127.207681,46.4571782 C126.733104,48.9325033 126.088771,51.3748554 125.56704,53.8421054 C125.036888,56.3477117 125.21237,58.7967929 125.786982,61.3235961 C126.441757,64.2040171 126.90185,67.1725903 126.639469,70.1640426 C126.456914,72.2436924 125.614531,74.0245672 123.78123,75.1607874 C122.421159,76.0042889 120.857649,76.1001795 119.305591,76.0456732 C116.469582,75.9454086 114.013841,74.7688133 111.847426,73.0582584 C109.670908,71.339965 107.647641,69.4288808 105.528044,67.6372394 C103.816335,66.190468 102.11574,64.7208173 100.309384,63.398872 C98.5791493,62.1327787 96.6727586,63.1206208 96.4706677,65.2574686 C96.1547323,68.5941273 96.101515,71.9217017 96.8142222,75.2189948 C97.3969176,77.9150365 98.4366752,80.4095397 100.263914,82.5174521 C100.626667,82.93567 100.736469,83.3448035 100.497665,83.8128172 C100.057107,84.6761697 99.579836,85.520344 99.0645042,86.4711756 L99.0645042,86.4711756 Z M93.1405467,60.5160957 C93.1920798,60.3441655 93.2836944,60.2055446 93.2601171,60.0911487 C93.078909,59.2207306 92.8236008,58.362425 92.6939258,57.4852778 C92.5831126,56.7343024 92.2109286,56.567419 91.5052946,56.5697743 C86.1455074,56.5902982 80.7853835,56.5899618 75.4255963,56.5576617 C73.7718192,56.547568 72.1180421,56.4324992 70.4659491,56.3315617 C70.1894214,56.3147387 69.8003965,56.1993335 69.6754369,55.9981313 C69.2601402,55.3292518 69.1634733,54.5873609 69.5019756,53.8313387 C69.8054487,53.1533749 70.3931964,53.180628 70.9994691,53.184329 C77.6502802,53.2230218 84.3010913,53.2522937 90.9519024,53.2845937 C92.7963185,53.2936781 93.7754489,52.3135745 93.740083,50.490306 C93.7336834,50.1538475 93.7168425,49.8177255 93.7111166,49.4816035 C93.5797575,41.6898981 93.4460407,33.8981926 93.3308489,26.1064872 C93.3264703,25.7976183 93.4329048,25.4396265 93.6063662,25.1852639 C94.0280625,24.5675261 94.6713851,24.4638969 95.3278437,24.7219606 C96.0072059,24.9887721 96.4851509,25.3979057 96.477404,26.2740435 C96.4059986,34.3749543 96.3679381,42.476538 96.3217941,50.5777852 C96.3110159,52.4114839 97.0597626,53.1813009 98.8432147,53.1813009 C105.213793,53.1816374 111.584372,53.1802915 117.95495,53.1829832 C119.012896,53.1836561 119.980911,53.9524638 119.988658,54.7801516 C119.998426,55.8103875 119.272919,56.4355273 118.063405,56.4503315 C111.918158,56.5256982 105.772911,56.5916441 99.628001,56.685516 C97.262864,56.7218535 97.2463599,56.7467514 96.5518408,59.0282764 C96.3989254,59.5306089 96.41644,60.084756 96.3389718,60.7556542 C96.9637694,60.6119864 97.3888339,60.5729572 97.764723,60.4161676 C98.759347,60.0009778 99.6485469,60.2028529 100.573786,60.6725489 C102.950712,61.8794255 104.986104,63.5469137 106.978383,65.2786655 C108.840651,66.8977037 110.610967,68.6358482 112.571922,70.124004 C114.144526,71.3174223 115.869372,72.368855 117.656192,73.2073095 C120.299878,74.4478319 123.413762,73.1154564 124.01094,70.6246542 C124.203263,69.8232102 124.257491,68.9460629 124.163519,68.1277959 C123.946608,66.2372357 123.705446,64.3379276 123.283076,62.4853872 C122.519846,59.1372889 122.701054,55.8137521 123.18102,52.4619527 C123.652902,49.165669 124.136237,45.8660207 124.437015,42.5519047 C124.626981,40.4594694 123.065828,38.951799 120.952968,39.1005136 C119.926347,39.1728522 118.878168,39.5685274 117.931373,40.0123161 C115.491462,41.155602 113.500193,42.9388319 111.505556,44.7149962 C109.016133,46.9319212 106.489323,49.1071252 103.961166,51.2799741 C103.091502,52.0275848 102.036588,52.184038 100.946981,51.9454889 C98.8021229,51.4757929 97.8031203,50.4849227 98.020368,48.3648978 C98.118382,47.4086828 98.3501129,46.4087282 98.7785456,45.5578247 C99.3272224,44.4690451 100.068559,43.4563051 100.844251,42.5064828 C103.467391,39.2933043 106.153179,36.1305946 108.792149,32.9295287 C109.575925,31.978697 110.318609,30.9898456 111.018854,29.9760962 C112.122944,28.3785913 112.821841,26.6091562 112.909751,24.6553418 C112.97442,23.2169818 112.950169,21.7668458 111.696869,20.7184411 C110.153231,19.4264406 108.332729,18.9281456 106.422297,19.3961593 C100.209349,20.9176246 94.0021275,20.9839069 87.7285527,19.8029376 C85.9016511,19.4590771 83.9979549,19.4244218 82.1302983,19.431151 C80.7813416,19.435525 79.8018745,20.2386514 79.1494577,21.4542758 C77.3811625,24.7498866 77.6994556,27.968112 79.6162877,31.0319029 C80.6061962,32.6142671 81.8130156,34.0761792 83.0343182,35.4963704 C84.4223458,37.1110346 85.9932656,38.5689092 87.3799459,40.1845828 C89.0215976,42.0976857 90.6130633,44.060921 92.1092095,46.0887562 C93.1981426,47.5644631 92.9145417,49.1158731 91.5413341,50.4778571 C90.332157,51.677668 88.9165103,51.8475795 87.4368682,50.8466155 C84.6025435,48.9301481 81.8224465,46.9339399 78.9867746,45.0201641 C76.3144594,43.2167466 73.6623533,41.3672344 70.8694573,39.7680472 C69.8906637,39.2078439 68.4369566,38.9766969 67.3466763,39.2287043 C65.7875451,39.5890513 64.6972647,40.8975384 64.509657,42.5579609 C64.357752,43.8997574 64.300493,45.3401361 64.6221543,46.6321367 C65.7801351,51.2816564 65.8279633,55.9311761 65.172852,60.6436135 C64.8879038,62.6906269 64.7225261,64.7685944 64.7026538,66.834113 C64.6797502,69.2027807 66.5386495,71.400864 68.6912543,71.6713766 C69.6791419,71.7951933 70.7327091,71.8147079 71.6990403,71.6101411 C74.4286146,71.0324419 76.704158,69.5392392 78.7563909,67.7102509 C79.9911663,66.6103681 81.1296116,65.4024822 82.3589978,64.2958703 C83.4614036,63.3033178 84.5766085,62.3104288 85.7790493,61.4467399 C87.8885413,59.9320038 90.2068606,59.4687005 92.7094194,60.4222238 C92.8333685,60.469328 92.9711271,60.4800947 93.1405467,60.5160957 L93.1405467,60.5160957 Z M95.1186796,54.3370358 C95.0088769,54.3484754 94.8987374,54.359915 94.7885979,54.3713546 C94.6080633,54.8168256 94.3453452,55.2525393 94.2907806,55.7128145 C94.2712452,55.8783521 94.9135574,56.3147387 94.9812578,56.2639335 C95.2938251,56.0297584 95.6899232,55.6791687 95.7101323,55.3487664 C95.7300046,55.0247569 95.332896,54.6751766 95.1186796,54.3370358 L95.1186796,54.3370358 Z" id="Shamrock"></path>
            <path d="M33.9746426,49.3117409 C34.0916696,48.4472473 34.2306795,47.5850143 34.3224907,46.7182601 C34.9063325,41.2061041 37.0183139,36.4970844 41.5616762,33.0994985 C46.2760531,29.5743538 53.1858174,29.8911518 57.5332726,33.8635597 C59.8844804,36.0117149 60.1476295,38.794112 59.4086138,41.6779103 C59.0594726,43.0400448 58.3094654,44.2988405 57.7521325,45.6093056 C57.4055775,46.4250363 57.0254014,47.2323706 56.7567566,48.0739359 C56.2359542,49.7083036 56.4376803,51.2629066 57.4556857,52.6799398 C57.5332726,52.7881226 57.5956655,52.9076081 57.6616144,53.0238643 C57.6732524,53.044855 57.6684032,53.0752107 57.6852138,53.2331253 C55.3013548,53.536683 52.9239614,54.0152708 50.638056,52.786185 C50.3264151,52.6185824 50.0810463,52.2908047 49.8625098,51.9949974 C48.9841609,50.8049866 48.1995629,49.5381175 47.24589,48.4133393 C46.1305776,47.0973843 44.7378919,46.1954304 42.880331,46.4424747 C41.9011191,46.572617 40.0357996,48.2983749 39.8702808,49.2526441 C39.831164,49.4777289 39.9355831,49.7903287 40.084938,49.9718175 C40.3726562,50.3222006 40.7250303,50.6247895 41.0754647,50.9170446 C42.4219215,52.0385934 42.7012345,53.4511056 42.2263377,55.0686807 C41.7265485,56.7692498 40.8116691,58.0506508 38.8661764,58.1723969 C37.8465545,58.2360148 36.8211137,58.2030756 35.7989057,58.2392441 C35.0375838,58.2660476 34.7809003,58.6190142 35.1685117,59.2577771 C35.47595,59.7647831 35.922075,60.2856752 36.4357652,60.5491892 C37.4573267,61.0733106 38.5548587,61.4621228 39.6456019,61.8354342 C40.6118827,62.1664413 41.6218061,62.367952 42.5939059,62.6837812 C46.3597824,63.9077 47.50322,66.1646839 47.0086032,70.1774586 C46.8812313,71.2111695 46.3345666,72.197732 45.945662,73.1923679 C45.7520179,73.6874254 45.3621435,73.7303756 44.8300264,73.7071243 C42.8748353,73.6225157 40.9157649,73.6215469 38.9579876,73.6283285 C38.5755486,73.6296202 38.1934329,73.8069108 37.829744,73.898624 C38.0275908,75.1451483 38.2542093,76.301574 38.3874002,77.4686565 C38.6469932,79.7437247 37.8856713,81.662597 36.1803749,83.1790938 C35.216357,84.0364829 34.1970585,84.8318687 33.1936006,85.6437241 C32.1717159,86.4701115 31.1385164,87.2829357 30.0775149,88.1280533 C27.9138089,86.2524542 25.6605546,84.4579114 23.5986815,82.4660561 C21.6399343,80.5736644 21.1546926,78.2288425 22.2431728,75.6492478 C22.3892949,75.3027399 22.5066452,74.9436376 22.6330473,74.5890564 C22.650181,74.5409392 22.6411292,74.48378 22.6505043,74.3271571 C21.5694595,73.7613772 20.3545772,73.5298337 19.1348458,73.5059366 C17.9338645,73.4823624 16.7299737,73.6806438 15.5254363,73.7494286 C15.237718,73.7655753 14.8290934,73.7597625 14.6684238,73.5863471 C12.4335964,71.1733862 12.7093534,65.613436 14.8381453,64.1744433 C15.8891251,63.4639891 17.0875202,62.9314714 18.2817126,62.4845311 C19.4607109,62.0437265 20.7696674,61.9358666 21.9263595,61.4537266 C22.9951197,61.0084009 23.9633401,60.2969779 24.917013,59.6204317 C25.1536532,59.4521833 25.2722966,58.9503442 25.2293005,58.6306398 C25.2089339,58.4801527 24.6842522,58.3241757 24.3774605,58.298341 C23.3859639,58.215347 22.3821828,58.2521615 21.396182,58.1329989 C19.2140491,57.8691621 17.6351547,55.6435028 17.8478723,53.43948 C17.9752442,52.1225562 18.5244951,51.2667818 19.6850665,50.651593 C20.8879875,50.0137989 20.9196688,49.4932297 20.0022032,48.4453097 C19.7364679,48.141752 19.472349,47.834965 19.1859238,47.5517521 C17.6467928,46.0307342 16.1238256,45.8263171 14.4443915,47.2045983 C13.3394241,48.1113962 12.4791788,49.3204602 11.5339111,50.4152055 C10.9371382,51.1062837 10.4321765,51.8810018 9.80307564,52.5384949 C8.74466037,53.6445429 7.42147963,54.07792 5.90045218,53.7792063 C4.82102377,53.5673617 3.72607798,53.3768308 2.83544448,52.5775698 C2.8596904,52.4732622 2.85936712,52.3599125 2.90947535,52.2769185 C4.17834523,50.1794639 3.9514034,48.0574663 2.98770886,45.9416045 C2.38576346,44.6198367 1.69136028,43.3394044 1.10460899,42.0111779 C-0.455535216,38.4808663 0.196195144,35.933242 3.22370249,33.5380425 C8.44692046,29.4061053 15.656041,29.929258 20.7376628,34.7739099 C23.6209877,37.5230448 25.0353331,40.9609974 25.614649,44.8142428 C25.8183147,46.1702415 26.0113123,47.5281779 26.2185341,48.8838537 C26.2511852,49.0995735 26.332005,49.3078657 26.3905185,49.5197103 C26.4639028,49.5164809 26.5372871,49.5132516 26.6106714,49.5100223 C26.6575469,49.2939796 26.7218794,49.0801975 26.748065,48.8618943 C27.1809355,45.2563391 26.7331942,41.7276421 25.3043012,38.4233841 C23.8980378,35.1717643 22.2961906,31.9895752 20.5653551,28.8968388 C18.2965834,24.8417599 18.0056324,20.7450225 19.7891623,16.502642 C20.3390598,15.1944374 20.9768892,13.8930144 21.7734485,12.7236714 C24.5132376,8.70314632 27.3409586,4.74204109 30.1551018,0.729912326 C30.1538087,0.728620591 30.2501458,0.777060652 30.30478,0.854564749 C32.2706393,3.64761865 34.2232441,6.45003763 36.1978319,9.23663285 C37.7861014,11.4784389 39.3788968,13.7115257 40.4266438,16.2791718 C41.497667,18.9039772 42.0103874,21.6201729 41.4178171,24.4083828 C41.1255729,25.7824659 40.5258905,27.1139217 39.9148933,28.3933851 C38.5703761,31.2087215 37.0878189,33.9585022 35.7400689,36.7728698 C34.2720592,39.8378339 33.3364899,43.0555456 33.4079346,46.4938211 C33.4273313,47.4283914 33.5698973,48.3603782 33.6558895,49.2933337 C33.7622483,49.2994695 33.8682838,49.3056052 33.9746426,49.3117409 L33.9746426,49.3117409 Z M30.0810709,5.35690693 C28.0738319,8.22746492 26.080494,11.0321444 24.1430832,13.8752531 C23.4942624,14.8272617 22.9172094,15.8435342 22.4303514,16.8879019 C20.6943434,20.6097132 20.7518871,24.2423949 22.959559,27.8146879 C24.1029966,29.6654211 25.1180925,31.6023777 26.086313,33.5522516 C28.0663965,37.5404833 29.4186724,41.718277 29.5673807,46.2135147 C29.6074673,47.415797 29.573523,48.6206627 29.573523,49.8239139 C30.8152374,50.164609 30.9868986,50.0351125 30.8999365,48.8363825 C30.8592034,48.273509 30.7981036,47.7099896 30.7932545,47.1464702 C30.7599567,43.1776146 31.6580256,39.3941229 33.2976965,35.8102043 C34.9528847,32.1917318 36.7790875,28.6514092 38.4824442,25.0539273 C38.7840635,24.4167791 38.9392374,23.676615 39.007126,22.9690671 C39.2065891,20.8890509 38.9052931,18.8345465 37.8895506,17.0219194 C36.6184178,14.7539558 35.1636626,12.5848099 33.7160194,10.4211538 C32.5690257,8.70669859 31.313087,7.06490347 30.0810709,5.35690693 L30.0810709,5.35690693 Z M26.3866391,72.4205563 C25.8687462,73.5317713 25.4009616,74.4941138 24.9677678,75.4719572 C23.9151716,77.8468119 24.1873724,79.6455528 26.0843733,81.4036041 C27.2410654,82.4754212 28.588492,83.3444359 29.8751422,84.269641 C30.0335489,84.3836366 30.427626,84.382022 30.5773041,84.2635053 C31.9880935,83.1471234 33.4156933,82.0446276 34.7453396,80.8358866 C35.9350061,79.7547044 36.1583919,78.3370253 35.6935168,76.8269872 C35.4568766,76.0574361 35.1361838,75.3140426 34.8630131,74.5551483 C34.6447998,73.9486788 34.3939354,73.3470532 34.2571884,72.7215306 C34.2116061,72.5122695 34.4249702,72.0650063 34.6014805,72.0155974 C37.5145471,71.198575 40.4550924,70.5229977 43.5149276,70.9311859 C44.0027556,70.9960956 44.2487708,70.8737037 44.2898273,70.4064186 C44.3719401,69.4718483 44.5177389,68.5311424 44.4753894,67.6004473 C44.4265743,66.53961 43.9497378,65.701274 42.7898129,65.4148318 C41.9806457,65.2149358 41.1860261,64.9549742 40.3894668,64.706961 C38.977061,64.2674482 37.5368533,63.8957515 36.165504,63.3512852 C34.1980283,62.5701085 32.8444594,61.1740659 32.4591109,59.0133163 C32.3757049,58.5473229 32.1639572,58.3900542 31.7065175,58.4000651 C30.6833396,58.4223476 29.6588686,58.4246081 28.636014,58.3984505 C28.1378412,58.3858561 27.9403177,58.5676677 27.8426875,59.0666004 C27.482878,60.9024787 26.4361008,62.2723636 24.7485847,63.059999 C23.5828408,63.6038194 22.3420962,63.9874647 21.1323864,64.4360196 C19.8719218,64.9033048 18.6056381,65.3547661 17.3471132,65.8272182 C16.3540002,66.2002066 15.8412798,66.9749247 15.8095985,67.9911972 C15.7843827,68.8140323 15.9143409,69.6433262 16.0019495,70.4668072 C16.0481784,70.9021219 16.3110041,71.0157946 16.7474307,70.9460409 C17.2763151,70.8614322 17.8187772,70.8459314 18.3560668,70.8352746 C21.09133,70.7800529 23.6656002,71.5211859 26.3866391,72.4205563 L26.3866391,72.4205563 Z M53.986256,50.8066012 C53.709206,47.6005151 54.8804456,44.9095082 56.4021196,42.3286218 C57.9341385,39.7306199 57.1951229,36.3207625 54.608568,34.7719723 C50.8126266,32.4991647 46.9565553,32.8453496 43.2773176,35.0144956 C40.0713603,36.9046267 38.5247938,40.0425739 37.5914875,43.5066841 C37.0975172,45.3399789 36.8146481,47.2117028 36.938464,49.2461854 C37.4731674,48.2996666 37.9037749,47.4442151 38.418435,46.6420477 C40.9361315,42.7180799 46.4273477,42.8727651 48.8318965,46.2729345 C49.2356719,46.8432355 49.6297489,47.4216098 50.0593866,47.9722118 C50.5876244,48.648758 51.1019613,49.3462949 51.7084326,49.9482433 C52.2828993,50.5185443 52.9989621,50.8947621 53.986256,50.8066012 L53.986256,50.8066012 Z M23.5198014,49.043383 C23.5198014,48.7430546 23.5269135,48.5570448 23.5188316,48.3713579 C23.3681836,44.9724803 22.343066,41.8229076 20.7324903,38.8561153 C19.1345225,35.9125743 16.4425787,34.2639976 13.3536483,33.5390113 C10.5323929,32.8766742 7.72730152,33.5319068 5.25939003,35.1930779 C3.27316417,36.5293777 2.4972947,38.901649 3.3695013,41.1654145 C3.77392326,42.2139803 4.32188108,43.2111997 4.851412,44.2071274 C5.97415978,46.3207287 7.05746754,48.4333612 6.22373113,50.9289931 C7.16964533,51.1240451 8.23840553,50.6428738 8.75629841,49.9731092 C9.83960616,48.5731915 10.817525,47.040225 12.1164598,45.8689444 C15.4992507,42.8185123 18.5661981,42.9874066 21.5713992,46.3585119 C22.2761473,47.1490537 22.8260448,48.0774882 23.5198014,49.043383 L23.5198014,49.043383 Z M30.1302093,52.6809086 L30.1302093,52.5969459 C27.4366491,52.5969459 24.7427657,52.5833826 22.0495288,52.6124467 C21.6809908,52.6163219 21.2429478,52.7409743 20.9623417,52.9660591 C20.3516677,53.4556267 20.4140606,54.1570388 20.6455283,54.8193759 C20.8588924,55.4297206 21.3476902,55.6435028 21.9822867,55.6425339 C27.2620785,55.6341377 32.541547,55.6376899 37.8213388,55.6370441 C37.9021585,55.6370441 37.9833015,55.6386587 38.0634747,55.6302625 C39.1034631,55.5224026 39.8065948,54.8322932 39.7813791,53.9471318 C39.7542236,52.9989984 39.3607931,52.6918884 38.0495737,52.6847838 C35.4100011,52.6712206 32.7701052,52.6809086 30.1302093,52.6809086 L30.1302093,52.6809086 Z" id="Liliy"></path>
        </g>
    </g>
</svg>