<?xml version="1.0" encoding="UTF-8"?>
<svg id="Layer_2" data-name="Layer 2" xmlns="http://www.w3.org/2000/svg" width="110.39" height="183.88" viewBox="0 0 110.39 183.88">
  <g id="Objects">
    <g>
      <g>
        <path d="M102,104.81l-15.59-9.85-1.09,1.72,15.59,9.85c.11-.32,.26-.63,.44-.92,.19-.3,.4-.56,.64-.8Z" style="fill: #ffce8b;"/>
        <path d="M107.58,104.2c-1.81-1.15-4.13-.84-5.59,.61-.24,.24-.46,.5-.64,.8-.19,.29-.33,.6-.44,.92-.68,1.94,.04,4.16,1.85,5.31,2.11,1.33,7.63-.52,7.63-.52,0,0-.69-5.78-2.8-7.12Z" style="fill: #bf6836;"/>
      </g>
      <path d="M68.73,82.16H11.42v48.18H89.18v-27.73c0-11.3-9.16-20.45-20.45-20.45Z" style="fill: #ffce8b;"/>
      <rect x="11.42" y="29.38" width="16.47" height="52.77" style="fill: #ffce8b;"/>
      <g>
        <rect x="11.42" y="130.33" width="8.24" height="42.59" style="fill: #ffce8b;"/>
        <rect x="11.42" y="172.92" width="8.24" height="10.95" style="fill: #bf6836;"/>
        <rect x="25.35" y="130.33" width="8.24" height="42.59" style="fill: #ffce8b;"/>
        <rect x="25.35" y="172.92" width="8.24" height="10.95" style="fill: #bf6836;"/>
      </g>
      <g>
        <rect x="67.02" y="130.33" width="8.24" height="42.59" style="fill: #ffce8b;"/>
        <rect x="67.02" y="172.92" width="8.24" height="10.95" style="fill: #bf6836;"/>
        <rect x="80.95" y="130.33" width="8.24" height="42.59" style="fill: #ffce8b;"/>
        <rect x="80.95" y="172.92" width="8.24" height="10.95" style="fill: #bf6836;"/>
      </g>
      <path d="M39.93,90.81c1.38,1.24,1.48,3.37,.24,4.74h0c-1.25,1.38-3.37,1.48-4.75,.24l-3.73-3.37c-1.38-1.24-1.48-3.37-.24-4.74h0c1.24-1.38,3.37-1.48,4.74-.24l3.73,3.37Z" style="fill: #bf6836;"/>
      <path d="M53.21,93.45c-1.06,1.53-3.15,1.91-4.67,.85h0c-1.53-1.06-1.91-3.15-.85-4.68l2.86-4.13c1.06-1.52,3.15-1.9,4.68-.85h0c1.52,1.06,1.9,3.15,.85,4.68l-2.86,4.13Z" style="fill: #bf6836;"/>
      <path d="M67.27,95.8c-1.42,1.2-3.54,1.02-4.73-.4h0c-1.2-1.42-1.02-3.54,.4-4.73l3.84-3.24c1.42-1.2,3.54-1.02,4.73,.4h0c1.2,1.42,1.02,3.54-.4,4.73l-3.84,3.24Z" style="fill: #bf6836;"/>
      <path d="M83.74,99.79c-.37,1.82-2.15,2.99-3.97,2.62h0c-1.82-.37-2.99-2.15-2.62-3.96l1.01-4.92c.37-1.82,2.15-2.99,3.97-2.62h0c1.82,.37,2.99,2.15,2.62,3.97l-1.01,4.92Z" style="fill: #bf6836;"/>
      <path d="M51.44,105.03c-1.79-.5-2.82-2.36-2.32-4.15h0c.5-1.79,2.36-2.82,4.15-2.32l4.83,1.36c1.79,.5,2.82,2.36,2.32,4.15h0c-.51,1.78-2.36,2.82-4.15,2.32l-4.83-1.36Z" style="fill: #bf6836;"/>
      <path d="M17.99,96.46c-1.57-.99-2.04-3.07-1.05-4.63h0c.99-1.57,3.06-2.04,4.63-1.05l4.25,2.68c1.57,.99,2.04,3.06,1.05,4.63h0c-.99,1.57-3.07,2.04-4.63,1.05l-4.25-2.68Z" style="fill: #bf6836;"/>
      <path d="M21.35,72.8c1.33-1.3,3.46-1.27,4.75,.06h0c1.3,1.33,1.27,3.45-.06,4.75l-3.59,3.51c-1.33,1.3-3.45,1.27-4.75-.06h0c-1.29-1.33-1.27-3.46,.06-4.75l3.59-3.51Z" style="fill: #bf6836;"/>
      <path d="M21.03,59.81c1.71,.72,2.51,2.69,1.79,4.4h0c-.72,1.71-2.69,2.51-4.4,1.79l-4.63-1.95c-1.71-.72-2.51-2.69-1.79-4.4h0c.72-1.71,2.69-2.51,4.4-1.79l4.63,1.95Z" style="fill: #bf6836;"/>
      <path d="M22.53,44.85c1.64-.87,3.67-.26,4.55,1.38h0c.88,1.64,.26,3.67-1.38,4.55l-4.43,2.37c-1.64,.88-3.67,.26-4.55-1.38h0c-.87-1.64-.26-3.67,1.38-4.55l4.43-2.37Z" style="fill: #bf6836;"/>
      <path d="M37.11,29.72c0,9.64-7.81,17.45-17.45,17.45S2.21,39.36,2.21,29.72,10.02,12.27,19.66,12.27s17.45,7.81,17.45,17.45Z" style="fill: #ffce8b;"/>
      <path d="M39.31,20.34c0,2.01-1.63,3.64-3.64,3.64H3.64c-2.01,0-3.64-1.63-3.64-3.64H0c0-2.01,1.63-3.64,3.64-3.64H35.67c2.01,0,3.64,1.63,3.64,3.64h0Z" style="fill: #ffce8b;"/>
      <g>
        <path d="M17.41,3.75c0-2.07-1.68-3.75-3.75-3.75s-3.75,1.68-3.75,3.75c0,1.63,1.05,3.01,2.5,3.52v9.43h2.48V7.27c1.46-.51,2.5-1.89,2.5-3.52Z" style="fill: #ffce8b;"/>
        <path d="M29.4,3.75c0-2.07-1.68-3.75-3.75-3.75s-3.75,1.68-3.75,3.75c0,1.63,1.05,3.01,2.5,3.52v9.43h2.48V7.27c1.46-.51,2.5-1.89,2.5-3.52Z" style="fill: #ffce8b;"/>
      </g>
      <g>
        <path d="M17.72,35.87c0,1.06-.85,1.91-1.91,1.91s-1.91-.85-1.91-1.91,.86-1.91,1.91-1.91,1.91,.85,1.91,1.91Z" style="fill: #bf6836;"/>
        <path d="M25.41,35.87c0,1.06-.85,1.91-1.91,1.91s-1.91-.85-1.91-1.91,.86-1.91,1.91-1.91,1.91,.85,1.91,1.91Z" style="fill: #bf6836;"/>
      </g>
      <g>
        <path d="M16.81,25.21c0,2.69-2.18,4.87-4.87,4.87s-4.87-2.18-4.87-4.87,2.18-4.87,4.87-4.87,4.87,2.18,4.87,4.87Z" style="fill: #ffebd0;"/>
        <path d="M14.02,25.21c0,1.15-.93,2.09-2.09,2.09s-2.09-.93-2.09-2.09,.94-2.09,2.09-2.09,2.09,.94,2.09,2.09Z" style="fill: #732514;"/>
        <path d="M32.25,25.21c0,2.69-2.18,4.87-4.87,4.87s-4.87-2.18-4.87-4.87,2.18-4.87,4.87-4.87,4.87,2.18,4.87,4.87Z" style="fill: #ffebd0;"/>
        <path d="M29.47,25.21c0,1.15-.93,2.09-2.09,2.09s-2.09-.93-2.09-2.09,.93-2.09,2.09-2.09,2.09,.94,2.09,2.09Z" style="fill: #732514;"/>
      </g>
    </g>
  </g>
</svg>