<?xml version="1.0" encoding="UTF-8"?>
<svg id="Layer_2" data-name="Layer 2" xmlns="http://www.w3.org/2000/svg" width="131.66" height="172.42" viewBox="0 0 131.66 172.42">
  <g id="Objects">
    <g>
      <rect x="91.81" width="39.85" height="172.42" style="fill: #8c6746;"/>
      <path d="M106.75,62.84h-12.97v19.05h12.97c5.26,0,9.52-4.26,9.52-9.52s-4.26-9.52-9.52-9.52Z" style="fill: #ffebd0;"/>
      <path d="M75.83,62.84c-24.31,0-44.01,19.7-44.01,44.01,0,10.1,3.41,19.41,9.14,26.83-2.04,1.92-3.32,4.63-3.32,7.65,0,5.8,4.7,10.51,10.5,10.51,3.84,0,7.18-2.06,9.02-5.14,5.67,2.66,11.99,4.16,18.67,4.16h17.95V62.84h-17.95Z" style="fill: #732514;"/>
      <path d="M106.75,131.8h-12.97v19.05h12.97c5.26,0,9.52-4.26,9.52-9.53s-4.26-9.52-9.52-9.52Z" style="fill: #ffebd0;"/>
      <g>
        <circle cx="79.93" cy="45.49" r="34.65" transform="translate(-4.03 7.95) rotate(-5.56)" style="fill: #bf6836;"/>
        <path d="M126.24,34.16c0,8.89-7.2,16.09-16.09,16.09H49.72c-8.89,0-16.09-7.2-16.09-16.09h0c0-8.89,7.21-16.09,16.09-16.09h60.43c8.89,0,16.09,7.2,16.09,16.09h0Z" style="fill: #bf6836;"/>
        <g>
          <g>
            <circle cx="61.16" cy="41.38" r="8.87" style="fill: #ffebd0;"/>
            <path d="M64.11,41.38c0,1.63-1.32,2.96-2.96,2.96s-2.96-1.33-2.96-2.96,1.32-2.96,2.96-2.96,2.96,1.32,2.96,2.96Z" style="fill: #732514;"/>
          </g>
          <g>
            <path d="M107.57,41.38c0,4.9-3.97,8.87-8.87,8.87s-8.87-3.97-8.87-8.87,3.97-8.87,8.87-8.87,8.87,3.97,8.87,8.87Z" style="fill: #ffebd0;"/>
            <path d="M101.66,41.38c0,1.63-1.32,2.96-2.96,2.96s-2.96-1.33-2.96-2.96,1.32-2.96,2.96-2.96,2.96,1.32,2.96,2.96Z" style="fill: #732514;"/>
          </g>
        </g>
        <path d="M86.88,62.12c0,3.84-3.11,6.95-6.95,6.95h0c-3.84,0-6.95-3.11-6.95-6.95v-10.83c0-3.84,3.11-6.95,6.95-6.95h0c3.84,0,6.95,3.11,6.95,6.95v10.83Z" style="fill: #732514;"/>
      </g>
      <path d="M49.27,120.92h-8.53v-32.83h8.53c3.46,0,6.26-2.8,6.26-6.26s-2.8-6.26-6.26-6.26H28.94c-15.98,0-28.94,12.96-28.94,28.94,0,4.94,1.24,9.6,3.43,13.67-1.39,1.62-2.24,3.72-2.24,6.02,0,5.11,4.14,9.25,9.25,9.25,2.51,0,4.79-1,6.45-2.63,3.67,1.68,7.75,2.63,12.05,2.63h20.34c3.46,0,6.26-2.8,6.26-6.26s-2.8-6.26-6.26-6.26Z" style="fill: #bf6836;"/>
      <g>
        <path d="M54.42,64.16c0,12.58-10.2,22.78-22.78,22.78s-22.78-10.2-22.78-22.78,10.2-22.78,22.78-22.78,22.78,10.2,22.78,22.78Z" style="fill: #ffebd0;"/>
        <path d="M62.08,56.71c0,5.84-4.74,10.58-10.58,10.58H11.77c-5.84,0-10.58-4.74-10.58-10.58h0c0-5.84,4.74-10.58,10.58-10.58H51.5c5.85,0,10.58,4.74,10.58,10.58h0Z" style="fill: #ffebd0;"/>
        <g>
          <g>
            <path d="M25.12,61.46c0,3.22-2.61,5.83-5.83,5.83s-5.83-2.61-5.83-5.83,2.61-5.83,5.83-5.83,5.83,2.61,5.83,5.83Z" style="fill: #bf6836;"/>
            <path d="M21.24,61.46c0,1.07-.87,1.94-1.94,1.94s-1.94-.87-1.94-1.94,.87-1.94,1.94-1.94,1.94,.87,1.94,1.94Z" style="fill: #732514;"/>
          </g>
          <g>
            <path d="M49.81,61.46c0,3.22-2.61,5.83-5.83,5.83s-5.83-2.61-5.83-5.83,2.61-5.83,5.83-5.83,5.83,2.61,5.83,5.83Z" style="fill: #bf6836;"/>
            <path d="M45.93,61.46c0,1.07-.87,1.94-1.94,1.94s-1.94-.87-1.94-1.94,.87-1.94,1.94-1.94,1.94,.87,1.94,1.94Z" style="fill: #732514;"/>
          </g>
        </g>
        <path d="M36.21,75.1c0,2.52-2.05,4.57-4.57,4.57h0c-2.52,0-4.57-2.05-4.57-4.57v-7.12c0-2.52,2.05-4.57,4.57-4.57h0c2.52,0,4.57,2.05,4.57,4.57v7.12Z" style="fill: #732514;"/>
      </g>
    </g>
  </g>
</svg>