<?xml version="1.0" encoding="utf-8"?>
<!-- Generator: Adobe Illustrator 27.0.0, SVG Export Plug-In . SVG Version: 6.00 Build 0)  -->
<svg version="1.1" id="Layer_1" xmlns="http://www.w3.org/2000/svg" xmlns:xlink="http://www.w3.org/1999/xlink" x="0px" y="0px"
	 viewBox="0 0 226.8 226.8" style="enable-background:new 0 0 226.8 226.8;" xml:space="preserve">
<style type="text/css">
	.st0{fill:#FFCE06;}
	.st1{fill:#FFFFFF;}
	.st2{fill:#016BA8;}
	.st3{fill:#F9F9F6;}
	.st4{fill:#FDCF20;}
</style>
<g>
	<g>
		
			<ellipse transform="matrix(0.9239 -0.3827 0.3827 0.9239 -27.1507 50.5083)" class="st0" cx="113.4" cy="93.5" rx="85.2" ry="85.2"/>
		<path class="st1" d="M113.4,10.3c46,0,83.2,37.3,83.2,83.2s-37.3,83.2-83.2,83.2s-83.2-37.3-83.2-83.2S67.4,10.3,113.4,10.3
			 M113.4,6.3c-48.1,0-87.2,39.1-87.2,87.2s39.1,87.2,87.2,87.2s87.2-39.1,87.2-87.2S161.5,6.3,113.4,6.3L113.4,6.3z"/>
	</g>
	<path class="st2" d="M134.5,152.5c-5.9,0-11.9-0.1-17.8-0.1c-8,0-16,0-24,0c0.1-3.3,1.2-6.1,4.2-7.9c1.4-0.9,3-1.1,4.7-1.1
		c1.8,0,3.7-0.1,5.5,0c1.2,0.1,1.5-0.2,1.5-1.5c0-12.2,0-24.4,0-36.6c0-15,0-30.1,0-45.1c0-1.5-0.6-1.7-1.8-1.6
		c-5.5,0.7-10.7,2.5-15.7,4.9c-5.2,2.5-10.7,4-16.8,3.8c0.8,1.9,1.6,3.6,2.4,5.3c3,6.5,5.9,13,8.9,19.6c1.4,3.1,2.8,6.1,4.2,9.2
		c0.4,0.9,1,1.3,2,1.2c1.5-0.1,3,0,4.5,0.1c1.5,0.1,2.3,1.1,2.4,2.5c0.3,2.8-1.5,5.5-4.4,6.4c-0.5,0.2-1.1,0.3-1.6,0.4
		c-2.7,0-5.3,0-8,0c-13.2,0-26.5,0-39.7,0c-0.5-0.2-1-0.3-1.4-0.5c-2.6-0.9-4.2-3.3-4-6.1c0.1-1.5,0.9-2.5,2.4-2.8
		c0.5-0.1,1.1-0.3,1.7-0.1c2.4,0.5,3.4-0.7,4.4-2.9c4.6-10.5,9.4-21,14.1-31.5c0.5-1.2,1.4-2.5,1.4-3.7c-0.1-1.2-1.8-1.6-2.7-2.4
		c-3.1-3.2-5.2-8.2-2.9-12.4c1.1-1.9,2.7-2.8,4.9-2.7c2,0.1,3.4,1,4.2,2.8c0.4,1,0.4,2,0.2,3c-0.4,1.4,0.2,2.4,1.2,3.2
		c1.9,1.5,4.2,1.9,6.5,2c4.1,0.2,8-1.1,11.7-2.7c4.8-2.1,9.5-4.5,14.8-5.4c2.1-0.4,4.2-0.8,6.3-1c0.7-0.1,1-0.3,0.9-1
		c-0.1-0.7-0.1-1.3,0-2c0.2-1.7-0.3-2.9-1.7-4.2c-3.5-3.2-3.4-9.1,0-12.6c3.4-3.5,9.3-3.7,12.7-0.5c3.8,3.5,4.3,9.4,0.6,12.9
		c-2.2,2.1-1.4,4.5-1.6,6.8c-0.1,0.7,0.6,0.6,1,0.6c7,0.5,13.5,2.9,19.8,5.9c4.5,2.2,9.2,3.7,14.3,3.1c1.2-0.1,2.4-0.4,3.6-0.9
		c2.4-1,3.1-2.2,2.8-4.7c-0.2-2.2,0.6-3.9,2.5-4.8c2.7-1.3,6-0.2,7.1,2.7c1.6,4.3,0.3,8-2.7,11.3c-0.5,0.6-1.1,1.2-1.9,1.6
		c-1.6,0.8-1.4,1.7-0.8,3.1c5.4,11.7,10.6,23.5,15.9,35.3c0.4,0.8,0.8,1.1,1.6,1c0.8-0.1,1.6,0,2.5,0c2.4,0.1,3.6,1.7,3.1,4
		c-0.5,2.7-2.1,4.4-4.7,5.1c-0.3,0.1-0.7,0.3-1,0.4c-15.7,0-31.4,0-47.2,0c-2.8-0.4-5-1.6-6-4.5c-0.9-3,0.4-5,3.6-5
		c0.9,0,1.8-0.1,2.6,0c1.8,0.3,2.5-0.6,3.2-2.1c4.7-10.5,9.4-21,14.1-31.5c0.8-1.7,0.8-1.7-1.2-1.8c-5-0.1-9.7-1.4-14.2-3.5
		c-5.3-2.5-10.7-4.5-16.6-5.2c-1.2-0.1-1.5,0.1-1.5,1.4c0,27.3,0,54.7,0,82c0,1.4,0.5,1.6,1.7,1.6c2.5,0,5-0.3,7.5,0.2
		C132.2,144.6,134.8,148.1,134.5,152.5z M172.2,102.8c-4.5-9.6-8.5-19.1-13.1-28.4c-0.2,0.3-0.3,0.4-0.4,0.5c-4.1,9-8.2,18-12.3,27
		c-0.4,0.9-0.1,1,0.7,1C155.3,102.7,163.6,102.8,172.2,102.8z M55.8,102.7c0.6,0,1,0,1.3,0c7.6,0,15.2,0,22.8-0.1c1.7,0,1.7,0,1-1.6
		c-3.5-7.6-6.9-15.2-10.4-22.7c-0.6-1.2-1-2.6-2-3.7C64.2,83.9,59.9,93.1,55.8,102.7z"/>
	<path class="st3" d="M45.1,112.2c13.2,0,26.5,0,39.7,0c2.7,0,5.3,0,8,0c-2.2,6.4-6.5,10.9-12.6,13.7c-5.2,2.4-10.8,2.8-16.2,1.8
		c-8.5-1.6-14.9-6.4-18.6-14.4C45.2,112.9,45.2,112.5,45.1,112.2z"/>
	<path class="st3" d="M134.8,112.2c15.7,0,31.4,0,47.2,0c-2.1,6.3-6.1,11-12.2,13.6c-10,4.4-23,2.5-30.9-6.2
		C137,117.4,135.7,114.9,134.8,112.2z"/>
	<path class="st4" d="M172.2,102.8c-8.6,0-16.9,0-25.1,0c-0.7,0-1-0.1-0.7-1c4.1-9,8.2-18,12.3-27c0-0.1,0.1-0.2,0.4-0.5
		C163.7,83.7,167.7,93.1,172.2,102.8z"/>
	<path class="st4" d="M55.8,102.7c4.2-9.6,8.4-18.8,12.7-28.1c1,1.2,1.4,2.5,2,3.7c3.5,7.6,6.9,15.2,10.4,22.7
		c0.7,1.6,0.7,1.6-1,1.6c-7.6,0-15.2,0-22.8,0.1C56.7,102.7,56.4,102.7,55.8,102.7z"/>
	<g>
		<path class="st2" d="M5.4,218.5c-1.1,0-2-0.9-2-2v-31.2c0-10.7,8.7-19.4,19.4-19.4h45.9c1.3-5.4,6.2-9.4,11.9-9.4h65.5
			c5.7,0,10.6,4,11.9,9.4H204c10.7,0,19.4,8.7,19.4,19.4v31.2c0,1.1-0.9,2-2,2H5.4z"/>
		<path class="st1" d="M146.1,158.5c5.4,0,9.8,4.2,10.2,9.4H204c9.6,0,17.4,7.8,17.4,17.4v31.2H5.4v-31.2c0-9.6,7.8-17.4,17.4-17.4
			h47.6c0.4-5.3,4.8-9.4,10.2-9.4H146.1 M146.1,154.5H80.7c-6.1,0-11.4,3.9-13.4,9.4H22.8c-11.8,0-21.4,9.6-21.4,21.4v31.2
			c0,2.2,1.8,4,4,4h215.9c2.2,0,4-1.8,4-4v-31.2c0-11.8-9.6-21.4-21.4-21.4h-44.5C157.5,158.4,152.2,154.5,146.1,154.5L146.1,154.5z
			"/>
	</g>
	<path class="st3" d="M134.5,152.5c0,2,0.1,4,0.1,6c-12.8,0-25.6,0-38.4,0c-1.2,0-2.5,0-3.7,0c0-2,0.1-4,0.1-6c8,0,16,0,24,0
		C122.6,152.5,128.6,152.5,134.5,152.5z"/>
</g>
</svg>
