<?xml version="1.0" encoding="UTF-8"?>
<svg id="Layer_2" data-name="Layer 2" xmlns="http://www.w3.org/2000/svg" width="136.16" height="145.78" viewBox="0 0 136.16 145.78">
  <g id="Objects">
    <g>
      <path d="M85.75,105.78c1.79-6.89,16.71-8.36,22.09-10.11,8.54-2.79,15.25-9.98,20.37-17.07,10.89-15.09,10.5-33.73-.57-48.58-3.44-4.62-9.48-9.21-15.46-6.19-5.72,2.88-9.52,9.38-7.71,15.75,2.67,9.37,17.67,10.29,15.61-1.45-.56-3.17-5.38-1.82-4.82,1.33,.83,4.74-4.06,1.87-5.48-.23-3.78-5.61,4.05-13.35,9.71-10.26,4.77,2.6,8,9.52,9.86,14.33,2.52,6.54,2.66,13.48,.85,20.2-3.43,12.72-14.55,24.84-27.19,28.43-7.13,2.02-19.83,3.88-22.08,12.54-.81,3.12,4.01,4.45,4.82,1.33h0Z" style="fill: #732514;"/>
      <path d="M57.34,49.98c-18.73,0-33.91,15.18-33.91,33.91v61.9h10.98v-4.97c0-12.67,10.27-22.93,22.93-22.93s22.93,10.27,22.93,22.93v4.97h10.98v-61.9c0-18.73-15.18-33.91-33.91-33.91Z" style="fill: #ffebd0;"/>
      <path d="M96.31,19.7c0-4.77-3.87-8.64-8.65-8.64-3.47,0-6.45,2.05-7.83,4.99-5.95-5.41-13.82-8.73-22.5-8.73s-16.55,3.33-22.5,8.73c-1.38-2.95-4.36-4.99-7.83-4.99-4.77,0-8.65,3.87-8.65,8.64s3.48,8.24,7.92,8.61c-1.55,3.86-2.43,8.07-2.43,12.49,0,10.93,5.26,20.6,13.36,26.71v5.22c0,11.12,9.01,20.13,20.13,20.13s20.13-9.01,20.13-20.13v-5.22c8.1-6.11,13.36-15.79,13.36-26.71,0-4.42-.88-8.63-2.43-12.49,4.43-.37,7.92-4.08,7.92-8.61Z" style="fill: #732514;"/>
      <path d="M84.48,39c0-8.79-7.12-15.91-15.91-15.91-4.39,0-8.35,1.77-11.23,4.64-2.88-2.87-6.85-4.64-11.23-4.64-8.79,0-15.91,7.12-15.91,15.91,0,7.11,4.66,13.13,11.1,15.17-.02,.31-.05,.62-.05,.93v11.77c0,8.89,7.21,16.09,16.1,16.09s16.1-7.21,16.1-16.09v-11.77c0-.31-.03-.62-.05-.93,6.43-2.04,11.1-8.06,11.1-15.17Z" style="fill: #ffebd0;"/>
      <g>
        <path d="M54.14,64.61c0,.64-.52,1.16-1.16,1.16h0c-.64,0-1.16-.52-1.16-1.16v-8.26c0-.64,.52-1.16,1.16-1.16h0c.64,0,1.16,.52,1.16,1.16v8.26Z" style="fill: #732514;"/>
        <path d="M62.85,64.61c0,.64-.52,1.16-1.16,1.16h0c-.64,0-1.16-.52-1.16-1.16v-8.26c0-.64,.52-1.16,1.16-1.16h0c.64,0,1.16,.52,1.16,1.16v8.26Z" style="fill: #732514;"/>
      </g>
      <g>
        <circle cx="44.3" cy="39" r="9.26" style="fill: #732514;"/>
        <path d="M48.14,39c0,2.12-1.72,3.84-3.84,3.84s-3.84-1.72-3.84-3.84,1.72-3.84,3.84-3.84,3.84,1.72,3.84,3.84Z" style="fill: #ffebd0;"/>
        <circle cx="70.37" cy="39" r="9.26" style="fill: #732514;"/>
        <path d="M74.21,39c0,2.12-1.72,3.84-3.84,3.84s-3.84-1.72-3.84-3.84,1.72-3.84,3.84-3.84,3.84,1.72,3.84,3.84Z" style="fill: #ffebd0;"/>
        <path d="M44.85,37.99c0,.85-.69,1.54-1.54,1.54s-1.54-.69-1.54-1.54,.69-1.54,1.54-1.54,1.54,.69,1.54,1.54Z" style="fill: #732514;"/>
        <path d="M70.91,37.99c0,.85-.69,1.54-1.54,1.54s-1.54-.69-1.54-1.54,.69-1.54,1.54-1.54,1.54,.69,1.54,1.54Z" style="fill: #732514;"/>
      </g>
      <path d="M29.9,75.88c-13.11-8.72-22.41-25.41-22.36-41.23,.02-7.21,2.56-14.5,7.29-19.96,5.16-5.94,15.91-10.83,22.19-3.92,3.26,3.59,8.55-1.73,5.3-5.3C35.33-2.23,24.52-.88,16.25,3.87,7.84,8.7,2.76,17.87,.85,27.12c-4.29,20.67,8.27,43.93,25.27,55.23,4.04,2.69,7.79-3.81,3.79-6.48h0Z" style="fill: #ffebd0;"/>
      <path d="M86.23,79.35c3.66-1.8,6.26-2.42,9.87-.24,3.08,1.85,5.27,5.18,6.99,8.23,3.81,6.75,2.01,16.5,.67,23.64-1.92,10.16-7.45,24.02,5.24,29.09,4.5,1.79,6.43-5.46,1.99-7.23-5.83-2.33-1.23-13.9-.34-18.19,1.65-7.93,2.61-15.82,1.3-23.87-1.09-6.72-5.41-13.35-10.92-17.31-6.22-4.46-11.99-3.85-18.6-.59-4.34,2.14-.54,8.61,3.79,6.48h0Z" style="fill: #ffebd0;"/>
    </g>
  </g>
</svg>