<?xml version="1.0" encoding="UTF-8"?>
<svg id="Layer_2" data-name="Layer 2" xmlns="http://www.w3.org/2000/svg" width="98.64" height="152.7" viewBox="0 0 98.64 152.7">
  <g id="Objects">
    <g>
      <g>
        <polygon points="21.42 19.69 15.23 0 35.38 4.49 21.42 19.69" style="fill: #8c6746;"/>
        <polygon points="77.23 19.69 83.42 0 63.27 4.49 77.23 19.69" style="fill: #8c6746;"/>
      </g>
      <path d="M98.64,92.83c0,32.61-49.32,58.65-49.32,58.65,0,0-49.32-26.04-49.32-58.65S22.08,33.77,49.32,33.77s49.32,26.44,49.32,59.05Z" style="fill: #bf6836;"/>
      <g>
        <g>
          <path d="M12.77,87.29c0,5.05,4.09,9.14,9.14,9.14s9.14-4.09,9.14-9.14H12.77Z" style="fill: #ffce8b;"/>
          <path d="M31.04,87.29c0,5.05,4.09,9.14,9.14,9.14s9.14-4.09,9.14-9.14H31.04Z" style="fill: #ffce8b;"/>
          <path d="M49.32,87.29c0,5.05,4.09,9.14,9.14,9.14s9.14-4.09,9.14-9.14h-18.28Z" style="fill: #ffce8b;"/>
          <path d="M67.6,87.29c0,5.05,4.09,9.14,9.14,9.14s9.14-4.09,9.14-9.14h-18.28Z" style="fill: #ffce8b;"/>
        </g>
        <g>
          <path d="M21.91,100.9c0,5.05,4.09,9.14,9.14,9.14s9.14-4.09,9.14-9.14H21.91Z" style="fill: #ffce8b;"/>
          <path d="M40.18,100.9c0,5.05,4.09,9.14,9.14,9.14s9.14-4.09,9.14-9.14h-18.28Z" style="fill: #ffce8b;"/>
          <path d="M58.46,100.9c0,5.05,4.09,9.14,9.14,9.14s9.14-4.09,9.14-9.14h-18.28Z" style="fill: #ffce8b;"/>
        </g>
        <path d="M40.18,127.59c0,5.05,4.09,9.14,9.14,9.14s9.14-4.09,9.14-9.14h-18.28Z" style="fill: #ffce8b;"/>
        <g>
          <path d="M31.04,114.1c0,5.05,4.09,9.14,9.14,9.14s9.14-4.09,9.14-9.14H31.04Z" style="fill: #ffce8b;"/>
          <path d="M49.32,114.1c0,5.05,4.09,9.14,9.14,9.14s9.14-4.09,9.14-9.14h-18.28Z" style="fill: #ffce8b;"/>
        </g>
      </g>
      <g>
        <path d="M66.91,37.65c-6.36,11.54-8.69,29.57-5.26,48.95,3.11,17.58,10.3,32.49,19.03,41.57,9.74-9.8,17.96-22.02,17.96-35.35,0-25.19-13.18-46.69-31.73-55.17Z" style="fill: #8c6746;"/>
        <path d="M0,92.83c0,13.32,8.23,25.54,17.97,35.35,8.73-9.08,15.92-23.99,19.03-41.57,3.43-19.38,1.1-37.41-5.26-48.95C13.18,46.13,0,67.63,0,92.83Z" style="fill: #8c6746;"/>
      </g>
      <path d="M85.88,36.56c0,20.19-29.01,45.39-36.56,45.39S12.77,56.75,12.77,36.56,29.13,0,49.32,0s36.56,16.37,36.56,36.56Z" style="fill: #ffce8b;"/>
      <g>
        <path d="M42.11,139.44c-1.05,0-1.98,.52-2.57,1.3-.58-.78-1.51-1.3-2.57-1.3s-1.98,.52-2.57,1.3c-.58-.78-1.51-1.3-2.57-1.3-1.77,0-3.21,1.44-3.21,3.21v6.84c0,1.77,1.44,3.21,3.21,3.21,1.05,0,1.98-.51,2.57-1.3,.58,.79,1.51,1.3,2.57,1.3s1.98-.51,2.57-1.3c.58,.79,1.51,1.3,2.57,1.3,1.77,0,3.21-1.44,3.21-3.21v-6.84c0-1.77-1.44-3.21-3.21-3.21Z" style="fill: #ffce8b;"/>
        <path d="M66.8,139.44c-1.05,0-1.98,.52-2.57,1.3-.58-.78-1.51-1.3-2.57-1.3s-1.98,.52-2.57,1.3c-.58-.78-1.51-1.3-2.57-1.3-1.77,0-3.21,1.44-3.21,3.21v6.84c0,1.77,1.44,3.21,3.21,3.21,1.05,0,1.98-.51,2.57-1.3,.58,.79,1.51,1.3,2.57,1.3s1.98-.51,2.57-1.3c.58,.79,1.51,1.3,2.57,1.3,1.77,0,3.21-1.44,3.21-3.21v-6.84c0-1.77-1.44-3.21-3.21-3.21Z" style="fill: #ffce8b;"/>
      </g>
      <g>
        <path d="M50.68,33.77c0,8.82-7.15,15.97-15.97,15.97s-15.97-7.15-15.97-15.97,7.15-15.97,15.97-15.97,15.97,7.15,15.97,15.97Z" style="fill: #ffebd0;"/>
        <circle cx="34.71" cy="33.77" r="8.74" transform="translate(-10.81 17.25) rotate(-24.26)" style="fill: #8c6746;"/>
        <path d="M79.9,33.77c0,8.82-7.15,15.97-15.97,15.97s-15.97-7.15-15.97-15.97,7.15-15.97,15.97-15.97,15.97,7.15,15.97,15.97Z" style="fill: #ffebd0;"/>
        <circle cx="63.93" cy="33.77" r="8.74" transform="translate(-7.27 21.22) rotate(-17.84)" style="fill: #8c6746;"/>
        <rect x="44" y="42.01" width="10.65" height="10.65" transform="translate(-19.02 48.74) rotate(-45)" style="fill: #bf6836;"/>
        <path d="M34.19,30.77c0,1.37-1.11,2.48-2.48,2.48s-2.48-1.11-2.48-2.48,1.11-2.48,2.48-2.48,2.48,1.11,2.48,2.48Z" style="fill: #fff;"/>
        <path d="M63.41,30.77c0,1.37-1.11,2.48-2.48,2.48s-2.48-1.11-2.48-2.48,1.11-2.48,2.48-2.48,2.48,1.11,2.48,2.48Z" style="fill: #fff;"/>
      </g>
    </g>
  </g>
</svg>