<?xml version="1.0" encoding="UTF-8"?>
<svg id="Layer_2" data-name="Layer 2" xmlns="http://www.w3.org/2000/svg" width="110.38" height="152.48" viewBox="0 0 110.38 152.48">
  <g id="Objects">
    <g>
      <path d="M105.77,96.69c0,27.94-22.64,50.58-50.58,50.58S4.61,124.62,4.61,96.69,27.25,46.11,55.19,46.11s50.58,22.65,50.58,50.58Z" style="fill: #ffebd0;"/>
      <g>
        <path d="M46.07,16.52c0,9.12-7.39,16.52-16.52,16.52h0c-9.12,0-16.52-7.39-16.52-16.52h0C13.04,7.4,20.43,0,29.55,0h0c9.12,0,16.52,7.4,16.52,16.52h0Z" style="fill: #732514;"/>
        <path d="M97.34,16.52c0,9.12-7.4,16.52-16.52,16.52h0c-9.12,0-16.52-7.39-16.52-16.52h0c0-9.12,7.39-16.52,16.52-16.52h0c9.12,0,16.52,7.4,16.52,16.52h0Z" style="fill: #732514;"/>
      </g>
      <path d="M89.6,40.6c0,19-15.4,34.41-34.41,34.41S20.78,59.61,20.78,40.6,36.18,6.19,55.19,6.19s34.41,15.41,34.41,34.41Z" style="fill: #ffebd0;"/>
      <g>
        <path d="M52.61,33.03c0,6.84-5.55,12.39-12.39,12.39s-12.39-5.55-12.39-12.39,5.55-12.39,12.39-12.39,12.39,5.55,12.39,12.39Z" style="fill: #732514;"/>
        <circle cx="40.22" cy="33.03" r="3.35" style="fill: #ffebd0;"/>
        <path d="M82.54,33.03c0,6.84-5.55,12.39-12.39,12.39s-12.39-5.55-12.39-12.39,5.55-12.39,12.39-12.39,12.39,5.55,12.39,12.39Z" style="fill: #732514;"/>
        <circle cx="70.16" cy="33.03" r="3.35" style="fill: #ffebd0;"/>
      </g>
      <g>
        <path d="M53.53,95.32c-2.65,5.99-9.65,8.7-15.64,6.06l-30.81-13.62c-5.99-2.65-8.7-9.65-6.06-15.64h0c2.65-5.99,9.65-8.7,15.65-6.05l30.81,13.61c5.99,2.65,8.7,9.66,6.06,15.65h0Z" style="fill: #732514;"/>
        <path d="M56.85,95.32c2.65,5.99,9.65,8.7,15.64,6.06l30.81-13.62c5.99-2.65,8.7-9.65,6.06-15.64h0c-2.65-5.99-9.65-8.7-15.64-6.05l-30.81,13.61c-5.99,2.65-8.7,9.66-6.06,15.65h0Z" style="fill: #732514;"/>
      </g>
      <g>
        <path d="M47.4,149.62c-4.97,4.27-12.46,3.7-16.73-1.27l-21.96-25.55c-4.27-4.97-3.7-12.46,1.26-16.73h0c4.97-4.27,12.46-3.7,16.73,1.27l21.96,25.55c4.27,4.97,3.7,12.46-1.27,16.73h0Z" style="fill: #732514;"/>
        <path d="M62.97,149.62c4.97,4.27,12.46,3.7,16.73-1.27l21.96-25.55c4.27-4.97,3.7-12.46-1.27-16.73h0c-4.97-4.27-12.46-3.7-16.73,1.27l-21.96,25.55c-4.27,4.97-3.7,12.46,1.27,16.73h0Z" style="fill: #732514;"/>
      </g>
      <g>
        <path d="M61.64,47.45c0,3.56-2.89,6.45-6.45,6.45s-6.45-2.89-6.45-6.45,2.89-1.81,6.45-1.81,6.45-1.76,6.45,1.81Z" style="fill: #732514;"/>
        <path d="M65.11,61.52c-.33-.44-.96-.53-1.4-.2-2.39,1.79-6.17,.22-7.52-.43v-9.52c0-.55-.45-1-1-1s-1,.45-1,1v9.52c-1.35,.66-5.13,2.22-7.52,.43-.44-.33-1.07-.24-1.4,.2-.33,.44-.24,1.07,.2,1.4,1.21,.91,2.6,1.22,3.96,1.22,2.44,0,4.76-1.02,5.76-1.52,.99,.5,3.32,1.52,5.76,1.52,1.36,0,2.75-.32,3.96-1.22,.44-.33,.53-.96,.2-1.4Z" style="fill: #732514;"/>
      </g>
    </g>
  </g>
</svg>