<?xml version="1.0" encoding="UTF-8" standalone="no"?>
<svg
   xmlns:dc="http://purl.org/dc/elements/1.1/"
   xmlns:cc="http://creativecommons.org/ns#"
   xmlns:rdf="http://www.w3.org/1999/02/22-rdf-syntax-ns#"
   xmlns:svg="http://www.w3.org/2000/svg"
   xmlns="http://www.w3.org/2000/svg"
   id="svg2"
   version="1.1"
   viewBox="0 0 238 232"
   height="232px"
   width="238px">
  <metadata
     id="metadata14">
    <rdf:RDF>
      <cc:Work
         rdf:about="">
        <dc:format>image/svg+xml</dc:format>
        <dc:type
           rdf:resource="http://purl.org/dc/dcmitype/StillImage" />
        <dc:title></dc:title>
      </cc:Work>
    </rdf:RDF>
  </metadata>
  <defs
     id="defs8" />
  <g
     id="hammer"
     transform="matrix(0.70710678,-0.70710678,0.70710678,0.70710678,-27,99.6518)"
     style="fill:#ffffff;fill-rule:evenodd;stroke:none;stroke-width:1">
    <path
       style="fill:#ffffff"
       d="m 91.226102,175.32829 9.290398,-0.0731 0.18988,40.13647 c 0,5.96311 -5.103337,10.81462 -11.375962,10.81462 l -22.390813,0 c -6.272626,0 -11.375959,-4.85151 -11.375959,-10.81462 l 0.05158,-39.78292 9.427768,-0.0742 0,41.17609 c 0,0.26696 0.850478,0.48408 1.896148,0.48408 l 22.390814,0 c 1.045669,0 1.896148,-0.21712 1.896148,-0.48408 l 0,-41.38226 z"
       id="Combined-Shape" />
    <path
       style="fill:#ffffff"
       d="m 127.77947,13.965611 -25.83595,0 c -2.617427,0 -4.739905,2.017746 -4.739905,4.506019 0,2.488274 2.122478,4.50602 4.739905,4.50602 l 25.83595,0 c 2.61743,0 4.7399,-2.017746 4.7399,-4.50602 0,-2.487831 -2.12201,-4.506019 -4.7399,-4.506019 l 0,0 z"
       id="Shape" />
    <path
       style="fill:#ffffff"
       d="m 86.746452,13.965611 -2.026276,0 c -2.617428,0 -4.739906,2.017746 -4.739906,4.506019 0,2.488274 2.122478,4.50602 4.739906,4.50602 l 2.026276,0 c 2.617428,0 4.739905,-2.017746 4.739905,-4.50602 4.65e-4,-2.487831 -2.122477,-4.506019 -4.739905,-4.506019 l 0,0 z"
       id="path16" />
    <path
       style="fill:#ffffff"
       d="m 65.042992,84.803133 -9.479346,0.295893 0,-24.076241 -40.939139,0 c -5.7655915,0 -10.8312813,-3.098855 -13.2205209,-8.086447 -2.38970426,-4.988476 -1.52249536,-10.65513 2.2628297,-14.789587 L 34.249175,4.7432712 C 37.009279,1.7288022 41.003273,0 45.206866,0 l 89.242584,0 c 7.3155,0 13.26746,5.6582595 13.26746,12.612789 l 0,35.797648 c 0,6.95453 -5.95196,12.612789 -13.26746,12.612789 l -33.74307,0 0.16368,22.661586 -9.643958,0.301031 0,-22.962175 -26.18311,0 0,23.779465 z M 138.2371,48.410879 c 0,1.985494 -1.69864,3.600309 -3.78719,3.600309 l -119.825868,0 c -3.012923,0 -4.277022,-2.150289 -4.592582,-2.809028 C 9.7159,48.54298 8.8393963,46.224804 10.817804,44.064353 L 41.400163,10.660431 c 0.958763,-1.0470892 2.346948,-1.6479507 3.807168,-1.6479507 l 89.242579,0 c 2.08855,0 3.78719,1.6148157 3.78719,3.6003087 l 0,35.79809 z"
       id="path18" />
  </g>
  <g
     id="Saw"
     transform="translate(18,47)"
     style="fill:#ffffff;fill-rule:evenodd;stroke:none;stroke-width:1">
    <path
       id="path22"
       d="m 25.086825,122.30844 -7.08161,6.73946 c -3.416483,3.25141 -3.416483,8.54223 0,11.79406 l 28.326867,26.95824 c 1.655053,1.57509 3.855667,2.44273 6.196409,2.44273 2.341169,0 4.541356,-0.86764 6.196409,-2.44273 l 7.08161,-6.73946 c 0.704486,-0.67004 1.100093,-1.57915 1.100093,-2.5273 0,-0.94814 -0.395607,-1.85725 -1.100093,-2.52729 L 30.398033,122.30844 c -0.70406,-0.67045 -1.659325,-1.04694 -2.655604,-1.04694 -0.995851,-4.1e-4 -1.951544,0.37608 -2.655604,1.04694 l 0,0 z m 32.752873,36.2246 -4.425579,4.21216 c -0.319134,0.30372 -0.69167,0.34885 -0.885201,0.34885 -0.193104,0 -0.566067,-0.0451 -0.885201,-0.34885 L 23.31685,135.78695 c -0.488313,-0.46472 -0.488313,-1.22055 0,-1.68527 l 4.425579,-4.21216 30.097269,28.64352 0,0 z"
       style="fill:#ffffff" />
    <path
       id="path24"
       d="m 74.658949,127.36263 c 0.733111,0.69769 1.694357,1.04694 2.655604,1.04694 0.960819,0 1.922493,-0.34885 2.655604,-1.04694 L 182.65564,29.638826 c 1.46664,-1.395787 1.46664,-3.659215 0,-5.054595 -1.46665,-1.395787 -3.84499,-1.395787 -5.31121,0 L 74.658949,122.30844 c -1.466648,1.39497 -1.466648,3.6584 0,5.05419 l 0,0 z"
       style="fill:#ffffff" />
    <path
       id="path26"
       d="M 218.06411,17.844364 C 206.00495,6.3678468 189.97222,0.04756979 172.918,0.04756979 c -17.0538,0 -33.08696,6.32027701 -45.14612,17.79679421 L 34.824466,106.30141 30.39846,102.08925 c -1.466221,-1.39579 -3.844132,-1.39579 -5.311207,0 L 7.3823733,118.93789 c -9.2741065,8.82644 -9.2741065,23.18723 0,32.01285 L 35.70924,177.90899 c 4.492653,4.27559 10.465625,6.63049 16.818824,6.63049 6.353626,0 12.326598,-2.3545 16.81925,-6.63049 l 17.704025,-16.84865 c 0.704487,-0.67005 1.100093,-1.57916 1.100093,-2.5273 0,-0.94815 -0.395606,-1.85726 -1.100093,-2.5273 l -5.300954,-5.04443 3.525852,-8.02181 10.752717,-4.28047 c 0.910835,-0.36267 1.634974,-1.05141 2.015628,-1.91824 l 4.496068,-10.23157 10.75101,-4.27884 c 0.91041,-0.36267 1.63497,-1.05182 2.01563,-1.91825 l 4.49607,-10.23116 10.75058,-4.27844 c 0.91083,-0.36266 1.63497,-1.05182 2.01605,-1.91864 l 4.49522,-10.230355 10.7493,-4.277622 c 0.91083,-0.362669 1.6354,-1.051821 2.01605,-1.918648 l 4.49394,-10.228725 10.74972,-4.278029 c 0.91084,-0.362669 1.63498,-1.051821 2.01606,-1.918648 l 4.49521,-10.230351 10.74973,-4.278029 c 0.91083,-0.362669 1.63497,-1.051821 2.01605,-1.918648 l 4.49479,-10.229945 10.74973,-4.278028 c 0.91084,-0.362669 1.63497,-1.051821 2.01605,-1.918649 l 4.49479,-10.229538 10.75058,-4.278841 c 1.15521,-0.459842 1.99342,-1.437259 2.23608,-2.606174 0.24223,-1.169729 -0.14398,-2.376457 -1.02918,-3.219296 l 0,0 z M 64.036534,172.8552 c -3.07428,2.92494 -7.160645,4.53621 -11.508043,4.53621 -4.346971,0 -8.433763,-1.61127 -11.507616,-4.53621 L 12.694008,145.89696 c -6.3450815,-6.03893 -6.3450815,-15.86473 0,-21.90366 l 15.048848,-14.32176 51.342954,48.86231 -15.049276,14.32135 0,0 z M 201.78786,21.91829 c -0.91084,0.362668 -1.63497,1.05182 -2.01605,1.918648 l -4.49479,10.229538 -10.74973,4.278028 c -0.91083,0.362669 -1.63497,1.051821 -2.01605,1.918649 l -4.49479,10.229944 -10.74973,4.278029 c -0.91083,0.362669 -1.63497,1.051821 -2.01605,1.918648 l -4.49522,10.230351 -10.74973,4.278029 c -0.91083,0.362669 -1.6354,1.051821 -2.01605,1.918648 l -4.49394,10.228725 -10.7493,4.277622 c -0.91083,0.362669 -1.6354,1.051821 -2.01605,1.918648 l -4.49522,10.230351 -10.75015,4.278432 c -0.91083,0.36267 -1.63497,1.05183 -2.01605,1.91865 l -4.49607,10.23117 -10.750584,4.27843 c -0.910408,0.36267 -1.634974,1.05182 -2.015628,1.91865 l -4.496924,10.23157 -10.752718,4.28047 c -0.910407,0.36226 -1.634546,1.05141 -2.015627,1.91824 L 76.009821,145.49688 40.134819,111.35519 133.08351,22.899366 C 143.72344,12.773099 157.87043,7.196049 172.918,7.196049 c 13.12507,0 25.56531,4.243469 35.5909,12.047355 l -6.72104,2.674886 0,0 z"
       style="fill:#ffffff" />
  </g>
</svg>
