<?xml version="1.0" encoding="utf-8"?>
<!-- Generator: Adobe Illustrator 27.0.0, SVG Export Plug-In . SVG Version: 6.00 Build 0)  -->
<svg version="1.1"
	 id="svg2" xmlns:rdf="http://www.w3.org/1999/02/22-rdf-syntax-ns#" xmlns:dc="http://purl.org/dc/elements/1.1/" xmlns:svg="http://www.w3.org/2000/svg" xmlns:cc="http://creativecommons.org/ns#"
	 xmlns="http://www.w3.org/2000/svg" xmlns:xlink="http://www.w3.org/1999/xlink" x="0px" y="0px" viewBox="0 0 100 100"
	 style="enable-background:new 0 0 100 100;" xml:space="preserve">
<style type="text/css">
	.st0{fill:#FFFFFF;}
</style>
<g>
	<path class="st0" d="M96.8,75.7v-3.4h-2.8c-0.1-0.9-0.3-1.8-0.5-2.6l2.6-1.1l-1.3-3.2l-2.6,1.1c-0.4-0.8-0.9-1.5-1.5-2.2l2-2
		l-2.4-2.4l-2,2c-0.7-0.6-1.4-1.1-2.2-1.5l1.1-2.6l-3.2-1.3L82.8,59c-0.8-0.2-1.7-0.4-2.6-0.5v-2.8h-3.4v2.8
		c-0.9,0.1-1.8,0.3-2.6,0.5L73,56.4l-3.2,1.3l1.1,2.6c-0.8,0.4-1.5,0.9-2.2,1.5l-2-2l-2.4,2.4l2,2c-0.6,0.7-1.1,1.4-1.5,2.2
		l-2.6-1.1l-1.3,3.2l2.6,1.1c-0.2,0.8-0.4,1.7-0.5,2.6h-2.8v3.4H63c0.1,0.9,0.3,1.8,0.5,2.6l-2.6,1.1l1.3,3.2l2.6-1.1
		c0.4,0.8,0.9,1.5,1.5,2.2l-2,2l2.4,2.4l2-2c0.7,0.6,1.4,1.1,2.2,1.5l-1.1,2.6l3.2,1.3l1.1-2.6c0.8,0.2,1.7,0.4,2.6,0.5v2.8h3.4
		v-2.8c0.9-0.1,1.8-0.3,2.6-0.5l1.1,2.6l3.2-1.3L86,87.6c0.8-0.4,1.5-0.9,2.2-1.5l2,2l2.4-2.4l-2-2c0.6-0.7,1.1-1.4,1.5-2.2l2.6,1.1
		l1.3-3.2l-2.6-1.1c0.2-0.8,0.4-1.7,0.5-2.6H96.8z M82,66.6c0.1-0.6,0.7-0.9,1.3-0.8c0.6,0.1,0.9,0.7,0.8,1.3
		c-0.1,0.6-0.7,0.9-1.3,0.8C82.3,67.7,81.9,67.1,82,66.6z M75.3,65.1c0.5-0.3,1.1-0.1,1.4,0.3c0.3,0.5,0.1,1.1-0.3,1.4
		c-0.5,0.3-1.1,0.1-1.4-0.3C74.7,66,74.8,65.4,75.3,65.1z M69.9,78.5c-0.5,0.3-1.1,0.1-1.4-0.3c-0.3-0.5-0.1-1.1,0.3-1.4
		c0.5-0.3,1.1-0.1,1.4,0.3C70.6,77.6,70.4,78.2,69.9,78.5z M71.2,70.7c-0.1,0.6-0.7,0.9-1.3,0.8c-0.6-0.1-0.9-0.7-0.8-1.3
		c0.1-0.6,0.7-0.9,1.3-0.8C71,69.6,71.4,70.1,71.2,70.7z M74.9,83.5c-0.1,0.6-0.7,0.9-1.3,0.8c-0.6-0.1-0.9-0.7-0.8-1.3
		c0.1-0.6,0.7-0.9,1.3-0.8C74.7,82.4,75,83,74.9,83.5z M81.6,85c-0.5,0.3-1.1,0.1-1.4-0.3c-0.3-0.5-0.1-1.1,0.3-1.4
		c0.5-0.3,1.1-0.1,1.4,0.3C82.2,84.1,82.1,84.7,81.6,85z M78.5,81c-3.3,0-5.9-2.7-5.9-5.9c0-3.3,2.7-5.9,5.9-5.9
		c3.3,0,5.9,2.7,5.9,5.9C84.4,78.3,81.7,81,78.5,81z M87.7,79.9c-0.1,0.6-0.7,0.9-1.3,0.8c-0.6-0.1-0.9-0.7-0.8-1.3
		c0.1-0.6,0.7-0.9,1.3-0.8C87.5,78.8,87.8,79.3,87.7,79.9z M88.1,73.4c-0.5,0.3-1.1,0.1-1.4-0.3c-0.3-0.5-0.1-1.1,0.3-1.4
		c0.5-0.3,1.1-0.1,1.4,0.3C88.7,72.4,88.6,73.1,88.1,73.4z"/>
	<path class="st0" d="M54,50v-3.1l-4.5-1.1c0-0.2,0-0.3-0.1-0.4l4-2.3l-0.8-3l-4.6,0C48.1,40,48,39.8,48,39.7l3.3-3.2l-1.5-2.7
		l-4.5,1.2c-0.1-0.1-0.2-0.2-0.3-0.4l2.4-4l-2.2-2.2l-4,2.4c-0.1-0.1-0.2-0.2-0.4-0.3l1.2-4.5l-2.7-1.5l-3.2,3.3
		c-0.1-0.1-0.3-0.1-0.4-0.2l0-4.6l-3-0.8l-2.3,4c-0.1,0-0.3-0.1-0.4-0.1l-1.1-4.5h-3.1l-1.1,4.5c-0.2,0-0.3,0-0.4,0.1l-2.3-4l-3,0.8
		l0,4.6c-0.1,0.1-0.3,0.1-0.4,0.2l-3.2-3.3l-2.7,1.5l1.2,4.5c-0.1,0.1-0.2,0.2-0.4,0.3l-4-2.4l-2.2,2.2l2.4,4
		c-0.1,0.1-0.2,0.2-0.3,0.4L5,33.8l-1.5,2.7l3.3,3.2c-0.1,0.1-0.1,0.3-0.2,0.4l-4.6,0l-0.8,3l4,2.3c0,0.1-0.1,0.3-0.1,0.4l-4.5,1.1
		V50l4.5,1.1c0,0.2,0,0.3,0.1,0.4l-4,2.3l0.8,3l4.6,0c0.1,0.1,0.1,0.3,0.2,0.4l-3.3,3.2L5,63.2l4.5-1.2c0.1,0.1,0.2,0.2,0.3,0.4
		l-2.4,4l2.2,2.2l4-2.4c0.1,0.1,0.2,0.2,0.4,0.3l-1.2,4.5l2.7,1.5l3.2-3.3c0.1,0.1,0.3,0.1,0.4,0.2l0,4.6l3,0.8l2.3-4
		c0.1,0,0.3,0.1,0.4,0.1l1.1,4.5h3.1l1.1-4.5c0.2,0,0.3,0,0.4-0.1l2.3,4l3-0.8l0-4.6c0.1-0.1,0.3-0.1,0.4-0.2l3.2,3.3l2.7-1.5
		l-1.2-4.5c0.1-0.1,0.2-0.2,0.4-0.3l4,2.4l2.2-2.2l-2.4-4c0.1-0.1,0.2-0.2,0.3-0.4l4.5,1.2l1.5-2.7L48,57.3c0.1-0.1,0.1-0.3,0.2-0.4
		l4.6,0l0.8-3l-4-2.3c0-0.1,0.1-0.3,0.1-0.4L54,50z M43.4,46.3h-7.2c-0.8-3.3-3.4-5.9-6.7-6.7v-7.2C36.7,33.4,42.5,39.1,43.4,46.3z
		 M17.2,31c3.1-1.8,6.6-2.7,10.2-2.7c0,0,0,0,0,0c4.4,0,8.5,1.4,12,4c0.4,0.3,0.5,0.9,0.2,1.2c-0.2,0.2-0.4,0.4-0.7,0.4
		c-0.2,0-0.4-0.1-0.5-0.2c-3.2-2.4-7-3.6-11-3.6c0,0,0,0,0,0c-3.3,0-6.5,0.9-9.3,2.5c-0.4,0.2-1,0.1-1.2-0.3
		C16.6,31.8,16.8,31.2,17.2,31z M25.2,32.4v7.2c-3.3,0.8-5.9,3.4-6.7,6.7h-7.2C12.3,39.1,18,33.4,25.2,32.4z M18.5,65.7
		c-0.2,0.3-0.5,0.4-0.8,0.4c-0.2,0-0.3,0-0.4-0.1C11,62.4,7.1,55.7,7.1,48.5c0-0.8,0-1.5,0.1-2.3c0.1-0.5,0.5-0.8,1-0.8
		c0.5,0.1,0.8,0.5,0.8,1c-0.1,0.7-0.1,1.4-0.1,2.1c0,6.6,3.6,12.7,9.3,16C18.6,64.8,18.7,65.3,18.5,65.7z M25.2,64.5
		c-7.2-1-13-6.7-13.9-13.9h7.2c0.8,3.3,3.4,5.9,6.7,6.7V64.5z M27.8,53.9c0.1,0.5,0.3,1,0.7,1.4c0.1,0.1,0.1,0.2,0,0.3
		c-0.1,0.2-0.2,0.3-0.3,0.5c-0.5-0.4-0.7-0.8-0.9-1.3c-0.2-0.6-0.2-1.1-0.2-1.7c0-0.4,0-0.8,0-1.1c0-0.3-0.2-0.4-0.4-0.5
		c-0.2-0.1-0.4-0.1-0.6,0.1c-0.5,0.4-1,0.8-1.5,1.2c-0.4,0.4-0.9,0.7-1.5,0.9c-0.5,0.2-1,0.1-1.5-0.1c-0.5-0.2-0.7-0.6-0.7-1.1
		c0-0.4,0-0.8,0-1.2c0.1-0.9,0.1-1.8,0-2.7c-0.1-0.3-0.1-0.6-0.1-0.9c0-0.9,0.7-1.5,1.6-1.3c0.3,0.1,0.6,0.2,0.9,0.4
		c0.3,0.2,0.5,0.4,0.8,0.6c0.4,0.2,0.7,0.5,1.1,0.7c0.2,0.1,0.3,0.3,0.5,0.4c0.1,0.1,0.2,0.2,0.3,0.2c0.1,0.1,0.3,0.1,0.4,0.1
		c0,0,0,0,0-0.1c-0.1-0.1-0.1-0.3-0.2-0.4c-0.4-0.5-0.8-0.9-1.3-1.4c-0.4-0.4-0.7-0.8-1-1.3c-0.4-0.6-0.6-1.3-0.3-2.1
		c0.1-0.4,0.4-0.7,0.8-0.9c0.1-0.1,0.3-0.1,0.4-0.1c0.9,0.1,1.8,0.2,2.7,0.2c0.7,0,1.4-0.1,2.1-0.2c1.2-0.2,1.9,0.4,1.8,1.7
		c0,0.5-0.3,1-0.6,1.4c-0.6,0.7-1.2,1.5-1.7,2.2c-0.2,0.3-0.4,0.5-0.6,0.8c-0.1,0.1-0.1,0.2,0,0.3c0.1,0.1,0.2,0.1,0.3,0
		c0.6-0.3,1-0.8,1.5-1.3c0.4-0.4,0.8-0.7,1.3-1c0.4-0.2,0.8-0.3,1.2-0.2c0.2,0,0.4,0.1,0.5,0.3c0.4,0.5,0.5,1,0.4,1.6
		c-0.1,0.5-0.2,1-0.3,1.5c-0.1,0.5-0.1,1,0,1.5c0.1,0.6,0.2,1.2,0.2,1.7c0,0.4-0.2,0.8-0.6,1c-0.3,0.2-0.6,0.2-0.9,0.2
		c-0.6,0-1-0.3-1.5-0.6c-0.4-0.3-0.8-0.7-1.2-1.1c-0.3-0.3-0.7-0.6-1-0.8c-0.3-0.3-0.7-0.1-0.8,0.4C27.7,52.6,27.7,53.2,27.8,53.9z
		 M29.5,64.5v-7.2c3.3-0.8,5.9-3.4,6.7-6.7h7.2C42.5,57.9,36.7,63.6,29.5,64.5z M47.6,48.5c0,8.1-4.8,15.4-12.2,18.6
		c-0.1,0-0.2,0.1-0.4,0.1c-0.3,0-0.7-0.2-0.8-0.5c-0.2-0.5,0-1,0.5-1.2c6.8-2.9,11.2-9.6,11.2-17c0-0.5,0.4-0.9,0.9-0.9
		C47.2,47.6,47.6,47.9,47.6,48.5l-0.9-0.1L47.6,48.5z"/>
	<path class="st0" d="M99.3,33.6v-3.1h-4.5c-0.1-0.7-0.1-1.4-0.3-2.1l4.3-1.2l-0.8-3l-4.3,1.2c-0.2-0.7-0.5-1.3-0.8-1.9l3.9-2.2
		l-1.6-2.7l-3.9,2.2c-0.4-0.6-0.8-1.1-1.3-1.7l3.2-3.2l-2.2-2.2l-3.2,3.2c-0.5-0.5-1.1-0.9-1.7-1.3l2.2-3.9l-2.7-1.6L83.6,14
		c-0.6-0.3-1.3-0.6-1.9-0.8l1.2-4.3l-3-0.8l-1.2,4.3c-0.7-0.1-1.4-0.2-2.1-0.3V7.7h-3.1v4.5c-0.7,0.1-1.4,0.1-2.1,0.3l-1.2-4.3
		l-3,0.8l1.2,4.3c-0.7,0.2-1.3,0.5-1.9,0.8l-2.2-3.9l-2.7,1.6l2.2,3.9c-0.6,0.4-1.1,0.8-1.7,1.3l-3.2-3.2l-2.2,2.2l3.2,3.2
		c-0.5,0.5-0.9,1.1-1.3,1.7l-3.9-2.2l-1.6,2.7l3.9,2.2c-0.3,0.6-0.6,1.3-0.8,1.9l-4.3-1.2l-0.8,3l4.3,1.2c-0.1,0.7-0.2,1.4-0.3,2.1
		h-4.5v3.1h4.5c0.1,0.7,0.1,1.4,0.3,2.1l-4.3,1.2l0.8,3l4.3-1.2c0.2,0.7,0.5,1.3,0.8,1.9l-3.9,2.2l1.6,2.7l3.9-2.2
		c0.4,0.6,0.8,1.1,1.3,1.7l-3.2,3.2l2.2,2.2l3.2-3.2c0.5,0.5,1.1,0.9,1.7,1.3l-2.2,3.9l2.7,1.6l2.2-3.9c0.6,0.3,1.3,0.6,1.9,0.8
		l-1.2,4.3l3,0.8l1.2-4.3c0.7,0.1,1.4,0.2,2.1,0.3v4.5h3.1v-4.5c0.7-0.1,1.4-0.1,2.1-0.3l1.2,4.3l3-0.8l-1.2-4.3
		c0.7-0.2,1.3-0.5,1.9-0.8l2.2,3.9l2.7-1.6l-2.2-3.9c0.6-0.4,1.1-0.8,1.7-1.3l3.2,3.2l2.2-2.2l-3.2-3.2c0.5-0.5,0.9-1.1,1.3-1.7
		l3.9,2.2l1.6-2.7l-3.9-2.2c0.3-0.6,0.6-1.3,0.8-1.9l4.3,1.2l0.8-3l-4.3-1.2c0.1-0.7,0.2-1.4,0.3-2.1H99.3z M85.6,32
		c0-0.5,0.4-0.9,0.9-0.9s0.9,0.4,0.9,0.9v0c0,6.8-5.6,12.4-12.4,12.4c-0.6,0-1.2,0-1.7-0.1c-0.5-0.1-0.8-0.5-0.8-1
		c0.1-0.5,0.5-0.8,1-0.8c0.5,0.1,1,0.1,1.5,0.1C80.8,42.6,85.6,37.9,85.6,32z M60.9,32c0,0.5-0.4,0.9-0.9,0.9s-0.9-0.4-0.9-0.9v0
		c0-8.8,7.1-15.9,15.9-15.9c0.9,0,1.8,0.1,2.7,0.2c0.5,0.1,0.8,0.5,0.7,1c-0.1,0.5-0.5,0.8-1,0.7c-0.8-0.1-1.6-0.2-2.4-0.2
		C67.2,17.9,60.9,24.2,60.9,32z M64.4,32c0,0.5-0.4,0.9-0.9,0.9s-0.9-0.4-0.9-0.9v0c0-6.8,5.6-12.4,12.4-12.4c0.6,0,1.2,0,1.7,0.1
		c0.5,0.1,0.8,0.5,0.8,1c-0.1,0.5-0.5,0.8-1,0.8c-0.5-0.1-1-0.1-1.5-0.1C69.1,21.4,64.4,26.2,64.4,32z M71.2,38.3
		c-0.3,0.4-0.7,0.6-1.2,0.5c-0.3,0-0.6-0.1-0.8-0.1c-0.3,0-0.6-0.1-0.8-0.1c0-0.6-0.1-1.2-0.1-1.8c0-0.6,0.3-1,0.8-1.2
		c0.1,0,0.1-0.1,0.2-0.1c0,0,0,0,0,0c-0.1-0.2-0.2-0.5-0.4-0.7c-0.2-0.2-0.4-0.3-0.6-0.5c0,0-0.1-0.1-0.1-0.2c0-0.7,0.9-1.5,1.5-1.4
		c0.3,0.1,0.5,0.2,0.8,0.3c0.2,0.1,0.5,0.3,0.7,0.4c0.2,0.1,0.5,0.1,0.7,0.2c0.1,0,0.2,0,0.2-0.1c0,0,0-0.1-0.1-0.2
		c-0.1-0.2-0.3-0.3-0.4-0.5c-0.3-0.4-0.2-0.9,0.2-1.2c0.2-0.2,0.4-0.2,0.7-0.1c0.3,0.1,0.4,0,0.4-0.3c0-0.1,0-0.2,0-0.3
		c0-0.5-0.2-0.7-0.7-0.8c-0.3,0-0.6,0-0.9,0c-0.2,0-0.4,0.1-0.6,0.1c-0.3,0-0.6-0.1-0.8-0.4c-0.1-0.2-0.3-0.4-0.3-0.6c0,0,0,0,0.1,0
		c0.5-0.1,0.8-0.5,1-0.9c0.1-0.3,0.2-0.6,0.3-0.9c0.3-0.8,0.8-1.1,1.6-1c1.4,0.2,2.4,1.3,2.5,2.8c0,0.9-0.3,1.6-0.8,2.3
		c-0.2,0.2-0.4,0.5-0.5,0.7c0,0,0,0.1-0.1,0.1c0,0,0,0,0,0c0,0,0.1,0,0.1-0.1c0.6-0.5,1.1-1.1,1.4-1.8c0.3-0.7,0.5-1.4,0.7-2.2
		c0.3-1,0.8-1.6,1.8-2c0.3-0.1,0.6-0.2,0.9-0.3c1-0.2,2.1-0.4,3.1-0.5c0,0,0,0,0,0c-0.1,0.7-0.3,1.4-0.4,2.2
		c-0.1,0.6-0.2,1.2-0.4,1.7c-0.2,0.6-0.6,1-1.1,1.4c-0.3,0.2-0.5,0.3-0.8,0.4c-0.6,0.2-1.3,0.4-1.9,0.6c-0.7,0.2-1.3,0.6-1.8,1.1
		c-0.1,0.1-0.3,0.3-0.4,0.5c0,0,0,0,0,0.1c0.1-0.1,0.3-0.2,0.4-0.3c0.9-0.7,2-1.1,3.2-1c1.2,0.2,2.2,1.3,2.3,2.5
		c0,0.7-0.4,1.1-0.9,1.5c-0.3,0.2-0.6,0.2-0.8,0.3c-0.2,0.1-0.4,0.1-0.5,0.2c-0.3,0.2-0.5,0.4-0.6,0.8c0,0,0,0.1,0,0.1c0,0,0,0,0,0
		c-0.4-0.3-0.8-0.6-1-1.1c0-0.1,0-0.2,0-0.2c0-0.3,0.1-0.6,0.1-0.9c0-0.4,0-0.7-0.4-1c-0.2-0.1-0.7-0.1-0.9,0c0,0-0.1,0.1-0.1,0.1
		c0,0.1,0,0.2,0,0.3c0,0.4-0.1,0.6-0.5,0.8c-0.3,0.2-0.7,0.2-1,0c-0.2-0.1-0.3-0.3-0.5-0.5c-0.1-0.1-0.2-0.1-0.2,0.1
		c0,0.1,0,0.3,0,0.4c0.1,0.2,0.2,0.5,0.3,0.7c0.1,0.2,0.2,0.4,0.3,0.6c0.4,0.8,0.2,1.3-0.5,1.8c-0.2,0.1-0.4,0.2-0.6,0.3
		c-0.1,0-0.2,0-0.2-0.1c-0.3-0.3-0.6-0.6-0.9-0.9c-0.1-0.1-0.1-0.1-0.2-0.1C71.5,37.9,71.4,38.1,71.2,38.3z M90.9,32
		c0,8.8-7.1,15.9-15.9,15.9c-0.9,0-1.8-0.1-2.7-0.2c-0.5-0.1-0.8-0.5-0.7-1c0.1-0.5,0.5-0.8,1-0.7c0.8,0.1,1.6,0.2,2.4,0.2
		c7.8,0,14.1-6.3,14.1-14.1c0-0.5,0.4-0.9,0.9-0.9S90.9,31.4,90.9,32L90.9,32z"/>
</g>
</svg>
