<?xml version="1.0" encoding="UTF-8"?>
<svg id="Layer_2" data-name="Layer 2" xmlns="http://www.w3.org/2000/svg" width="169.4" height="123.27" viewBox="0 0 169.4 123.27">
  <g id="Objects">
    <g>
      <path d="M137.62,60.7h-13.48c0,2.61-2.12,4.73-4.72,4.73s-4.73-2.12-4.73-4.73h-29.76c-27.84,0-43.24-13.46-50.83-23.47,6.43,.73,16.6-3.33,20.74-8.28,5.16-6.18,4.33-15.36-1.84-20.52-6.18-5.16-15.36-4.33-20.52,1.84-1.35,1.62-2.5,3.86-3.36,6.36-.86-2.5-2-4.74-3.36-6.36-5.16-6.18-14.34-7-20.52-1.84C-.94,13.59-1.77,22.78,3.39,28.95c4.43,5.31,15.79,9.58,22.05,8.05-4.91,24.37-12.51,83.1,28.19,83.1h83.99c16.4,0,29.7-13.3,29.7-29.7s-13.3-29.7-29.7-29.7Z" style="fill: #8c6746;"/>
      <path d="M149.62,87.91c0,3.67-2.97,6.64-6.64,6.64h-7.92c-3.67,0-6.64-2.97-6.64-6.64h0c0-3.67,2.97-6.64,6.64-6.64h7.92c3.67,0,6.64,2.97,6.64,6.64h0Z" style="fill: #ffebd0;"/>
      <path d="M136.98,87.91c0,1.13,.91,2.04,2.04,2.04s2.04-.92,2.04-2.04-.91-2.04-2.04-2.04-2.04,.91-2.04,2.04Z" style="fill: #732514;"/>
      <path d="M156.91,110.78c-4.46,0-8.37,2.35-10.58,5.87-2.21-3.52-6.11-5.87-10.58-5.87s-8.37,2.35-10.58,5.87c-2.21-3.52-6.11-5.87-10.58-5.87s-8.37,2.35-10.58,5.87c-2.21-3.52-6.11-5.87-10.58-5.87s-8.37,2.35-10.58,5.87c-2.21-3.52-6.11-5.87-10.58-5.87s-8.37,2.35-10.58,5.87c-2.21-3.52-6.11-5.87-10.58-5.87s-8.37,2.35-10.58,5.87c-2.21-3.52-6.12-5.87-10.58-5.87-6.9,0-12.49,5.59-12.49,12.49H169.4c0-6.9-5.59-12.49-12.49-12.49Z" style="fill: #72c1a5;"/>
      <path d="M134.31,24.52c0-3.31-2.02-6.16-4.95-7.51,1.08-1.71,1.71-3.73,1.71-5.9,0-6.13-4.97-11.11-11.1-11.11s-11.11,4.97-11.11,11.11c0,1.17,.18,2.3,.52,3.36-3.22,1.24-5.49,4.24-5.49,7.75,0,3.9,2.81,7.17,6.62,8.09-.26,.62-.41,1.29-.41,2,0,3.03,2.58,5.48,5.77,5.48,.04,0,.08-.01,.12-.01-.14,.36-.23,.75-.23,1.17,0,.96,.41,1.83,1.08,2.46-.1,.32-.17,.65-.17,1,0,.73,.24,1.41,.65,1.97-.2,.47-.25,1.01-.07,1.52,.25,.71,.86,1.21,1.57,1.37v10.44c-1.34,.33-2.33,1.53-2.33,2.98,0,1.7,1.38,3.08,3.08,3.08s3.08-1.38,3.08-3.08c0-1.44-1-2.64-2.33-2.98v-10.61c.64-.29,1.1-.83,1.27-1.45,1.38-.49,2.37-1.75,2.37-3.23,0-.96-.42-1.84-1.08-2.46,.1-.32,.17-.65,.17-1,0,0,0,0,0,0,2.38-.06,4.29-1.9,4.29-4.17,0-.72-.21-1.38-.54-1.97,4.26-.58,7.54-4.06,7.54-8.27Z" style="fill: #72c1a5;"/>
    </g>
  </g>
</svg>