<?xml version="1.0" encoding="UTF-8"?>
<svg width="91px" height="100px" viewBox="0 0 91 100" version="1.1" xmlns="http://www.w3.org/2000/svg" xmlns:xlink="http://www.w3.org/1999/xlink">
    <!-- Generator: Sketch 40.2 (33826) - http://www.bohemiancoding.com/sketch -->
    <title>wulf-icon</title>
    <desc>Created with Sketch.</desc>
    <defs></defs>
    <g id="Page-1" stroke="none" stroke-width="1" fill="none" fill-rule="evenodd">
        <g id="wulf-icon" fill="#FFFFFF">
            <path d="M12.5934755,33.6196664 C12.018002,33.6196664 11.50647,33.20791 11.4004405,32.6202655 C11.378587,32.4994944 9.19891042,20.4507562 7.76629712,11.7576706 C6.38062822,3.36772844 8.64205282,1.46943412 9.67725757,1.04389846 C14.5020078,-1.99239979 20.0114985,4.53410142 24.8799556,10.2986912 L25.2231353,10.7039632 C27.5719736,13.4841295 28.7382989,14.7712736 29.3000128,15.3589181 C40.8839458,9.27902666 45.8487198,15.8719925 46.0583508,16.1613567 C46.4517124,16.7052318 46.3311139,17.4655222 45.7888252,17.8594466 C45.2489647,18.2525605 44.4938075,18.1334106 44.0988271,17.5968304 C43.9167153,17.3560988 39.8657382,12.2358916 29.7071339,17.9024055 C28.6994483,18.4106166 28.5974657,18.4616809 23.37126,12.2747977 L23.0280803,11.8687151 C18.9803407,7.07758885 13.9491971,1.11603689 10.8937648,3.15131316 C10.8225388,3.19913526 10.7464565,3.23885192 10.6671367,3.27046314 C10.5246848,3.38637095 9.07183681,4.7634854 10.1612704,11.3613145 C11.5914556,20.0357576 13.7678946,32.0658533 13.7889387,32.1866244 C13.9079184,32.8472179 13.4700406,33.4802528 12.8112003,33.6002133 C12.7383556,33.613182 12.6655108,33.6196664 12.5934755,33.6196664 L12.5934755,33.6196664 Z" id="Shape"></path>
            <path d="M45.0352868,99.9497334 C36.6605694,99.9497334 30.8588903,91.4641471 30.6168839,91.1034549 C19.3793681,74.1501143 1.15766009,64.7064648 0.973929463,64.6132522 C0.497201084,64.3692784 0.234960007,63.8408037 0.331276946,63.3131395 C0.920509984,60.0644786 1.96866491,56.1309081 2.56680119,53.9870189 L1.3025402,53.9967454 C0.934269547,53.9918821 0.560333196,53.823289 0.328848788,53.5193349 C0.0973643797,53.2161914 0.0212820918,52.8214564 0.124074119,52.4534694 C2.75134121,43.038189 10.8929554,32.5975703 11.6076433,31.6938136 C12.0293334,31.0445677 15.6869489,25.5482681 21.7152562,20.7725422 C19.6577968,17.398247 15.4303736,10.7282795 13.569595,8.93940868 C11.9564887,7.38883779 11.2385632,7.41153302 11.1114896,7.43260717 C10.8864803,7.46827111 10.6857526,7.76411971 10.5570602,8.00566186 C10.349048,8.46361928 10.1135166,9.07314845 10.0706192,9.2798372 C10.0374344,9.92178814 9.5072865,10.4316204 8.85815889,10.4316204 C8.18717787,10.4316204 7.64407983,9.88774529 7.64407983,9.21580422 C7.64407983,8.76027843 7.89256135,7.98945097 8.38304929,6.92358546 C9.11797181,5.54079721 10.0617159,5.13714624 10.7294594,5.03096496 C12.0455211,4.82427621 13.5250788,5.52620741 15.2498805,7.18539121 C17.9548486,9.78561673 24.0964699,20.0130624 24.3562828,20.4467035 C24.6767997,20.980852 24.5416322,21.6714356 24.0438598,22.0450965 C17.6060032,26.8799921 13.6561994,32.9971685 13.6173488,33.0587699 C13.594686,33.0936233 13.569595,33.1284767 13.5436947,33.161709 C13.4643749,33.2622164 5.94032221,42.7812465 2.94721263,51.5521444 L4.17100433,51.5424178 C4.55141577,51.5229648 4.91887703,51.7191165 5.15036144,52.0271232 C5.38184585,52.3343194 5.4538812,52.7339177 5.34461409,53.1035258 C5.32761698,53.1602639 3.75578929,58.5058023 2.88650868,62.8778773 C6.64529746,64.9358488 22.2737325,74.1201241 32.6346833,89.7522779 C32.682437,89.8219847 37.9628716,97.5189116 45.0352868,97.5189116 C45.7062678,97.5189116 46.2493659,98.0627867 46.2493659,98.7347278 C46.2493659,99.4066688 45.7062678,99.9497334 45.0352868,99.9497334 L45.0352868,99.9497334 Z" id="Shape"></path>
            <path d="M45.0401431,86.7265167 C42.412876,86.7265167 40.303616,85.9808161 38.9406099,84.5688483 C37.6941554,83.2776515 37.100066,81.4985072 37.1745296,79.2792374 C37.3258848,74.7466747 42.5359027,74.7466747 45.0401431,74.7466747 C45.7111241,74.7466747 46.2542222,75.2905498 46.2542222,75.9624909 C46.2542222,76.634432 45.7111241,77.1783071 45.0401431,77.1783071 C40.0842724,77.1783071 39.6399194,78.2109403 39.6010689,79.3611024 C39.5500776,80.8962729 39.9151107,82.0796673 40.6864556,82.8788638 C41.8163585,84.0492895 43.6779464,84.2948844 45.0401431,84.2948844 C45.7111241,84.2948844 46.2542222,84.8387595 46.2542222,85.5107006 C46.2542222,86.1826416 45.7103148,86.7265167 45.0401431,86.7265167 L45.0401431,86.7265167 Z" id="Shape"></path>
            <path d="M30.896122,53.1521584 C28.5221928,53.1521584 26.5918071,51.2182002 26.5918071,48.8416849 C26.5918071,46.4651695 28.5230022,44.5304007 30.896122,44.5304007 C33.2692419,44.5304007 35.200437,46.464359 35.200437,48.8416849 C35.200437,51.2190107 33.2692419,53.1521584 30.896122,53.1521584 L30.896122,53.1521584 Z M30.896122,46.9620331 C29.8617267,46.9620331 29.0199652,47.8049989 29.0199652,48.8416849 C29.0199652,49.8775602 29.8617267,50.7205261 30.896122,50.7205261 C31.9305174,50.7205261 32.7722789,49.8775602 32.7722789,48.8416849 C32.7722789,47.8049989 31.9313268,46.9620331 30.896122,46.9620331 L30.896122,46.9620331 Z" id="Shape"></path>
            <path d="M40.3805077,89.7765942 C39.4278603,89.7765942 38.6856533,89.6744657 38.4744035,89.6412334 C31.223114,88.1141682 29.6270047,82.6300268 30.5310889,77.9775036 C30.5950304,77.3047519 31.1397472,72.5030886 34.7504184,58.6079309 C34.9195801,57.958685 35.5808484,57.5680028 36.2315948,57.7374065 C36.8807224,57.9059997 37.2692277,58.5706458 37.1008754,59.2207022 C33.3437054,73.6799987 32.9495344,78.2012137 32.9454875,78.2449831 C32.9414406,78.2919947 32.9349655,78.3414379 32.9252528,78.3884494 C32.487375,80.5809713 32.1935679,85.8349182 38.9090439,87.2509388 C40.2793344,87.4543853 43.4043739,87.4397955 43.8916243,86.0108063 C44.1085398,85.3753397 44.7973273,85.0365322 45.4326953,85.2529475 C46.067254,85.4701733 46.4063868,86.1615675 46.1894713,86.7962235 C45.3274752,89.3210684 42.3877851,89.7765942 40.3805077,89.7765942 L40.3805077,89.7765942 Z" id="Shape"></path>
            <path d="M2.08440711,62.368045 C1.83997253,62.368045 1.59310978,62.2942855 1.37862248,62.1410927 C0.833905678,61.7504104 0.708450841,60.9909306 1.09857491,60.4446238 C15.3032999,40.5838614 30.981917,44.4096296 32.128817,44.7224997 C34.4193795,45.2169316 38.5691017,47.5910153 38.1490304,53.1310843 C38.0988484,53.8005937 37.5241843,54.2990784 36.8467282,54.2512563 C36.1781753,54.2010025 35.6771654,53.6166002 35.7281567,52.9470908 C36.0867147,48.2183764 32.0494971,47.1954698 31.5873377,47.0941517 C31.5622468,47.0884779 31.5314901,47.081183 31.5063991,47.0738881 C30.9017877,46.905295 16.4680065,43.1297805 3.07266747,61.8614549 C2.83551736,62.1913464 2.46319978,62.368045 2.08440711,62.368045 L2.08440711,62.368045 Z" id="Shape"></path>
            <path d="M37.1551043,53.9043434 C37.0490747,53.9043434 36.9414264,53.8905641 36.8345874,53.8613845 C36.2429262,53.6992757 35.8641336,53.1205472 35.953166,52.5126391 C36.3384338,49.8654021 33.3056643,47.7993251 33.2749076,47.7790615 C32.7188594,47.4062112 32.5666948,46.6524052 32.9373936,46.0947508 C33.3080924,45.536286 34.0583933,45.3830931 34.6160603,45.7527012 C34.7075209,45.813492 35.8633242,46.5916144 36.8758661,47.9055064 C36.8961008,46.7675025 36.7334142,45.5541179 36.2008382,44.4696099 C35.4432528,42.9263339 34.0065926,41.8499313 31.9305174,41.2695817 C31.6917485,41.2128437 25.0450703,39.7068527 23.2984153,45.8856305 C23.115494,46.5316341 22.4453224,46.9069161 21.7994323,46.7245436 C21.1543516,46.5413607 20.7796059,45.8694196 20.9617178,45.2234159 C22.8718688,38.4675307 29.3712387,38.1433131 32.544032,38.9173827 C35.3598861,39.7036105 37.3121252,41.2120331 38.3861805,43.4094182 C40.4703495,47.6728802 38.368374,52.9276377 38.2777227,53.1497268 C38.0883264,53.6149791 37.6374984,53.9043434 37.1551043,53.9043434 L37.1551043,53.9043434 Z" id="Shape"></path>
            <path d="M45.1016565,34.9489587 C44.4306754,34.9489587 43.8875774,34.4050836 43.8875774,33.7331426 L43.8875774,16.9459634 C43.8875774,16.2740224 44.4306754,15.7301473 45.1016565,15.7301473 C45.7726375,15.7301473 46.3157355,16.2740224 46.3157355,16.9459634 L46.3157355,33.7331426 C46.3157355,34.4050836 45.7726375,34.9489587 45.1016565,34.9489587 L45.1016565,34.9489587 Z" id="Shape"></path>
            <path d="M33.5161047,68.9431789 C33.0142853,68.9431789 32.5456508,68.6294983 32.370014,68.1293926 C30.6452124,63.2012844 28.4323509,61.5583115 24.7666415,58.8348832 L23.7103928,58.0470343 C18.9876252,54.5025249 19.0159537,47.4645704 19.0200006,47.1671007 C19.0280945,46.4951596 19.603568,45.978843 20.2486487,45.9658743 C20.9188203,45.9739798 21.4554432,46.5235287 21.4481588,47.1938487 L21.4481588,47.1938487 C21.4481588,47.2546395 21.4392555,53.3045407 25.1672876,56.102539 L26.2138238,56.883093 C29.973422,59.6754175 32.6897215,61.6936723 34.6621953,67.3261434 C34.8839671,67.9599889 34.5505,68.6538146 33.9183695,68.8759037 C33.7848208,68.9212942 33.648844,68.9431789 33.5161047,68.9431789 L33.5161047,68.9431789 Z" id="Shape"></path>
            <path d="M44.9681078,94.6495854 C44.004129,94.6495854 38.8596713,94.5174667 36.0656707,91.7794487 C34.8540198,90.5920016 34.2396958,89.1006004 34.2396958,87.3473935 C34.2396958,86.6754524 34.7827938,86.1315773 35.4537748,86.1315773 C36.1247559,86.1315773 36.6678539,86.6754524 36.6678539,87.3473935 C36.6678539,88.4359543 37.0256025,89.3162052 37.7613344,90.0384 C40.0510876,92.2876599 45.0158615,92.2179531 45.0676622,92.2171426 L45.0919438,92.2171426 C45.7507841,92.2171426 46.2922633,92.7448068 46.3060229,93.4078319 C46.3197824,94.0789624 45.7888252,94.6333746 45.1194629,94.6479643 C45.1000377,94.6479643 45.048237,94.6495854 44.9681078,94.6495854 L44.9681078,94.6495854 Z" id="Shape"></path>
            <path d="M45.207686,86.7265167 C42.5804189,86.7265167 40.4719683,85.9808161 39.1081528,84.5688483 C37.8616983,83.2784621 37.2667996,81.4985072 37.3404537,79.280048 C37.4918089,74.7466747 42.7026362,74.7466747 45.207686,74.7466747 C45.8786671,74.7466747 46.4217651,75.2905498 46.4217651,75.9624909 C46.4217651,76.634432 45.8786671,77.1783071 45.207686,77.1783071 C40.2501965,77.1783071 39.8058436,78.2109403 39.7669931,79.3611024 C39.7168111,80.8962729 40.0818442,82.0796673 40.8531891,82.8788638 C41.9839014,84.0492895 43.8446799,84.2948844 45.2068766,84.2948844 C45.8778577,84.2948844 46.4209557,84.8387595 46.4209557,85.5107006 C46.4209557,86.1826416 45.8786671,86.7265167 45.207686,86.7265167 L45.207686,86.7265167 Z" id="Shape"></path>
            <path d="M77.7709053,33.6196664 C77.6988699,33.6196664 77.6260252,33.613182 77.552371,33.6002133 C76.8927214,33.4802528 76.4548436,32.8480284 76.5746327,32.1866244 C76.5964861,32.0666639 78.7721158,20.0357576 80.2023009,11.362125 C81.2917345,4.7634854 79.839696,3.38637095 79.6964346,3.27127369 C79.6171148,3.23966247 79.5410325,3.19994581 79.4698066,3.1521237 C76.415993,1.1144158 71.3824212,7.07839939 67.3371098,11.8687151 L66.9939301,12.2756082 C61.7661057,18.4624915 61.6633136,18.4106166 60.7025724,17.9267218 C50.367522,12.1637532 46.3108792,17.5344185 46.2712193,17.5895355 C45.8770483,18.1326 45.1186536,18.2541816 44.5755555,17.8594466 C44.0332669,17.4655222 43.911859,16.7052318 44.30603,16.1613567 C44.515661,15.872803 49.4666754,9.29280591 61.064368,15.3589181 C61.6252725,14.7712736 62.7915978,13.4849401 65.1412455,10.7039632 L65.4844251,10.2978806 C70.3520728,4.53329087 75.8631824,-1.99321033 80.6871232,1.04308792 C81.7231373,1.46862358 83.9837525,3.36691789 82.598893,11.7576706 C81.1654703,20.4507562 78.9866031,32.4994944 78.9647497,32.6202655 C78.8579107,33.20791 78.3463787,33.6196664 77.7709053,33.6196664 L77.7709053,33.6196664 Z" id="Shape"></path>
            <path d="M45.3290939,99.9497334 C44.6581129,99.9497334 44.1150149,99.4058583 44.1150149,98.7339172 C44.1150149,98.0619762 44.6581129,97.5181011 45.3290939,97.5181011 C52.4257907,97.5181011 57.6819437,89.8227952 57.7337444,89.744983 C68.0906482,74.1193136 83.7190833,64.9358488 87.4778721,62.8778773 C86.6077821,58.5033707 85.0367638,53.1602639 85.0197666,53.1035258 C84.9104995,52.7339177 84.9833443,52.33513 85.2140193,52.0271232 C85.4455037,51.7191165 85.7886834,51.5164804 86.1933764,51.5424178 L87.4171681,51.5521444 C84.4232491,42.7812465 76.8991965,33.2622164 76.8198767,33.161709 C76.7939763,33.1284767 76.7688853,33.0944338 76.7462225,33.0587699 C76.707372,32.9971685 72.7567587,26.8799921 66.3197115,22.0450965 C65.8219391,21.6714356 65.6867717,20.980852 66.0072885,20.4467035 C66.2671014,20.0130624 72.4087227,9.78561673 75.1136909,7.18539121 C76.8393019,5.52620741 78.3164314,4.82103403 79.6341119,5.03096496 C80.3018554,5.13714624 81.2455995,5.54079721 81.948956,6.86036302 C82.47101,7.99026152 82.7194915,8.76108897 82.7194915,9.21661476 C82.7194915,9.88855583 82.1763935,10.4324309 81.5054125,10.4324309 C80.8562848,10.4324309 80.326137,9.92259869 80.2929522,9.28064775 C80.2500547,9.07558009 80.009667,8.45227166 79.7749451,7.94243942 C79.6778188,7.76411971 79.477091,7.46908165 79.2520817,7.43341771 C79.1266269,7.41234357 78.4078921,7.39045887 76.7939763,8.94021922 C74.9323884,10.7299006 70.7057745,17.3998681 68.6475058,20.7733527 C74.6766224,25.5490787 78.3342379,31.0453783 78.7559281,31.6946241 C79.4698066,32.5983808 87.6122301,43.0389995 90.2394972,52.45428 C90.3414799,52.822267 90.266207,53.217002 90.0347226,53.5201455 C89.8024288,53.8240995 89.4552022,53.9853978 89.0610312,53.997556 L87.7967702,53.9878294 C88.3949064,56.1317186 89.4430614,60.0652892 90.0322944,63.31395 C90.1286113,63.8416142 89.8663703,64.370089 89.3896419,64.6140628 C89.2067206,64.7072753 70.9850127,74.1509248 59.7515438,91.0977811 C59.5054905,91.4649576 53.7038113,99.9497334 45.3290939,99.9497334 L45.3290939,99.9497334 Z" id="Shape"></path>
            <path d="M45.3242376,86.7265167 C44.6532566,86.7265167 44.1101586,86.1826416 44.1101586,85.5107006 C44.1101586,84.8387595 44.6532566,84.2948844 45.3242376,84.2948844 C46.6864343,84.2948844 48.5472128,84.0492895 49.6779251,82.8788638 C50.44927,82.0796673 50.8143031,80.8962729 50.7633118,79.3611024 C50.7252707,78.2109403 50.2801084,77.1783071 45.3242376,77.1783071 C44.6532566,77.1783071 44.1101586,76.634432 44.1101586,75.9624909 C44.1101586,75.2905498 44.6532566,74.7466747 45.3242376,74.7466747 C47.828478,74.7466747 53.038496,74.7466747 53.1898512,79.2792374 C53.2643147,81.4985072 52.6702253,83.2776515 51.4237708,84.5688483 C50.0607647,85.9808161 47.9515047,86.7265167 45.3242376,86.7265167 L45.3242376,86.7265167 Z" id="Shape"></path>
            <path d="M59.4682587,53.1521584 C57.0943294,53.1521584 55.1639437,51.2182002 55.1639437,48.8416849 C55.1639437,46.4651695 57.0951388,44.5304007 59.4682587,44.5304007 C61.8413786,44.5304007 63.7725737,46.464359 63.7725737,48.8416849 C63.7725737,51.2190107 61.842188,53.1521584 59.4682587,53.1521584 L59.4682587,53.1521584 Z M59.4682587,46.9620331 C58.4338633,46.9620331 57.5921019,47.8049989 57.5921019,48.8416849 C57.5921019,49.8775602 58.4338633,50.7205261 59.4682587,50.7205261 C60.5026541,50.7205261 61.3444155,49.8775602 61.3444155,48.8416849 C61.3444155,47.8049989 60.5026541,46.9620331 59.4682587,46.9620331 L59.4682587,46.9620331 Z" id="Shape"></path>
            <path d="M49.9798261,89.7725415 C47.9531235,89.7725415 45.033668,89.3113419 44.1757188,86.795413 C43.9588034,86.1599464 44.2971267,85.4693628 44.9324948,85.252137 C45.5678628,85.0357217 46.2566503,85.3737186 46.4735658,86.0099957 C47.0134263,87.5913673 50.5933407,87.3806258 51.5225159,87.2387806 C58.1724316,85.8349182 57.8786245,80.5809713 57.4407467,78.3884494 C57.431034,78.3398168 57.4237496,78.2911841 57.420512,78.2425515 C57.4172745,78.2012137 57.0222941,73.6799987 53.2651241,59.2207022 C53.0967718,58.5706458 53.4852771,57.9068102 54.1344047,57.7374065 C54.7843417,57.5696239 55.4464195,57.9578745 55.6155811,58.6079309 C59.2262523,72.5038992 59.7717785,77.3055625 59.8349106,77.9775036 C60.7389948,82.6300268 59.1436949,88.1141682 51.9571562,89.6290752 C51.7224343,89.6663602 50.9535175,89.7725415 49.9798261,89.7725415 L49.9798261,89.7725415 Z" id="Shape"></path>
            <path d="M88.2799736,62.368045 C87.901181,62.368045 87.5288634,62.1913464 87.2917133,61.8606444 C73.8389079,43.0495366 59.007718,47.0325504 58.8579816,47.0730776 C58.8288437,47.081183 58.8005152,47.0884779 58.7713773,47.0941517 C58.3165024,47.1938487 54.2784754,48.2167553 54.6370334,52.9454697 C54.6880247,53.6149791 54.1870148,54.1993814 53.5184619,54.2496352 C52.8482903,54.2990784 52.2663417,53.7989726 52.2161598,53.1294632 C51.795279,47.5902047 55.9450013,45.2153105 58.2363731,44.7208786 C59.3832732,44.4080085 75.0618902,40.5814298 89.2666152,60.4430027 C89.6567393,60.9893095 89.5312844,61.7487893 88.9865676,62.1394716 C88.7720803,62.2942855 88.5244082,62.368045 88.2799736,62.368045 L88.2799736,62.368045 Z" id="Shape"></path>
            <path d="M53.2092764,53.9043434 C52.7268824,53.9043434 52.2760543,53.6149791 52.0858486,53.1489163 C51.9951974,52.9276377 49.8940312,47.6728802 51.9773909,43.4086077 C53.0522555,41.2112226 55.0044947,39.7028 57.7806888,38.9271093 C60.9923326,38.1441236 67.4925119,38.4667202 69.4018536,45.2226054 C69.5847748,45.868609 69.2092197,46.5405501 68.564139,46.7237331 C67.9190584,46.9061055 67.2480773,46.5316341 67.0651561,45.8848199 C65.3087884,39.6679466 58.6758698,41.210412 58.3942034,41.2793083 C56.3569788,41.8491208 54.9203185,42.9255234 54.1627332,44.4687994 C53.6301572,45.5541179 53.4666612,46.7666919 53.4877052,47.9055064 C54.5002472,46.5916144 55.6560504,45.8126815 55.7475111,45.7527012 C56.3067968,45.3822826 57.0603352,45.536286 57.4294153,46.0971825 C57.7984953,46.6564579 57.6455213,47.4094534 57.0886637,47.7798721 C57.0498132,47.80662 54.025947,49.8710759 54.4104053,52.5134497 C54.4986284,53.1213578 54.1206451,53.7000863 53.5289839,53.8621951 C53.422145,53.8905641 53.3144966,53.9043434 53.2092764,53.9043434 L53.2092764,53.9043434 Z" id="Shape"></path>
            <path d="M45.2627243,34.9489587 C44.5917432,34.9489587 44.0486452,34.4050836 44.0486452,33.7331426 L44.0486452,16.9459634 C44.0486452,16.2740224 44.5917432,15.7301473 45.2627243,15.7301473 C45.9337053,15.7301473 46.4768033,16.2740224 46.4768033,16.9459634 L46.4768033,33.7331426 C46.4768033,34.4050836 45.9337053,34.9489587 45.2627243,34.9489587 L45.2627243,34.9489587 Z" id="Shape"></path>
            <path d="M56.8490855,68.9431789 C56.7155368,68.9431789 56.5803693,68.9212942 56.44763,68.8742826 C55.8146901,68.6521935 55.4820324,67.9583678 55.7038042,67.3245223 C57.6754686,61.6920512 60.3917682,59.6746069 64.1521757,56.8814719 L65.1987119,56.1017285 C68.926744,53.3029197 68.9186501,47.2538289 68.9178407,47.1930381 C68.912175,46.5227181 69.4496074,45.9731692 70.119779,45.9658743 L70.1327292,45.9658743 C70.7964257,45.9658743 71.3387144,46.5000229 71.3468082,47.1662902 C71.3500458,47.4637599 71.3791837,54.5025249 66.6556067,58.0470343 L65.599358,58.8348832 C61.9336486,61.5575009 59.7207871,63.2012844 57.9959855,68.1293926 C57.8195393,68.6294983 57.3500954,68.9431789 56.8490855,68.9431789 L56.8490855,68.9431789 Z" id="Shape"></path>
            <path d="M45.396273,94.6495854 C45.3161438,94.6495854 45.2651524,94.6487749 45.2457272,94.6479643 C44.5755555,94.6333746 44.0454077,94.0781518 44.0591672,93.4078319 C44.0729268,92.7448068 44.6144061,92.2171426 45.2732463,92.2171426 C45.2853871,92.2171426 45.2198268,92.2171426 45.3655163,92.2179531 C45.9733652,92.2179531 50.4597921,92.1441936 52.6030463,90.0384 C53.3387782,89.3162052 53.6965268,88.4359543 53.6965268,87.3473935 C53.6965268,86.6754524 54.2396249,86.1315773 54.9106059,86.1315773 C55.5815869,86.1315773 56.124685,86.6754524 56.124685,87.3473935 C56.124685,89.101411 55.510361,90.5920016 54.29871,91.7794487 C51.5047094,94.5166562 46.3610611,94.6495854 45.396273,94.6495854 L45.396273,94.6495854 Z" id="Shape"></path>
            <path d="M45.1566947,86.7265167 C44.4857137,86.7265167 43.9426156,86.1826416 43.9426156,85.5107006 C43.9426156,84.8387595 44.4857137,84.2948844 45.1566947,84.2948844 C46.5188914,84.2948844 48.3796699,84.0492895 49.5103822,82.8788638 C50.2825365,82.0796673 50.6475696,80.8962729 50.5965783,79.3611024 C50.5585371,78.2117508 50.1133748,77.1791176 45.1558853,77.1791176 C44.4849043,77.1791176 43.9418063,76.6352425 43.9418063,75.9633014 C43.9418063,75.2913604 44.4849043,74.7474853 45.1558853,74.7474853 C47.6601257,74.7474853 52.8717625,74.7474853 53.0231176,79.280048 C53.0967718,81.4993177 52.501873,83.2792726 51.2554185,84.5696588 C49.8924124,85.9808161 47.7839618,86.7265167 45.1566947,86.7265167 L45.1566947,86.7265167 Z" id="Shape"></path>
        </g>
    </g>
</svg>