<?xml version="1.0" encoding="UTF-8"?>
<svg width="152px" height="200px" viewBox="0 0 152 200" version="1.1" xmlns="http://www.w3.org/2000/svg" xmlns:xlink="http://www.w3.org/1999/xlink">
    <!-- Generator: Sketch 40.2 (33826) - http://www.bohemiancoding.com/sketch -->
    <title>Icon / Mixed</title>
    <desc>Created with Sketch.</desc>
    <defs></defs>
    <g id="Icons" stroke="none" stroke-width="1" fill="none" fill-rule="evenodd">
        <g id="Artboard" transform="translate(-555.000000, 0.000000)">
            <g id="Icon-/-Mixed" transform="translate(531.000000, 0.000000)">
                <g id="femenine" transform="translate(24.000000, 0.000000)" fill="#FFFFFF">
                    <path d="M101.330847,125.571638 C78.2649915,148.637494 40.6933756,148.590583 17.5753749,125.472583 C-5.54363792,102.35357 -5.58852635,64.7819565 17.4763195,41.7171107 C40.5388935,18.6545366 78.110507,18.6994251 101.22952,41.8184378 C124.347521,64.9364386 124.393421,102.509064 101.330847,125.571638 L101.330847,125.571638 L101.330847,125.571638 Z M33.1574526,57.3982438 C18.7182912,71.8374053 18.7463907,95.3566874 33.2200956,109.830392 C47.6917763,124.302073 71.2130826,124.332197 85.652244,109.893035 C100.090396,95.4548835 100.062041,71.9333266 85.5896011,57.4608868 C71.1148865,42.9881916 47.5956044,42.9600921 33.1574526,57.3982438 L33.1574526,57.3982438 L33.1574526,57.3982438 Z" id="Shape"></path>
                    <polygon id="Shape" points="151.20674 58.0443464 129.49979 58.0443464 129.49979 21.7069497 93.1623932 21.7069497 93.1623932 0 151.20674 0"></polygon>
                    <rect id="Rectangle-path" transform="translate(116.738975, 34.687693) rotate(225.000000) translate(-116.738975, -34.687693) " x="105.885779" y="1.32000099" width="21.7063912" height="66.7353835"></rect>
                    <polygon id="Rectangle-path" points="70.5686146 199.927005 48.4477815 199.927005 48.4477815 131.754735 70.5686146 131.754735 70.5686146 199.927005"></polygon>
                    <polygon id="Rectangle-path" points="93.4990657 176.929661 25.4894982 176.929661 25.4894982 154.755908 93.4990657 154.755908 93.4990657 176.929661"></polygon>
                </g>
                <rect id="Rectangle" x="0" y="0" width="200" height="200"></rect>
            </g>
        </g>
    </g>
</svg>