<?xml version="1.0" encoding="UTF-8"?>
<svg width="135px" height="200px" viewBox="0 0 135 200" version="1.1" xmlns="http://www.w3.org/2000/svg" xmlns:xlink="http://www.w3.org/1999/xlink">
    <!-- Generator: Sketch 40.2 (33826) - http://www.bohemiancoding.com/sketch -->
    <title>Icon / Female</title>
    <desc>Created with Sketch.</desc>
    <defs></defs>
    <g id="Icons" stroke="none" stroke-width="1" fill="none" fill-rule="evenodd">
        <g id="Artboard" transform="translate(-309.000000, 0.000000)">
            <g id="Icon-/-Female" transform="translate(276.000000, 0.000000)">
                <path d="M148.103972,115.455162 C121.902951,141.656182 79.224514,141.602896 52.9642608,115.342643 C26.7028579,89.0812397 26.6518681,46.402805 52.8517415,20.2029316 C79.0490344,-5.99436131 121.727469,-5.94337154 147.988872,20.3180313 C174.249125,46.5782846 174.301265,89.2578689 148.103972,115.455162 L148.103972,115.455162 L148.103972,115.455162 Z M70.6642909,38.0154809 C54.262525,54.4172468 54.2944438,81.1333245 70.7354484,97.5743291 C87.1741536,114.013034 113.892531,114.047253 130.294297,97.6454866 C146.694916,81.2448676 146.662707,54.5262059 130.223139,38.0866384 C113.780988,21.6467807 87.0649099,21.6148619 70.6642909,38.0154809 L70.6642909,38.0154809 L70.6642909,38.0154809 Z" id="Shape" fill="#FFFFFF"></path>
                <polygon id="Rectangle-path" fill="#FFFFFF" points="113.160465 199.917083 88.0329169 199.917083 88.0329169 122.47868 113.160465 122.47868 113.160465 199.917083"></polygon>
                <polygon id="Rectangle-path" fill="#FFFFFF" points="139.207677 173.793887 61.9540902 173.793887 61.9540902 148.606225 139.207677 148.606225 139.207677 173.793887"></polygon>
                <rect id="Rectangle" x="0" y="1" width="200" height="200"></rect>
            </g>
        </g>
    </g>
</svg>