<?xml version="1.0" encoding="utf-8"?>
<svg version="1.1" id="RZ" xmlns="http://www.w3.org/2000/svg" xmlns:xlink="http://www.w3.org/1999/xlink" x="0px" y="0px"
	 viewBox="0 0 60.4 68.7" style="enable-background:new 0 0 60.4 68.7;" xml:space="preserve">
<style type="text/css">
	.st0{fill:#FFFFFF;}
</style>
<path class="st0" d="M53.7,26.5c-0.1,0.4-0.2,0.7-0.3,1.2c-0.1,0.6-0.2,1.2-0.1,1.9v0c0,0.6,0,1.2,0.1,1.9c0.1,0.4,0.2,0.8,0.3,1.2
	c0,0.1,0,0.1,0,0.2c0,0.1,0,0.3,0,0.4c0,0.1,0,0.2,0,0.3c0.1,2.1-1.5,3.9-3.6,4c-0.7,0-1.7,0.1-4.1-1.8c-0.6-0.5-6-6.1-6-6.1h0l0,0
	h0c0,0,5.4-5.6,6-6.1c0.8-0.7,1.8-1.3,2.8-1.6c-0.7-0.7-1.5-1.4-2.3-2.1c-0.3,0.4-0.6,0.8-1,1.3c-0.6,0.7-6.8,6.8-6.8,6.8v0l0,0v0
	c0,0-6.3-6.1-6.8-6.8c-2.1-2.7-2-3.8-2-4.6v0c0.1-2.3,2.1-4.1,4.4-4c0.1,0,0.2,0,0.3,0c0.2,0,0.3,0,0.4,0c0.1,0,0.2,0,0.2,0
	c0.5,0.1,0.9,0.2,1.3,0.3c0.5,0.1,1.1,0.1,1.6,0.2C30.9,7.4,22.7,3.1,13.9,0C8.9,8.2,4.8,18.7,2.2,30.3c-0.7,3.3-1.3,6.6-1.6,10
	c0.4,0,0.7,0,1.1,0c2.2,0.1,4.3,1.2,5.7,3c1.3,1.6,2.3,3.4,2.8,5.4c-1.2-0.5-2.4-0.8-3.6-1c-1.2-0.2-2.4-0.2-3.6-0.1
	c-1,0.1-1.9,0.3-2.8,0.7c-0.1,3.9,0.1,7.8,0.5,11.7c4,1.7,8,3.3,12.2,4.5c-1.1-1.3-1.6-2.9-1.6-4.6c0-2.2,1-4.4,2.8-5.7
	c1.8,1.3,2.9,3.4,2.8,5.7c0,1.9-0.8,3.8-2.2,5.1c3.2,0.9,6.5,1.6,9.8,2.2c8.4,1.5,16.9,1.9,25.4,1.3c4.1-8.1,7.1-16.7,9-25.5
	c0.7-2.9,1.2-5.9,1.6-8.7C58.4,31.6,56.1,29,53.7,26.5z M6.9,32.3c-0.1-5.6,2.6-10.9,7.1-14.2c4.5,3.3,7.2,8.6,7.1,14.2
	c0.1,5.6-2.6,10.9-7.1,14.2C9.4,43.2,6.8,37.9,6.9,32.3L6.9,32.3z M8.4,57.7c-1.2,1.2-2.9,1.8-4.5,1.5c-0.4-2.9,1.6-5.6,4.5-6
	c0.5-0.1,1-0.1,1.5,0C10.2,54.8,9.6,56.5,8.4,57.7z M13.9,52c-1.5,0.1-3.1-0.4-4.3-1.4c1.2-1,2.7-1.5,4.3-1.4
	c1.5-0.1,3.1,0.4,4.3,1.4C17,51.6,15.5,52.1,13.9,52z M23.8,59.2c-2.9,0.4-5.6-1.6-6-4.5c-0.1-0.5-0.1-1,0-1.5
	c2.9-0.4,5.6,1.6,6,4.5C23.9,58.2,23.9,58.7,23.8,59.2z M33.2,49.1c-0.2,0.6-0.5,1.2-0.8,1.7l-1.2-0.9c-0.9-0.6-1.8-1.2-2.8-1.6
	c-1-0.5-2.1-0.8-3.3-0.9c-1.2-0.1-2.4,0-3.6,0.1c-1.2,0.2-2.5,0.6-3.6,1c0.5-2,1.5-3.8,2.8-5.4c1.4-1.7,3.5-2.8,5.7-3
	c1.2,0,2.3,0.1,3.4,0.6c1.1,0.5,2.1,1.2,2.8,2.2C33.7,44.8,34,47.1,33.2,49.1L33.2,49.1z M37.6,29.5L37.6,29.5c0,0-5.4,5.6-6,6.1
	c-2.4,1.9-3.4,1.8-4.1,1.8h0c-2.1-0.1-3.7-1.9-3.6-4c0-0.1,0-0.2,0-0.3c0-0.1,0-0.3,0-0.4c0-0.1,0-0.1,0-0.2
	c0.1-0.4,0.2-0.8,0.3-1.2c0.1-0.6,0.2-1.2,0.1-1.9v0c0-0.6,0-1.2-0.1-1.9c-0.1-0.4-0.2-0.8-0.3-1.2c0-0.1,0-0.1,0-0.2
	c0-0.1,0-0.3,0-0.4c0-0.1,0-0.2,0-0.3c-0.1-2.1,1.5-3.9,3.6-4c0.7,0,1.7-0.1,4.1,1.8C32.2,23.9,37.6,29.5,37.6,29.5L37.6,29.5
	L37.6,29.5z M38.9,43c-1-2.1-1.4-4.3-1.3-6.6c-0.1-2.3,0.4-4.5,1.3-6.6c1,2.1,1.4,4.3,1.3,6.6C40.3,38.7,39.9,41,38.9,43z"/>
</svg>
