<svg xmlns="http://www.w3.org/2000/svg" xmlns:xlink="http://www.w3.org/1999/xlink" version="1.1" id="Layer_1" x="0px" y="0px" viewBox="0 0 141.7 141.7" xml:space="preserve" class="item-fill" fill="currentColor">
<g class="item-fill" fill="currentColor">
	<path class="st0 item-fill" d="M130.3,67.3H11.5c-1.6,0-3-1.3-3-3V11.7c0-1.6,1.3-3,3-3h118.8c1.6,0,3,1.3,3,3v52.7   C133.2,66,131.9,67.3,130.3,67.3z M11.5,9c-1.5,0-2.7,1.2-2.7,2.7v52.7c0,1.5,1.2,2.7,2.7,2.7h118.8c1.5,0,2.7-1.2,2.7-2.7V11.7   c0-1.5-1.2-2.7-2.7-2.7H11.5z" fill="currentColor"/>
</g>
<path class="st0 item-fill" d="M16.6,37.3h22.2c1.6,0,2.8,1.3,2.8,2.8v2.8c0,1.6-1.3,2.8-2.8,2.8H16.6c-1.6,0-2.8-1.3-2.8-2.8v-2.8  C13.7,38.6,15,37.3,16.6,37.3z" fill="currentColor"/>
<g class="item-fill" fill="currentColor">
	<path class="st0 item-fill" d="M15.1,48.6h106.8c0.8,0,1.4,0.6,1.4,1.4l0,0c0,0.8-0.6,1.4-1.4,1.4H15.1c-0.8,0-1.4-0.6-1.4-1.4l0,0   C13.7,49.2,14.3,48.6,15.1,48.6z" fill="currentColor"/>
	<path class="st0 item-fill" d="M15.1,52.8h106.8c0.8,0,1.4,0.6,1.4,1.4v0c0,0.8-0.6,1.4-1.4,1.4H15.1c-0.8,0-1.4-0.6-1.4-1.4v0   C13.7,53.5,14.3,52.8,15.1,52.8z" fill="currentColor"/>
	<path class="st0 item-fill" d="M15.1,57.1h106.8c0.8,0,1.4,0.6,1.4,1.4v0c0,0.8-0.6,1.4-1.4,1.4H15.1c-0.8,0-1.4-0.6-1.4-1.4v0   C13.7,57.7,14.3,57.1,15.1,57.1z" fill="currentColor"/>
	<path class="st0 item-fill" d="M15.1,61.3h77.2c0.8,0,1.4,0.6,1.4,1.4v0c0,0.8-0.6,1.4-1.4,1.4H15.1c-0.8,0-1.4-0.6-1.4-1.4v0   C13.7,62,14.3,61.3,15.1,61.3z" fill="currentColor"/>
</g>
<path class="st0 item-fill" d="M130.3,8.6H11.5c-1.6,0-2.8,1.3-2.8,2.8v21.5c0,1.6,1.3,2.8,2.8,2.8h118.8c1.6,0,2.8-1.3,2.8-2.8V11.5  C133.1,9.9,131.8,8.6,130.3,8.6z M13.2,15.2c0-1.6,1.3-2.8,2.8-2.8h23.9c1.6,0,2.8,1.3,2.8,2.8V18c0,1.6-1.3,2.8-2.8,2.8H16.1  c-1.6,0-2.8-1.3-2.8-2.8V15.2z M41.9,33.4H15.1c-0.8,0-1.4-0.6-1.4-1.4c0-0.8,0.6-1.4,1.4-1.4h26.7c0.8,0,1.4,0.6,1.4,1.4  C43.3,32.7,42.6,33.4,41.9,33.4z M41.9,28.2H15.1c-0.8,0-1.4-0.6-1.4-1.4c0-0.8,0.6-1.4,1.4-1.4h26.7c0.8,0,1.4,0.6,1.4,1.4  C43.3,27.6,42.6,28.2,41.9,28.2z" fill="currentColor"/>
<path class="st0 item-fill" d="M130.3,70.1H11.5c-1.6,0-2.8,1.3-2.8,2.8v21.5c0,1.6,1.3,2.8,2.8,2.8h118.8c1.6,0,2.8-1.3,2.8-2.8V72.9  C133.1,71.3,131.8,70.1,130.3,70.1z M13.2,76.6c0-1.6,1.3-2.8,2.8-2.8h23.9c1.6,0,2.8,1.3,2.8,2.8v2.8c0,1.6-1.3,2.8-2.8,2.8H16.1  c-1.6,0-2.8-1.3-2.8-2.8V76.6z M41.9,94.8H15.1c-0.8,0-1.4-0.6-1.4-1.4c0-0.8,0.6-1.4,1.4-1.4h26.7c0.8,0,1.4,0.6,1.4,1.4  C43.3,94.2,42.6,94.8,41.9,94.8z M41.9,89.7H15.1c-0.8,0-1.4-0.6-1.4-1.4c0-0.8,0.6-1.4,1.4-1.4h26.7c0.8,0,1.4,0.6,1.4,1.4  C43.3,89,42.6,89.7,41.9,89.7z" fill="currentColor"/>
<path class="st0 item-fill" d="M130.3,100H11.5c-1.6,0-2.8,1.3-2.8,2.8v21.5c0,1.6,1.3,2.8,2.8,2.8h118.8c1.6,0,2.8-1.3,2.8-2.8v-21.5  C133.1,101.3,131.8,100,130.3,100z M13.2,106.6c0-1.6,1.3-2.8,2.8-2.8h23.9c1.6,0,2.8,1.3,2.8,2.8v2.8c0,1.6-1.3,2.8-2.8,2.8H16.1  c-1.6,0-2.8-1.3-2.8-2.8V106.6z M41.9,124.7H15.1c-0.8,0-1.4-0.6-1.4-1.4c0-0.8,0.6-1.4,1.4-1.4h26.7c0.8,0,1.4,0.6,1.4,1.4  C43.3,124.1,42.6,124.7,41.9,124.7z M41.9,119.6H15.1c-0.8,0-1.4-0.6-1.4-1.4c0-0.8,0.6-1.4,1.4-1.4h26.7c0.8,0,1.4,0.6,1.4,1.4  C43.3,119,42.6,119.6,41.9,119.6z" fill="currentColor"/>
</svg>