<?xml version="1.0" encoding="UTF-8"?>
<svg id="Layer_1" data-name="Layer 1" xmlns="http://www.w3.org/2000/svg" width="5cm" height="5cm" viewBox="0 0 141.73 141.77">
  <g>
    <g>
      <rect x="8.5" y="8.5" width="64.54" height="9.34" rx="2.83" ry="2.83" style="fill: #e5e7eb;"/>
      <rect x="8.5" y="19.26" width="45.19" height="5.67" rx="2.83" ry="2.83" style="fill: #e5e7eb;"/>
      <rect x="8.5" y="26.35" width="36.49" height="5.67" rx="2.83" ry="2.83" style="fill: #e5e7eb;"/>
    </g>
    <circle cx="121.47" cy="20.26" r="11.76" style="fill: #e5e7eb;"/>
  </g>
  <g>
    <g>
      <rect x="8.4" y="42.24" width="64.54" height="9.34" rx="2.83" ry="2.83" style="fill: #e5e7eb;"/>
      <rect x="8.4" y="53" width="45.19" height="5.67" rx="2.83" ry="2.83" style="fill: #e5e7eb;"/>
      <rect x="8.4" y="60.09" width="36.49" height="5.67" rx="2.83" ry="2.83" style="fill: #e5e7eb;"/>
    </g>
    <circle cx="121.37" cy="54" r="11.76" style="fill: #e5e7eb;"/>
  </g>
  <g>
    <g>
      <rect x="8.5" y="75.98" width="64.54" height="9.34" rx="2.83" ry="2.83" style="fill: #e5e7eb;"/>
      <rect x="8.5" y="86.74" width="45.19" height="5.67" rx="2.83" ry="2.83" style="fill: #e5e7eb;"/>
      <rect x="8.5" y="93.82" width="36.49" height="5.67" rx="2.83" ry="2.83" style="fill: #e5e7eb;"/>
    </g>
    <circle cx="121.47" cy="87.73" r="11.76" style="fill: #e5e7eb;"/>
  </g>
  <g>
    <g>
      <rect x="8.5" y="109.71" width="64.54" height="9.34" rx="2.83" ry="2.83" style="fill: #e5e7eb;"/>
      <rect x="8.5" y="120.47" width="45.19" height="5.67" rx="2.83" ry="2.83" style="fill: #e5e7eb;"/>
      <rect x="8.5" y="127.56" width="36.49" height="5.67" rx="2.83" ry="2.83" style="fill: #e5e7eb;"/>
    </g>
    <circle cx="121.47" cy="121.47" r="11.76" style="fill: #e5e7eb;"/>
  </g>
</svg>