<svg xmlns="http://www.w3.org/2000/svg" xmlns:xlink="http://www.w3.org/1999/xlink" version="1.1" id="Layer_1" x="0px" y="0px" viewBox="0 0 141.7 141.7" xml:space="preserve" class="item-fill" fill="currentColor">
<g class="item-fill" fill="currentColor">
	<path class="st0 item-fill" d="M130.3,62.9H11.5c-1.6,0-3-1.3-3-3V28.2c0-1.6,1.3-3,3-3h118.8c1.6,0,3,1.3,3,3v31.8   C133.2,61.5,131.9,62.9,130.3,62.9z M11.5,25.5c-1.5,0-2.7,1.2-2.7,2.7v31.8c0,1.5,1.2,2.7,2.7,2.7h118.8c1.5,0,2.7-1.2,2.7-2.7   V28.2c0-1.5-1.2-2.7-2.7-2.7H11.5z" fill="currentColor"/>
</g>
<path class="st0 item-fill" d="M130.3,25.3H11.5c-1.6,0-2.8,1.3-2.8,2.8v10.5c0,1.6,1.3,2.8,2.8,2.8h118.8c1.6,0,2.8-1.3,2.8-2.8V28.2  C133.1,26.6,131.8,25.3,130.3,25.3z M110.2,34.7c0,1.6-1.3,2.8-2.8,2.8H16.1c-1.6,0-2.8-1.3-2.8-2.8v-2.8c0-1.6,1.3-2.8,2.8-2.8  h91.3c1.6,0,2.8,1.3,2.8,2.8V34.7z" fill="currentColor"/>
<g class="item-fill" fill="currentColor">
	<path class="st0 item-fill" d="M14.6,44.1h106.8c0.8,0,1.4,0.6,1.4,1.4v0c0,0.8-0.6,1.4-1.4,1.4H14.6c-0.8,0-1.4-0.6-1.4-1.4v0   C13.2,44.7,13.8,44.1,14.6,44.1z" fill="currentColor"/>
	<path class="st0 item-fill" d="M14.6,48.4h106.8c0.8,0,1.4,0.6,1.4,1.4v0c0,0.8-0.6,1.4-1.4,1.4H14.6c-0.8,0-1.4-0.6-1.4-1.4v0   C13.2,49,13.8,48.4,14.6,48.4z" fill="currentColor"/>
	<path class="st0 item-fill" d="M14.6,52.6h106.8c0.8,0,1.4,0.6,1.4,1.4v0c0,0.8-0.6,1.4-1.4,1.4H14.6c-0.8,0-1.4-0.6-1.4-1.4v0   C13.2,53.2,13.8,52.6,14.6,52.6z" fill="currentColor"/>
	<path class="st0 item-fill" d="M14.6,56.9h77.2c0.8,0,1.4,0.6,1.4,1.4v0c0,0.8-0.6,1.4-1.4,1.4H14.6c-0.8,0-1.4-0.6-1.4-1.4v0   C13.2,57.5,13.8,56.9,14.6,56.9z" fill="currentColor"/>
</g>
<path class="st0 item-fill" d="M130.3,64.2H11.5c-1.6,0-2.8,1.3-2.8,2.8v10.5c0,1.6,1.3,2.8,2.8,2.8h118.8c1.6,0,2.8-1.3,2.8-2.8V67  C133.1,65.4,131.8,64.2,130.3,64.2z M80.7,73.5c0,1.6-1.3,2.8-2.8,2.8H16.1c-1.6,0-2.8-1.3-2.8-2.8v-2.8c0-1.6,1.3-2.8,2.8-2.8h61.8  c1.6,0,2.8,1.3,2.8,2.8V73.5z" fill="currentColor"/>
<path class="st0 item-fill" d="M130.3,81.8H11.5c-1.6,0-2.8,1.3-2.8,2.8v10.5c0,1.6,1.3,2.8,2.8,2.8h118.8c1.6,0,2.8-1.3,2.8-2.8V84.6  C133.1,83,131.8,81.8,130.3,81.8z M122.9,91.1c0,1.6-1.3,2.8-2.8,2.8h-104c-1.6,0-2.8-1.3-2.8-2.8v-2.8c0-1.6,1.3-2.8,2.8-2.8h104  c1.6,0,2.8,1.3,2.8,2.8V91.1z" fill="currentColor"/>
<path class="st0 item-fill" d="M130.3,99.4H11.5c-1.6,0-2.8,1.3-2.8,2.8v10.5c0,1.6,1.3,2.8,2.8,2.8h118.8c1.6,0,2.8-1.3,2.8-2.8v-10.5  C133.1,100.7,131.8,99.4,130.3,99.4z M105.7,108.7c0,1.6-1.3,2.8-2.8,2.8H16.1c-1.6,0-2.8-1.3-2.8-2.8V106c0-1.6,1.3-2.8,2.8-2.8  h86.8c1.6,0,2.8,1.3,2.8,2.8V108.7z" fill="currentColor"/>
<path class="st0 item-fill" d="M130.3,117H11.5c-1.6,0-2.8,1.3-2.8,2.8v10.5c0,1.6,1.3,2.8,2.8,2.8h118.8c1.6,0,2.8-1.3,2.8-2.8v-10.5  C133.1,118.3,131.8,117,130.3,117z M93.2,126.3c0,1.6-1.3,2.8-2.8,2.8H16.1c-1.6,0-2.8-1.3-2.8-2.8v-2.8c0-1.6,1.3-2.8,2.8-2.8h74.3  c1.6,0,2.8,1.3,2.8,2.8V126.3z" fill="currentColor"/>
<path class="st0 item-fill" d="M11.5,9.6h91.3c1.6,0,2.8,1.3,2.8,2.8v2.8c0,1.6-1.3,2.8-2.8,2.8H11.5c-1.6,0-2.8-1.3-2.8-2.8v-2.8  C8.6,10.9,9.9,9.6,11.5,9.6z" fill="currentColor"/>
</svg>