<?xml version="1.0" encoding="utf-8"?>
<!-- Generator: Adobe Illustrator 27.0.0, SVG Export Plug-In . SVG Version: 6.00 Build 0)  -->
<svg version="1.1" id="Layer_1" xmlns="http://www.w3.org/2000/svg" xmlns:xlink="http://www.w3.org/1999/xlink" x="0px" y="0px"
	 viewBox="0 0 141.7 141.7" style="enable-background:new 0 0 141.7 141.7;" xml:space="preserve">
<style type="text/css">
	.st0{fill:#E5E7EB;}
	.st1{fill:none;}
</style>
<g>
	<path class="st0" d="M71.6,92.1c0.6-0.4,1-1,1-1.8c0-1.1-0.9-2.1-2.1-2.1c-0.7,0-1.4,0.4-1.8,1C69.9,89.9,70.9,90.9,71.6,92.1z"/>
	<path class="st0" d="M84.5,113.2c-0.7,0-1.4,0.4-1.8,1c1.2,0.7,2.2,1.7,2.9,2.9c0.6-0.4,1-1,1-1.8
		C86.6,114.1,85.7,113.2,84.5,113.2z"/>
	<path class="st0" d="M71.6,42.2c0.6-0.4,1-1,1-1.8c0-1.1-0.9-2.1-2.1-2.1c-0.7,0-1.4,0.4-1.8,1C69.9,40,70.9,41,71.6,42.2z"/>
	<path class="st0" d="M99.7,42.2c0.6-0.4,1-1,1-1.8c0-1.1-0.9-2.1-2.1-2.1c-0.7,0-1.4,0.4-1.8,1C98,40,99,41,99.7,42.2z"/>
	<path class="st0" d="M85.6,17.3c0.6-0.4,1-1,1-1.8c0-1.1-0.9-2.1-2.1-2.1c-0.7,0-1.4,0.4-1.8,1C84,15.1,85,16.1,85.6,17.3z"/>
	<path class="st0" d="M83.5,63c-0.7,0-1.4,0.4-1.8,1c1.2,0.7,2.2,1.7,2.9,2.9c0.6-0.4,1-1,1-1.8C85.6,63.9,84.7,63,83.5,63z"/>
	<path class="st0" d="M64.1,67.4c0.6-0.4,1-1,1-1.8c0-1.1-0.9-2.1-2.1-2.1c-0.7,0-1.4,0.4-1.8,1C62.4,65.2,63.4,66.2,64.1,67.4z"/>
	<path class="st0" d="M98.6,88.2c-0.7,0-1.4,0.4-1.8,1c1.2,0.7,2.2,1.7,2.9,2.9c0.6-0.4,1-1,1-1.8C100.6,89.2,99.7,88.2,98.6,88.2z"
		/>
	<path class="st0" d="M104.1,63.6c-0.7,0-1.4,0.4-1.8,1c1.2,0.7,2.2,1.7,2.9,2.9c0.6-0.4,1-1,1-1.8
		C106.1,64.5,105.2,63.6,104.1,63.6z"/>
</g>
<path class="st0" d="M70.5,42.7c-1.2,0-2.2-1-2.2-2.2s1-2.2,2.2-2.2s2.2,1,2.2,2.2S71.7,42.7,70.5,42.7z"/>
<ellipse class="st0" cx="98.6" cy="40.5" rx="2.2" ry="2.2"/>
<path class="st0" d="M70.5,92.5c-1.2,0-2.2-1-2.2-2.2c0-1.2,1-2.2,2.2-2.2s2.2,1,2.2,2.2S71.7,92.5,70.5,92.5z"/>
<path class="st0" d="M98.6,92.5c-1.2,0-2.2-1-2.2-2.2c0-1.2,1-2.2,2.2-2.2c1.2,0,2.2,1,2.2,2.2S99.8,92.5,98.6,92.5z"/>
<path class="st0" d="M84.5,17.7c-1.2,0-2.2-1-2.2-2.2s1-2.2,2.2-2.2c1.2,0,2.2,1,2.2,2.2S85.7,17.7,84.5,17.7z"/>
<path class="st0" d="M84.5,117.5c-1.2,0-2.2-1-2.2-2.2s1-2.2,2.2-2.2c1.2,0,2.2,1,2.2,2.2C86.7,116.5,85.7,117.5,84.5,117.5z"/>
<rect x="51" y="108.3" class="st1" width="56.1" height="24.9"/>
<path class="st0" d="M63,67.9c-1.2,0-2.2-1-2.2-2.2c0-1.2,1-2.2,2.2-2.2s2.2,1,2.2,2.2C65.2,66.9,64.2,67.9,63,67.9z"/>
<path class="st0" d="M104.1,67.9c-1.2,0-2.2-1-2.2-2.2c0-1.2,1-2.2,2.2-2.2c1.2,0,2.2,1,2.2,2.2C106.3,66.9,105.3,67.9,104.1,67.9z"
	/>
<path class="st0" d="M107.1,33.4V11.3c0-1.6-1.3-2.8-2.8-2.8H36.5h0c-1.6,0-2.8,1.3-2.8,2.8v22.1v24.9v24.9v24.9h0v22.1
	c0,1.6,1.3,2.8,2.8,2.8h67.8c1.6,0,2.8-1.3,2.8-2.8v-22.1h0V83.3V58.4L107.1,33.4L107.1,33.4z M93.1,38.4c1.3,0,2.4,0.3,3.5,0.9
	c0.4-0.7,1.1-1.1,2-1.1c1.3,0,2.3,1,2.3,2.3c0,0.8-0.4,1.6-1.1,2c0.5,1,0.9,2.2,0.9,3.5c0,4.2-3.4,7.5-7.6,7.5s-7.6-3.4-7.6-7.5
	S88.9,38.4,93.1,38.4z M85.6,70.6c0,4.2-3.4,7.5-7.6,7.5s-7.6-3.4-7.6-7.5c0-4.2,3.4-7.5,7.6-7.5c1.3,0,2.4,0.3,3.5,0.9
	c0.4-0.7,1.1-1.1,2-1.1c1.3,0,2.3,1,2.3,2.3c0,0.8-0.4,1.6-1.1,2C85.3,68.1,85.6,69.3,85.6,70.6z M79,13.4c1.3,0,2.4,0.3,3.5,0.9
	c0.4-0.7,1.1-1.1,2-1.1c1.3,0,2.3,1,2.3,2.3c0,0.8-0.4,1.6-1.1,2c0.5,1,0.9,2.2,0.9,3.5c0,4.2-3.4,7.5-7.6,7.5s-7.6-3.4-7.6-7.5
	S74.9,13.4,79,13.4z M65,38.4c1.3,0,2.4,0.3,3.5,0.9c0.4-0.7,1.1-1.1,2-1.1c1.3,0,2.3,1,2.3,2.3c0,0.8-0.4,1.6-1.1,2
	c0.5,1,0.9,2.2,0.9,3.5c0,4.2-3.4,7.5-7.6,7.5s-7.6-3.4-7.6-7.5S60.8,38.4,65,38.4z M36.2,13.8c0-1.6,1.3-2.8,2.8-2.8h3.7
	c1.6,0,2.8,1.3,2.8,2.8v3.7c0,1.6-1.3,2.8-2.8,2.8H39c-1.6,0-2.8-1.3-2.8-2.8V13.8z M36.2,29.9c0-0.4,0.4-0.8,0.8-0.8h8.6
	c0.4,0,0.8,0.4,0.8,0.8v0c0,0.4-0.4,0.8-0.8,0.8H37C36.5,30.8,36.2,30.4,36.2,29.9L36.2,29.9z M36.2,38.8c0-1.6,1.3-2.8,2.8-2.8h3.7
	c1.6,0,2.8,1.3,2.8,2.8v3.7c0,1.6-1.3,2.8-2.8,2.8H39c-1.6,0-2.8-1.3-2.8-2.8V38.8z M36.2,54.8c0-0.4,0.4-0.8,0.8-0.8h8.6
	c0.4,0,0.8,0.4,0.8,0.8v0c0,0.4-0.4,0.8-0.8,0.8H37C36.5,55.7,36.2,55.3,36.2,54.8L36.2,54.8z M36.2,63.7c0-1.6,1.3-2.8,2.8-2.8h3.7
	c1.6,0,2.8,1.3,2.8,2.8v3.7c0,1.6-1.3,2.8-2.8,2.8H39c-1.6,0-2.8-1.3-2.8-2.8V63.7z M36.2,79.7c0-0.4,0.4-0.8,0.8-0.8h8.6
	c0.4,0,0.8,0.4,0.8,0.8v0c0,0.4-0.4,0.8-0.8,0.8H37C36.5,80.6,36.2,80.2,36.2,79.7L36.2,79.7z M36.2,88.6c0-1.6,1.3-2.8,2.8-2.8h3.7
	c1.6,0,2.8,1.3,2.8,2.8v3.7c0,1.6-1.3,2.8-2.8,2.8H39c-1.6,0-2.8-1.3-2.8-2.8V88.6z M36.2,104.7c0-0.4,0.4-0.8,0.8-0.8h8.6
	c0.4,0,0.8,0.4,0.8,0.8v0c0,0.4-0.4,0.8-0.8,0.8H37C36.5,105.6,36.2,105.2,36.2,104.7L36.2,104.7z M36.2,113.6
	c0-1.6,1.3-2.8,2.8-2.8h3.7c1.6,0,2.8,1.3,2.8,2.8v3.7c0,1.6-1.3,2.8-2.8,2.8H39c-1.6,0-2.8-1.3-2.8-2.8V113.6z M46.3,129.7
	c0,0.4-0.4,0.8-0.8,0.8H37c-0.4,0-0.8-0.4-0.8-0.8v0c0-0.4,0.4-0.8,0.8-0.8h8.6C46,128.8,46.3,129.2,46.3,129.7L46.3,129.7z
	 M49,126.1c0,0.9-0.7,1.6-1.6,1.6h-9.6c-0.9,0-1.6-0.7-1.6-1.6V126c0-0.9,0.7-1.6,1.6-1.6h9.6c0.9,0,1.6,0.7,1.6,1.6V126.1z
	 M49,101.1c0,0.9-0.7,1.6-1.6,1.6h-9.6c-0.9,0-1.6-0.7-1.6-1.6V101c0-0.9,0.7-1.6,1.6-1.6h9.6c0.9,0,1.6,0.7,1.6,1.6V101.1z
	 M49,76.2c0,0.9-0.7,1.6-1.6,1.6h-9.6c-0.9,0-1.6-0.7-1.6-1.6v-0.1c0-0.9,0.7-1.6,1.6-1.6h9.6c0.9,0,1.6,0.7,1.6,1.6V76.2z M49,51.3
	c0,0.9-0.7,1.6-1.6,1.6h-9.6c-0.9,0-1.6-0.7-1.6-1.6v-0.1c0-0.9,0.7-1.6,1.6-1.6h9.6c0.9,0,1.6,0.7,1.6,1.6V51.3z M49,26.3
	c0,0.9-0.7,1.6-1.6,1.6h-9.6c-0.9,0-1.6-0.7-1.6-1.6v-0.1c0-0.9,0.7-1.6,1.6-1.6h9.6c0.9,0,1.6,0.7,1.6,1.6V26.3z M50,71.1
	c0-4.2,3.4-7.5,7.6-7.5c1.3,0,2.4,0.3,3.5,0.9c0.4-0.7,1.1-1.1,2-1.1c1.3,0,2.3,1,2.3,2.3c0,0.8-0.4,1.6-1.1,2
	c0.5,1,0.9,2.2,0.9,3.5c0,4.2-3.4,7.5-7.6,7.5S50,75.3,50,71.1z M65,103.3c-4.2,0-7.6-3.4-7.6-7.5s3.4-7.5,7.6-7.5
	c1.3,0,2.4,0.3,3.5,0.9c0.4-0.7,1.1-1.1,2-1.1c1.3,0,2.3,1,2.3,2.3c0,0.8-0.4,1.6-1.1,2c0.5,1,0.9,2.2,0.9,3.5
	C72.6,100,69.2,103.3,65,103.3z M86.6,120.7c0,4.2-3.4,7.5-7.6,7.5s-7.6-3.4-7.6-7.5s3.4-7.5,7.6-7.5c1.3,0,2.4,0.3,3.5,0.9
	c0.4-0.7,1.1-1.1,2-1.1c1.3,0,2.3,1,2.3,2.3c0,0.8-0.4,1.6-1.1,2C86.3,118.3,86.6,119.5,86.6,120.7z M100.6,95.8
	c0,4.2-3.4,7.5-7.6,7.5s-7.6-3.4-7.6-7.5s3.4-7.5,7.6-7.5c1.3,0,2.4,0.3,3.5,0.9c0.4-0.7,1.1-1.1,2-1.1c1.3,0,2.3,1,2.3,2.3
	c0,0.8-0.4,1.6-1.1,2C100.3,93.3,100.6,94.5,100.6,95.8z M105.3,67.7c0.5,1,0.9,2.2,0.9,3.5c0,4.2-3.4,7.5-7.6,7.5S91,75.3,91,71.1
	s3.4-7.5,7.6-7.5c1.3,0,2.4,0.3,3.5,0.9c0.4-0.7,1.1-1.1,2-1.1c1.3,0,2.3,1,2.3,2.3C106.4,66.5,105.9,67.2,105.3,67.7z"/>
<path class="st0" d="M83.5,67.3c-1.2,0-2.2-1-2.2-2.2c0-1.2,1-2.2,2.2-2.2c1.2,0,2.2,1,2.2,2.2C85.7,66.3,84.7,67.3,83.5,67.3z"/>
</svg>
