<?xml version="1.0" encoding="utf-8"?>
<!-- Generator: Adobe Illustrator 27.0.0, SVG Export Plug-In . SVG Version: 6.00 Build 0)  -->
<svg version="1.1" id="Layer_1" xmlns="http://www.w3.org/2000/svg" xmlns:xlink="http://www.w3.org/1999/xlink" x="0px" y="0px"
	 viewBox="0 0 141.7 141.7" style="enable-background:new 0 0 141.7 141.7;" xml:space="preserve">
<style type="text/css">
	.st0{fill:#E5E7EB;}
</style>
<path class="st0" d="M130.4,35.8h-119c-1.6,0-2.8,1.3-2.8,2.8v64.4c0,1.6,1.3,2.8,2.8,2.8h119c1.6,0,2.8-1.3,2.8-2.8V38.6
	C133.2,37.1,131.9,35.8,130.4,35.8z M63.9,102c0,1-0.8,1.8-1.8,1.8h-4.7c-1,0-1.8-0.8-1.8-1.8v0c0-1,0.8-1.8,1.8-1.8h4.7
	C63.1,100.3,63.9,101.1,63.9,102L63.9,102z M75,102c0,1-0.8,1.8-1.8,1.8h-4.7c-1,0-1.8-0.8-1.8-1.8v0c0-1,0.8-1.8,1.8-1.8h4.7
	C74.2,100.3,75,101.1,75,102L75,102z M86.1,102c0,1-0.8,1.8-1.8,1.8h-4.7c-1,0-1.8-0.8-1.8-1.8v0c0-1,0.8-1.8,1.8-1.8h4.7
	C85.3,100.3,86.1,101.1,86.1,102L86.1,102z"/>
</svg>
