<?xml version="1.0" encoding="UTF-8"?>
<svg id="Layer_1" xmlns="http://www.w3.org/2000/svg" version="1.1" viewBox="0 0 141.7 141.7">
  <g>
    <path fill="currentColor" d="M111.2,69.8c0,0-.2-.2-.3-.2s-.3,0-.4,0-.3,0-.4,0c-.1,0-.2.1-.3.2,0,0-.2.2-.2.3s0,.3,0,.4h2.1c0-.1,0-.3,0-.4s-.1-.2-.2-.3Z"/>
    <path fill="currentColor" d="M105.8,69.5c-.2,0-.4,0-.5.1s-.3.2-.3.3c0,.1-.2.3-.2.5s0,.3,0,.5,0,.3,0,.5c0,.2.1.3.2.4,0,.1.2.2.3.3s.3.1.5.1.4,0,.5-.1.3-.2.3-.3c0-.1.2-.3.2-.5,0-.2,0-.3,0-.5,0-.4,0-.8-.3-1s-.5-.4-.8-.4Z"/>
    <path fill="currentColor" d="M93.4,69.9c0-.1-.2-.2-.3-.3s-.3-.1-.5-.1c-.4,0-.7.1-.8.4-.2.3-.3.6-.3,1s0,.4,0,.6.1.3.2.4c0,.1.2.2.4.3.1,0,.3.1.5.1s.4,0,.5-.1c.1,0,.3-.2.3-.3s.2-.3.2-.4c0-.2,0-.3,0-.5s0-.4,0-.5c0-.2-.1-.3-.2-.5Z"/>
    <path fill="currentColor" d="M97.8,69.8c0,0-.2-.2-.3-.2s-.3,0-.4,0-.3,0-.4,0c-.1,0-.2.1-.3.2,0,0-.2.2-.2.3s0,.3,0,.4h2.1c0-.1,0-.3,0-.4s-.1-.2-.2-.3Z"/>
  </g>
  <path fill="currentColor" d="M129.5,57.9H12.2c-2,0-3.6,1.6-3.6,3.6v18.7c0,2,1.6,3.6,3.6,3.6h117.3c2,0,3.6-1.6,3.6-3.6v-18.7c0-2-1.6-3.6-3.6-3.6ZM39,75.1c0,.2-.2.5-.4.6l-7.3,4.2c-.2.1-.5.1-.8,0l-7.3-4.2c-.2-.1-.4-.4-.4-.6v-8.4c0-.2.2-.5.4-.6l7.3-4.2c.2-.1.5-.1.8,0l7.3,4.2c.2.1.4.4.4.6v8.4ZM52.6,72.9h-.9v-4.3h0l-1.5,4.3h-.8l-1.5-4.3h0v4.3h-.9v-5.5h1.4l1.5,4.3h0l1.5-4.3h1.3v5.5ZM54.6,72.9h-.9v-4h.9v4ZM54.6,68.2h-.9v-.8h.9v.8ZM57.5,69.5h-.8v2.1c0,0,0,.2,0,.2,0,0,0,.1,0,.2,0,0,0,0,.1.1,0,0,.1,0,.2,0s.1,0,.2,0c0,0,.1,0,.2,0v.7c0,0-.2,0-.3,0,0,0-.2,0-.3,0-.2,0-.4,0-.6,0s-.3-.1-.3-.2-.1-.2-.2-.3c0-.1,0-.3,0-.4v-2.4h-.7v-.7h.7v-1.2h.9v1.2h.8v.7ZM64.3,68.2h-1.8v4.7h-1v-4.7h-1.7v-.8h4.5v.8ZM70.1,72.9h-1l-1.1-4.2h0l-1.1,4.2h-1l-1.5-5.5h1l1,4.2h0l1.1-4.2h1l1.1,4.2h0l1-4.2h1l-1.5,5.5ZM73.2,72.9h-1v-5.5h1v5.5ZM78.8,72.9h-1l-2.5-4.1h0v4.1h-.9v-5.5h1l2.5,4.1h0v-4.1h.9v5.5ZM83.9,68.2h-1.8v4.7h-1v-4.7h-1.7v-.8h4.5v.8ZM89.7,72.3c-.1.2-.2.3-.4.4-.2.1-.4.2-.6.2-.2,0-.4,0-.6,0s-.5,0-.7,0c-.2,0-.4-.1-.6-.3s-.3-.3-.4-.4c0-.2-.1-.4-.1-.6h.9c0,.3.1.4.3.5s.4.2.6.2.2,0,.3,0c.1,0,.2,0,.3,0,0,0,.2,0,.2-.2,0,0,0-.2,0-.3,0-.1,0-.2-.1-.3s-.2-.1-.3-.2c-.1,0-.3,0-.4-.1s-.3,0-.5-.1c-.2,0-.3,0-.5-.1-.2,0-.3-.1-.4-.2-.1,0-.2-.2-.3-.3,0-.1-.1-.3-.1-.5s0-.4.2-.5c.1-.1.2-.3.4-.4.2,0,.3-.2.5-.2.2,0,.4,0,.6,0s.4,0,.6,0c.2,0,.4.1.5.2s.3.2.4.4c.1.2.2.3.2.6h-.9c0-.2-.1-.4-.3-.4-.2,0-.3-.1-.5-.1s-.1,0-.2,0c0,0-.2,0-.2,0,0,0-.1,0-.2.1s0,.1,0,.2,0,.2.1.3c0,0,.2.1.3.2s.3,0,.4.1c.2,0,.3,0,.5.1.2,0,.3,0,.5.1.2,0,.3.1.4.2.1,0,.2.2.3.3,0,.1.1.3.1.5s0,.4-.2.6ZM94.5,71.7c0,.3-.2.5-.3.7-.1.2-.3.3-.5.5s-.5.2-.8.2-.3,0-.4,0c-.1,0-.3,0-.4-.1-.1,0-.2-.1-.3-.2-.1,0-.2-.2-.3-.3h0v2h-.9v-5.5h.8v.5h0c.1-.2.3-.4.5-.5.2-.1.5-.2.7-.2s.6,0,.8.2c.2.1.4.3.6.5.2.2.3.4.3.7,0,.3.1.5.1.8s0,.5-.1.8ZM98.9,71.1h-2.9c0,.2,0,.3,0,.4,0,.1.1.3.2.4,0,.1.2.2.3.3s.3,0,.5,0,.5,0,.6-.2c.2-.1.3-.3.4-.5h.8c0,.2-.1.4-.2.6s-.2.3-.4.4c-.2.1-.3.2-.5.3-.2,0-.4,0-.6,0-.3,0-.6,0-.8-.2-.2-.1-.4-.2-.6-.4-.2-.2-.3-.4-.4-.7,0-.3-.1-.5-.1-.8s0-.6.1-.8.2-.5.4-.7c.2-.2.4-.3.6-.5.2-.1.5-.2.8-.2s.6,0,.8.2c.2.1.5.3.6.5.2.2.3.5.4.7,0,.3,0,.6,0,.9ZM103.1,72.9h-.9v-2.5c0-.3,0-.5-.2-.7-.1-.1-.3-.2-.6-.2s-.3,0-.4,0c-.1,0-.2.1-.3.2,0,0-.1.2-.2.3,0,.1,0,.3,0,.4v2.4h-.9v-4h.8v.6h0c.1-.2.3-.4.5-.5.2-.1.5-.2.7-.2.4,0,.8.1,1,.3.3.2.4.6.4,1v2.7ZM107.8,72.9h-.8v-.5h0c-.1.2-.3.4-.5.5-.2.1-.5.2-.7.2s-.6,0-.8-.2-.4-.3-.6-.5c-.2-.2-.3-.4-.3-.7s-.1-.5-.1-.8,0-.7.1-.9c0-.3.2-.5.4-.6.2-.2.3-.3.6-.4.2,0,.4-.1.6-.1s.2,0,.4,0c.1,0,.3,0,.4.1s.2.1.3.2.2.2.3.3h0v-2h.9v5.5ZM112.4,71.1h-2.9c0,.2,0,.3,0,.4,0,.1.1.3.2.4,0,.1.2.2.3.3s.3,0,.5,0,.5,0,.6-.2c.2-.1.3-.3.4-.5h.8c0,.2-.1.4-.2.6s-.2.3-.4.4c-.2.1-.3.2-.5.3-.2,0-.4,0-.6,0-.3,0-.6,0-.8-.2-.2-.1-.4-.2-.6-.4-.2-.2-.3-.4-.4-.7,0-.3-.1-.5-.1-.8s0-.6.1-.8.2-.5.4-.7c.2-.2.4-.3.6-.5.2-.1.5-.2.8-.2s.6,0,.8.2c.2.1.5.3.6.5.2.2.3.5.4.7,0,.3,0,.6,0,.9ZM116.5,72.9h-.9v-2.5c0-.3,0-.5-.2-.7-.1-.1-.3-.2-.6-.2s-.3,0-.4,0c-.1,0-.2.1-.3.2,0,0-.1.2-.2.3,0,.1,0,.3,0,.4v2.4h-.9v-4h.8v.6h0c.1-.2.3-.4.5-.5.2-.1.5-.2.7-.2.4,0,.8.1,1,.3.3.2.4.6.4,1v2.7Z"/>
  <path fill="currentColor" id="path1481" d="M34.3,70.7l-1.9,2.7-1-1.4,1.1-1.6c.2-.3.7-1.1.1-2.2-.4-.9-1.3-1.3-2.1-1.3s-1.7.4-2.1,1.3c-.5,1,0,1.9.1,2.1,0,0,.6.9,1.1,1.6l.8,1.2,1.3,1.9s.2.3.6.3.5-.3.6-.3l3-4.2h-1.7ZM30.6,70.8s-.5-.7-.8-1.2c-.3-.5,0-1.4.8-1.4s1.2.8.8,1.4c-.3.5-.8,1.2-.8,1.2Z"/>
  <path fill="currentColor" id="path1483" d="M28.8,73.3l-1.9-2.5s-.5-.7-.8-1.2c-.3-.5,0-1.4.8-1.4s.2,0,.3,0l.7-1.2c-.3-.1-.6-.2-.9-.2-.8,0-1.7.4-2.1,1.3-.5,1,0,1.9.1,2.1l3.2,4.7s.2.3.6.3.5-.3.6-.3l1-1.4-.8-1.2-.7,1Z"/>
</svg>