<svg xmlns="http://www.w3.org/2000/svg" id="Layer_1" data-name="Layer 1" width="5cm" height="5cm" viewBox="0 0 141.73 141.77" class="item-fill" fill="currentColor">
  <rect x="8.73" y="59.39" width="64.04" height="7.29" rx="2.83" ry="2.83" class="item-fill" fill="currentColor"/>
  <path d="M130.39,70.33H11.21c-1.57,0-2.83,1.27-2.83,2.83v6.34c0,1.57,1.27,2.83,2.83,2.83h119.18c1.57,0,2.83-1.27,2.83-2.83v-6.34c0-1.57-1.27-2.83-2.83-2.83Zm-113.55,6.82c0,1.57-1.27,2.83-2.83,2.83h0c-1.57,0-2.83-1.27-2.83-2.83v-1.62c0-1.57,1.27-2.83,2.83-2.83s2.83,1.27,2.83,2.83v1.62Zm7.09,0c0,1.57-1.27,2.83-2.83,2.83h0c-1.57,0-2.83-1.27-2.83-2.83v-1.62c0-1.57,1.27-2.83,2.83-2.83s2.83,1.27,2.83,2.83v1.62Zm2.61,2.83c-.66,0-1.19-.53-1.19-1.19s.53-1.19,1.19-1.19,1.19,.53,1.19,1.19-.53,1.19-1.19,1.19Zm8.28-2.83c0,1.57-1.27,2.83-2.83,2.83s-2.83-1.27-2.83-2.83v-1.62c0-1.57,1.27-2.83,2.83-2.83s2.83,1.27,2.83,2.83v1.62Zm7.09,0c0,1.57-1.27,2.83-2.83,2.83s-2.83-1.27-2.83-2.83v-1.62c0-1.57,1.27-2.83,2.83-2.83s2.83,1.27,2.83,2.83v1.62Zm2.61,2.83c-.66,0-1.19-.53-1.19-1.19s.53-1.19,1.19-1.19,1.19,.53,1.19,1.19-.53,1.19-1.19,1.19Zm8.28-2.83c0,1.57-1.27,2.83-2.83,2.83h0c-1.57,0-2.83-1.27-2.83-2.83v-1.62c0-1.57,1.27-2.83,2.83-2.83s2.83,1.27,2.83,2.83v1.62Zm7.09,0c0,1.57-1.27,2.83-2.83,2.83h0c-1.57,0-2.83-1.27-2.83-2.83v-1.62c0-1.57,1.27-2.83,2.83-2.83h0c1.57,0,2.83,1.27,2.83,2.83v1.62Zm7.09,0c0,1.57-1.27,2.83-2.83,2.83h0c-1.57,0-2.83-1.27-2.83-2.83v-1.62c0-1.57,1.27-2.83,2.83-2.83h0c1.57,0,2.83,1.27,2.83,2.83v1.62Zm7.09,0c0,1.57-1.27,2.83-2.83,2.83h0c-1.57,0-2.83-1.27-2.83-2.83v-1.62c0-1.57,1.27-2.83,2.83-2.83h0c1.57,0,2.83,1.27,2.83,2.83v1.62Zm14.17-.27c0,1.57-1.27,2.83-2.83,2.83h0c-1.57,0-2.83-1.27-2.83-2.83v-1.62c0-1.57,1.27-2.83,2.83-2.83s2.83,1.27,2.83,2.83v1.62Zm7.09,0c0,1.57-1.27,2.83-2.83,2.83h0c-1.57,0-2.83-1.27-2.83-2.83v-1.62c0-1.57,1.27-2.83,2.83-2.83s2.83,1.27,2.83,2.83v1.62Zm2.61,1.83c-.66,0-1.19-.53-1.19-1.19s.53-1.19,1.19-1.19,1.19,.53,1.19,1.19-.53,1.19-1.19,1.19Zm0-2.9c-.66,0-1.19-.53-1.19-1.19s.53-1.19,1.19-1.19,1.19,.53,1.19,1.19-.53,1.19-1.19,1.19Zm8.28,1.07c0,1.57-1.27,2.83-2.83,2.83s-2.83-1.27-2.83-2.83v-1.62c0-1.57,1.27-2.83,2.83-2.83s2.83,1.27,2.83,2.83v1.62Zm7.09,0c0,1.57-1.27,2.83-2.83,2.83s-2.83-1.27-2.83-2.83v-1.62c0-1.57,1.27-2.83,2.83-2.83s2.83,1.27,2.83,2.83v1.62Zm15.67,2.15c0,.38-.33,.68-.75,.68h-5.48c-.41,0-.75-.31-.75-.68v-3.87h6.98v3.87Zm0-4.33h-6.98v-.68c0-.38,.33-.68,.75-.68h.75v-.46c0-.25,.22-.46,.5-.46s.5,.2,.5,.46v.46h1.99v-.46c0-.25,.22-.46,.5-.46s.5,.2,.5,.46v.46h.75c.41,0,.75,.31,.75,.68v.68Z" class="item-fill" fill="currentColor"/>
</svg>