<?xml version="1.0" encoding="UTF-8"?>
<svg id="Layer_1" data-name="Layer 1" xmlns="http://www.w3.org/2000/svg" width="5cm" height="5cm" viewBox="0 0 141.73 141.77">
  <rect x="8.38" y="70.33" width="124.85" height="12.01" rx="2.83" ry="2.83" style="fill: #e5e7eb;"/>
  <rect x="8.73" y="59.39" width="64.04" height="7.29" rx="2.83" ry="2.83" style="fill: #e5e7eb;"/>
  <rect x="11.17" y="72.69" width="5.67" height="7.29" rx="2.83" ry="2.83" style="fill: #fff;"/>
  <rect x="18.26" y="72.69" width="5.67" height="7.29" rx="2.83" ry="2.83" style="fill: #fff;"/>
  <circle cx="26.53" cy="78.79" r="1.19" style="fill: #fff;"/>
  <rect x="29.14" y="72.69" width="5.67" height="7.29" rx="2.83" ry="2.83" style="fill: #fff;"/>
  <rect x="36.23" y="72.69" width="5.67" height="7.29" rx="2.83" ry="2.83" style="fill: #fff;"/>
  <circle cx="44.51" cy="78.79" r="1.19" style="fill: #fff;"/>
  <rect x="47.11" y="72.69" width="5.67" height="7.29" rx="2.83" ry="2.83" style="fill: #fff;"/>
  <rect x="54.2" y="72.69" width="5.67" height="7.29" rx="2.83" ry="2.83" style="fill: #fff;"/>
  <rect x="61.29" y="72.69" width="5.67" height="7.29" rx="2.83" ry="2.83" style="fill: #fff;"/>
  <rect x="68.37" y="72.69" width="5.67" height="7.29" rx="2.83" ry="2.83" style="fill: #fff;"/>
  <g>
    <rect x="82.55" y="72.42" width="5.67" height="7.29" rx="2.83" ry="2.83" style="fill: #fff;"/>
    <rect x="89.63" y="72.42" width="5.67" height="7.29" rx="2.83" ry="2.83" style="fill: #fff;"/>
    <rect x="100.52" y="72.42" width="5.67" height="7.29" rx="2.83" ry="2.83" style="fill: #fff;"/>
    <rect x="107.61" y="72.42" width="5.67" height="7.29" rx="2.83" ry="2.83" style="fill: #fff;"/>
    <g>
      <circle cx="97.91" cy="77.52" r="1.19" style="fill: #fff;"/>
      <circle cx="97.91" cy="74.61" r="1.19" style="fill: #fff;"/>
    </g>
  </g>
  <path d="M123.46,72.88v.46h-.75c-.41,0-.75,.31-.75,.68v.68h6.98v-.68c0-.38-.33-.68-.75-.68h-.75v-.46c0-.25-.22-.46-.5-.46s-.5,.2-.5,.46v.46h-1.99v-.46c0-.25-.22-.46-.5-.46s-.5,.2-.5,.46Zm5.48,2.28h-6.98v3.87c0,.38,.33,.68,.75,.68h5.48c.41,0,.75-.31,.75-.68v-3.87Z" style="fill: #fff;"/>
</svg>