<svg xmlns="http://www.w3.org/2000/svg" id="Layer_1" data-name="Layer 1" width="5cm" height="5cm" viewBox="0 0 141.73 141.77" class="item-fill" fill="currentColor">
  <rect x="8.73" y="59.39" width="64.04" height="7.29" rx="2.83" ry="2.83" class="item-fill" fill="currentColor"/>
  <g class="item-fill" fill="currentColor">
    <path d="M130.39,70.33H11.21c-1.57,0-2.83,1.27-2.83,2.83v6.34c0,1.57,1.27,2.83,2.83,2.83h119.18c1.57,0,2.83-1.27,2.83-2.83v-6.34c0-1.57-1.27-2.83-2.83-2.83Zm-85.14,6.82c0,1.57-1.27,2.83-2.83,2.83H14c-1.57,0-2.83-1.27-2.83-2.83h0v-1.62h0c0-1.57,1.27-2.84,2.83-2.84h28.41c1.57,0,2.83,1.27,2.83,2.83v1.62Zm8.71-.36c0,.75-.61,1.37-1.37,1.37-.42,0-.79-.19-1.04-.48-.32,.3-.76,.48-1.24,.48-1.01,0-1.82-.82-1.82-1.82s.82-1.82,1.82-1.82c.4,0,.76,.13,1.06,.34,.08-.07,.19-.12,.3-.12,.25,0,.46,.2,.46,.46v1.59c0,.25,.2,.46,.46,.46s.46-.2,.46-.46v-.46c0-1.51-1.22-2.73-2.73-2.73s-2.73,1.22-2.73,2.73,1.22,2.73,2.73,2.73c.25,0,.46,.2,.46,.46s-.2,.46-.46,.46c-2.01,0-3.65-1.63-3.65-3.65s1.63-3.65,3.65-3.65,3.65,1.63,3.65,3.65v.46Zm26.68,.36c0,1.57-1.27,2.83-2.83,2.83h-19.6c-1.57,0-2.83-1.27-2.83-2.83v-1.62c0-1.57,1.27-2.83,2.83-2.83h19.6c1.57,0,2.83,1.27,2.83,2.83v1.62Zm12.6,0c0,1.57-1.27,2.83-2.83,2.83h-5.51c-1.57,0-2.83-1.27-2.83-2.83v-1.62c0-1.57,1.27-2.83,2.83-2.83h5.51c1.57,0,2.83,1.27,2.83,2.83v1.62Z" class="item-fill" fill="currentColor"/>
    <path d="M50.31,75.42c-.5,0-.91,.41-.91,.91s.41,.91,.91,.91,.91-.41,.91-.91-.41-.91-.91-.91Z" class="item-fill" fill="currentColor"/>
  </g>
</svg>