<?xml version="1.0" encoding="UTF-8"?>
<svg id="Layer_1" data-name="Layer 1" xmlns="http://www.w3.org/2000/svg" width="5cm" height="5cm" viewBox="0 0 141.73 141.77">
  <rect x="8.38" y="70.33" width="124.85" height="12.01" rx="2.83" ry="2.83" style="fill: #e5e7eb;"/>
  <rect x="8.73" y="59.39" width="64.04" height="7.29" rx="2.83" ry="2.83" style="fill: #e5e7eb;"/>
  <rect x="11.17" y="72.69" width="5.67" height="7.29" rx="2.83" ry="2.83" style="fill: #fff;"/>
  <rect x="11.17" y="72.69" width="34.08" height="7.29" rx="2.83" ry="2.83" style="fill: #fff;"/>
  <path d="M50.31,73.6c-1.51,0-2.73,1.22-2.73,2.73s1.22,2.73,2.73,2.73c.25,0,.46,.2,.46,.46s-.2,.46-.46,.46c-2.01,0-3.65-1.63-3.65-3.65s1.63-3.65,3.65-3.65,3.65,1.63,3.65,3.65v.46c0,.75-.61,1.37-1.37,1.37-.42,0-.79-.19-1.04-.48-.32,.3-.76,.48-1.24,.48-1.01,0-1.82-.82-1.82-1.82s.82-1.82,1.82-1.82c.4,0,.76,.13,1.06,.34,.08-.07,.19-.12,.3-.12,.25,0,.46,.2,.46,.46v1.59c0,.25,.2,.46,.46,.46s.46-.2,.46-.46v-.46c0-1.51-1.22-2.73-2.73-2.73Zm.91,2.73c0-.5-.41-.91-.91-.91s-.91,.41-.91,.91,.41,.91,.91,.91,.91-.41,.91-.91Z" style="fill: #fff;"/>
  <rect x="55.38" y="72.69" width="25.27" height="7.29" rx="2.83" ry="2.83" style="fill: #fff;"/>
  <rect x="82.06" y="72.69" width="11.18" height="7.29" rx="2.83" ry="2.83" style="fill: #fff;"/>
</svg>