<?xml version="1.0" encoding="UTF-8"?>
<svg id="Layer_1" data-name="Layer 1" xmlns="http://www.w3.org/2000/svg" width="5cm" height="5cm" viewBox="0 0 141.73 141.77">
  <rect x="8.38" y="70.33" width="124.85" height="12.01" rx="2.83" ry="2.83" style="fill: #e5e7eb;"/>
  <rect x="8.73" y="59.39" width="64.04" height="7.29" rx="2.83" ry="2.83" style="fill: #e5e7eb;"/>
  <rect x="11.17" y="72.69" width="5.67" height="7.29" rx="2.83" ry="2.83" style="fill: #fff;"/>
  <g>
    <g>
      <path d="M124.58,71.81h5.19c1.17,0,2.13,.95,2.13,2.13v2.13h-9.44v-2.13c0-1.17,.95-2.13,2.13-2.13Z" style="fill: #fff;"/>
      <path d="M126.88,72.36c.17-.17,.44-.17,.6,0l2.56,2.56c.17,.17,.17,.44,0,.6s-.44,.17-.6,0l-2.26-2.26-2.26,2.26c-.17,.17-.44,.17-.6,0s-.17-.44,0-.6l2.56-2.56h0Z" style="fill: #e5e7eb;"/>
    </g>
    <g>
      <path d="M122.45,76.6h9.44v2.13c0,1.17-.95,2.13-2.13,2.13h-5.19c-1.17,0-2.13-.95-2.13-2.13v-2.13h0Z" style="fill: #fff;"/>
      <path d="M126.88,80.31c.17,.17,.44,.17,.6,0l2.56-2.56c.17-.17,.17-.44,0-.6s-.44-.17-.6,0l-2.26,2.26-2.26-2.26c-.17-.17-.44-.17-.6,0s-.17,.44,0,.6l2.56,2.56h0Z" style="fill: #e5e7eb;"/>
    </g>
  </g>
  <rect x="18.26" y="72.69" width="5.67" height="7.29" rx="2.83" ry="2.83" style="fill: #fff;"/>
  <rect x="25.34" y="72.69" width="5.67" height="7.29" rx="2.83" ry="2.83" style="fill: #fff;"/>
</svg>