<svg xmlns="http://www.w3.org/2000/svg" id="Layer_1" data-name="Layer 1" width="5cm" height="5cm" viewBox="0 0 141.73 141.77" class="item-fill" fill="currentColor">
  <rect x="8.73" y="59.39" width="64.04" height="7.29" rx="2.83" ry="2.83" class="item-fill" fill="currentColor"/>
  <g class="item-fill" fill="currentColor">
    <path d="M127.48,72.36c-.17-.17-.44-.17-.6,0h0s-2.56,2.56-2.56,2.56c-.17,.17-.17,.44,0,.6s.44,.17,.6,0l2.26-2.26,2.26,2.26c.17,.17,.44,.17,.6,0s.17-.44,0-.6l-2.56-2.56Z" class="item-fill" fill="currentColor"/>
    <path d="M126.87,80.31h0c.17,.17,.44,.17,.6,0l2.56-2.56c.17-.17,.17-.44,0-.6s-.44-.17-.6,0l-2.26,2.26-2.26-2.26c-.17-.17-.44-.17-.6,0-.17,.17-.17,.44,0,.6l2.56,2.56Z" class="item-fill" fill="currentColor"/>
    <path d="M130.39,70.33H11.21c-1.57,0-2.83,1.27-2.83,2.83v6.34c0,1.57,1.27,2.83,2.83,2.83h119.18c1.57,0,2.83-1.27,2.83-2.83v-6.34c0-1.57-1.27-2.83-2.83-2.83Zm-113.55,6.82c0,1.57-1.27,2.83-2.83,2.83h0c-1.57,0-2.83-1.27-2.83-2.83v-1.62c0-1.57,1.27-2.83,2.83-2.83s2.83,1.27,2.83,2.83v1.62Zm7.09,0c0,1.57-1.27,2.83-2.83,2.83h0c-1.57,0-2.83-1.27-2.83-2.83v-1.62c0-1.57,1.27-2.83,2.83-2.83s2.83,1.27,2.83,2.83v1.62Zm7.09,0c0,1.57-1.27,2.83-2.83,2.83h0c-1.57,0-2.83-1.27-2.83-2.83v-1.62c0-1.57,1.27-2.83,2.83-2.83s2.83,1.27,2.83,2.83v1.62Zm100.89,1.58c0,1.17-.95,2.13-2.13,2.13h-5.19c-1.17,0-2.13-.95-2.13-2.13v-2.13h9.44v2.13Zm0-2.66h-9.44v-2.13c0-1.17,.95-2.13,2.13-2.13h5.19c1.17,0,2.13,.95,2.13,2.13v2.13Z" class="item-fill" fill="currentColor"/>
  </g>
</svg>