<svg xmlns="http://www.w3.org/2000/svg" id="Layer_1" data-name="Layer 1" width="5cm" height="5cm" viewBox="0 0 141.73 141.77" class="item-fill" fill="currentColor">
  <rect x="8.73" y="59.39" width="64.04" height="7.29" rx="2.83" ry="2.83" class="item-fill" fill="currentColor"/>
  <path d="M130.39,70.33H11.21c-1.57,0-2.83,1.27-2.83,2.83v6.34c0,1.57,1.27,2.83,2.83,2.83h119.18c1.57,0,2.83-1.27,2.83-2.83v-6.34c0-1.57-1.27-2.83-2.83-2.83Zm-39.14,6.82c0,1.57-1.27,2.83-2.83,2.83H14c-1.57,0-2.83-1.27-2.83-2.83v-1.62c0-1.57,1.27-2.83,2.83-2.83H88.42c1.57,0,2.83,1.27,2.83,2.83v1.62Z" class="item-fill" fill="currentColor"/>
</svg>