<svg xmlns="http://www.w3.org/2000/svg" id="Layer_1" data-name="Layer 1" width="5cm" height="5cm" viewBox="0 0 141.73 141.77" class="item-fill" fill="currentColor">
  <rect x="8.73" y="59.39" width="64.04" height="7.29" rx="2.83" ry="2.83" class="item-fill" fill="currentColor"/>
  <rect x="11.17" y="72.69" width="5.67" height="7.29" rx="2.83" ry="2.83" class="item-fill" fill="currentColor"/>
  <g class="item-fill" fill="currentColor">
    <path d="M125.46,73.1c-1.64,0-2.96,1.33-2.96,2.96s1.33,2.96,2.96,2.96,2.96-1.33,2.96-2.96-1.33-2.96-2.96-2.96Zm1.65,4.06c-.11,.16-.32,.2-.47,.1l-1.37-.91c-.1-.06-.15-.17-.15-.28v-1.94c0-.19,.15-.34,.34-.34s.34,.15,.34,.34v1.75l1.21,.81c.16,.11,.2,.32,.1,.47Z" class="item-fill" fill="currentColor"/>
    <path d="M130.39,70.33H11.21c-1.57,0-2.83,1.27-2.83,2.83v6.34c0,1.57,1.27,2.83,2.83,2.83h119.18c1.57,0,2.83-1.27,2.83-2.83v-6.34c0-1.57-1.27-2.83-2.83-2.83Zm-113.55,6.82c0,1.57-1.27,2.83-2.83,2.83h0c-1.57,0-2.83-1.27-2.83-2.83v-1.62c0-1.57,1.27-2.83,2.83-2.83s2.83,1.27,2.83,2.83v1.62Zm7.09,0c0,1.57-1.27,2.83-2.83,2.83h0c-1.57,0-2.83-1.27-2.83-2.83v-1.62c0-1.57,1.27-2.83,2.83-2.83s2.83,1.27,2.83,2.83v1.62Zm2.61,1.83c-.66,0-1.19-.53-1.19-1.19s.53-1.19,1.19-1.19,1.19,.53,1.19,1.19-.53,1.19-1.19,1.19Zm0-2.9c-.66,0-1.19-.53-1.19-1.19s.53-1.19,1.19-1.19,1.19,.53,1.19,1.19-.53,1.19-1.19,1.19Zm8.28,1.07c0,1.57-1.27,2.83-2.83,2.83s-2.83-1.27-2.83-2.83v-1.62c0-1.57,1.27-2.83,2.83-2.83s2.83,1.27,2.83,2.83v1.62Zm7.09,0c0,1.57-1.27,2.83-2.83,2.83s-2.83-1.27-2.83-2.83v-1.62c0-1.57,1.27-2.83,2.83-2.83s2.83,1.27,2.83,2.83v1.62Zm83.56,2.57c-2.01,0-3.65-1.63-3.65-3.65s1.63-3.65,3.65-3.65,3.65,1.63,3.65,3.65-1.63,3.65-3.65,3.65Z" class="item-fill" fill="currentColor"/>
  </g>
</svg>