<?xml version="1.0" encoding="UTF-8"?>
<svg id="Layer_1" data-name="Layer 1" xmlns="http://www.w3.org/2000/svg" width="5cm" height="5cm" viewBox="0 0 141.73 141.77">
  <rect x="8.38" y="70.33" width="124.85" height="12.01" rx="2.83" ry="2.83" style="fill: #e5e7eb;"/>
  <rect x="8.73" y="59.39" width="64.04" height="7.29" rx="2.83" ry="2.83" style="fill: #e5e7eb;"/>
  <rect x="11.17" y="72.69" width="5.67" height="7.29" rx="2.83" ry="2.83" style="fill: #fff;"/>
  <g>
    <rect x="11.17" y="72.69" width="5.67" height="7.29" rx="2.83" ry="2.83" style="fill: #fff;"/>
    <rect x="18.26" y="72.69" width="5.67" height="7.29" rx="2.83" ry="2.83" style="fill: #fff;"/>
    <rect x="29.14" y="72.69" width="5.67" height="7.29" rx="2.83" ry="2.83" style="fill: #fff;"/>
    <rect x="36.23" y="72.69" width="5.67" height="7.29" rx="2.83" ry="2.83" style="fill: #fff;"/>
    <g>
      <circle cx="26.53" cy="77.79" r="1.19" style="fill: #fff;"/>
      <circle cx="26.53" cy="74.88" r="1.19" style="fill: #fff;"/>
    </g>
  </g>
  <path d="M128.42,76.07c0,1.64-1.33,2.96-2.96,2.96s-2.96-1.33-2.96-2.96,1.33-2.96,2.96-2.96,2.96,1.33,2.96,2.96Zm-6.61,0c0,2.01,1.63,3.65,3.65,3.65s3.65-1.63,3.65-3.65-1.63-3.65-3.65-3.65-3.65,1.63-3.65,3.65Zm3.3-1.94v1.94c0,.11,.06,.22,.15,.28l1.37,.91c.16,.11,.37,.06,.47-.1s.06-.37-.1-.47l-1.21-.81v-1.75c0-.19-.15-.34-.34-.34s-.34,.15-.34,.34Z" style="fill: #fff;"/>
</svg>