<?xml version="1.0" encoding="utf-8"?>
<!-- Generator: Adobe Illustrator 23.0.1, SVG Export Plug-In . SVG Version: 6.00 Build 0)  -->
<svg version="1.1" id="Ebene_1" xmlns="http://www.w3.org/2000/svg" xmlns:xlink="http://www.w3.org/1999/xlink" x="0px" y="0px"
	 viewBox="0 0 500 500" style="enable-background:new 0 0 500 500;" xml:space="preserve">
<style type="text/css">
	.st0{fill:#F79200;}
	.st1{fill:none;}
	.st2{fill:#FFFFFF;}
</style>
<circle class="st0" cx="250" cy="250" r="250"/>
<g>
	<rect x="21" y="210.8" class="st1" width="461" height="62.1"/>
	<path class="st2" d="M59.2,210.8h16.6c3.3,0,5.7,0.1,7.3,0.4c1.6,0.3,3.1,0.8,4.3,1.7c1.3,0.9,2.3,2,3.2,3.5s1.3,3.1,1.3,4.9
		c0,1.9-0.5,3.7-1.6,5.4c-1,1.6-2.5,2.8-4.3,3.7c2.5,0.7,4.5,2,5.8,3.8c1.4,1.8,2,3.9,2,6.3c0,1.9-0.4,3.7-1.3,5.5S90.5,249,89,250
		c-1.5,1.1-3.4,1.7-5.6,2c-1.4,0.2-4.8,0.2-10.1,0.3H59.2V210.8z M67.5,217.7v9.6H73c3.3,0,5.3,0,6.1-0.1c1.4-0.2,2.6-0.7,3.4-1.5
		s1.2-1.9,1.2-3.2c0-1.3-0.4-2.3-1.1-3.1c-0.7-0.8-1.8-1.3-3.2-1.5c-0.8-0.1-3.2-0.1-7.2-0.1H67.5z M67.5,234.2v11.1h7.8
		c3,0,4.9-0.1,5.7-0.3c1.2-0.2,2.3-0.8,3-1.7c0.8-0.9,1.2-2.1,1.2-3.5c0-1.2-0.3-2.3-0.9-3.2c-0.6-0.9-1.5-1.5-2.6-1.9
		c-1.1-0.4-3.6-0.6-7.4-0.6H67.5z"/>
	<path class="st2" d="M101,218.1v-7.4h8v7.4H101z M101,252.3v-30.1h8v30.1H101z"/>
	<path class="st2" d="M116.7,252.3v-41.5h8v15c2.5-2.8,5.4-4.2,8.7-4.2c3.7,0,6.7,1.3,9.1,4c2.4,2.7,3.6,6.5,3.6,11.4
		c0,5.1-1.2,9.1-3.7,11.9c-2.4,2.8-5.4,4.2-8.9,4.2c-1.7,0-3.4-0.4-5.1-1.3c-1.7-0.9-3.1-2.1-4.3-3.8v4.4H116.7z M124.6,236.6
		c0,3.1,0.5,5.4,1.5,6.9c1.4,2.1,3.2,3.2,5.5,3.2c1.8,0,3.3-0.8,4.5-2.3c1.2-1.5,1.9-3.9,1.9-7.1c0-3.4-0.6-5.9-1.9-7.4
		c-1.2-1.5-2.8-2.3-4.8-2.3c-1.9,0-3.5,0.7-4.8,2.2C125.3,231.3,124.6,233.6,124.6,236.6z"/>
	<path class="st2" d="M169.9,242.7l7.9,1.3c-1,2.9-2.6,5.1-4.8,6.6c-2.2,1.5-5,2.3-8.3,2.3c-5.2,0-9.1-1.7-11.6-5.1
		c-2-2.7-3-6.2-3-10.4c0-5,1.3-8.9,3.9-11.7c2.6-2.8,5.9-4.2,9.9-4.2c4.5,0,8,1.5,10.6,4.4c2.6,3,3.8,7.5,3.7,13.6h-19.9
		c0.1,2.4,0.7,4.2,1.9,5.5c1.2,1.3,2.8,2,4.6,2c1.2,0,2.3-0.3,3.1-1S169.5,244.2,169.9,242.7z M170.4,234.7
		c-0.1-2.3-0.7-4.1-1.8-5.3c-1.1-1.2-2.5-1.8-4.1-1.8c-1.7,0-3.2,0.6-4.3,1.9c-1.1,1.3-1.7,3-1.7,5.2H170.4z"/>
	<path class="st2" d="M192.4,252.3h-8v-30.1h7.4v4.3c1.3-2,2.4-3.4,3.4-4c1-0.6,2.2-1,3.4-1c1.8,0,3.6,0.5,5.2,1.5l-2.5,6.9
		c-1.3-0.9-2.6-1.3-3.7-1.3c-1.1,0-2.1,0.3-2.8,0.9c-0.8,0.6-1.4,1.7-1.8,3.3c-0.4,1.6-0.7,5-0.7,10.1V252.3z"/>
	<path class="st2" d="M206.6,254.3l9.1,1.1c0.2,1.1,0.5,1.8,1,2.2c0.8,0.6,1.9,0.8,3.6,0.8c2.1,0,3.6-0.3,4.7-0.9
		c0.7-0.4,1.2-1.1,1.6-2c0.2-0.7,0.4-1.9,0.4-3.7v-4.4c-2.4,3.2-5.4,4.9-9,4.9c-4,0-7.2-1.7-9.6-5.1c-1.9-2.7-2.8-6.1-2.8-10.1
		c0-5,1.2-8.9,3.6-11.6c2.4-2.7,5.4-4,9-4c3.7,0,6.8,1.6,9.2,4.9v-4.2h7.4v27c0,3.5-0.3,6.2-0.9,8c-0.6,1.8-1.4,3.1-2.5,4.1
		c-1.1,1-2.5,1.8-4.2,2.4c-1.8,0.6-4,0.8-6.7,0.8c-5.1,0-8.7-0.9-10.8-2.6c-2.1-1.7-3.2-4-3.2-6.6
		C206.6,255,206.6,254.7,206.6,254.3z M213.7,236.6c0,3.2,0.6,5.5,1.9,7c1.2,1.5,2.8,2.2,4.6,2.2c1.9,0,3.6-0.8,4.9-2.3
		c1.3-1.5,2-3.8,2-6.8c0-3.1-0.6-5.4-1.9-6.9c-1.3-1.5-2.9-2.3-4.9-2.3c-1.9,0-3.5,0.7-4.7,2.2C214.3,231.3,213.7,233.6,213.7,236.6
		z"/>
	<path class="st2" d="M250.4,252.3h-8v-30.1h7.4v4.3c1.3-2,2.4-3.4,3.4-4c1-0.6,2.2-1,3.4-1c1.8,0,3.6,0.5,5.2,1.5l-2.5,6.9
		c-1.3-0.9-2.6-1.3-3.7-1.3c-1.1,0-2.1,0.3-2.8,0.9c-0.8,0.6-1.4,1.7-1.8,3.3c-0.4,1.6-0.7,5-0.7,10.1V252.3z"/>
	<path class="st2" d="M285.1,252.3v-4.5c-1.1,1.6-2.5,2.9-4.3,3.8c-1.8,0.9-3.7,1.4-5.7,1.4c-2,0-3.8-0.4-5.4-1.3
		c-1.6-0.9-2.8-2.1-3.5-3.7c-0.7-1.6-1.1-3.8-1.1-6.7v-19h8V236c0,4.2,0.1,6.8,0.4,7.8c0.3,1,0.8,1.7,1.6,2.3
		c0.8,0.6,1.8,0.8,2.9,0.8c1.4,0,2.6-0.4,3.7-1.1c1.1-0.7,1.8-1.7,2.2-2.8s0.6-3.8,0.6-8.1v-12.7h8v30.1H285.1z"/>
	<path class="st2" d="M300.5,222.2h7.4v4.4c1-1.5,2.3-2.7,3.9-3.7c1.6-0.9,3.5-1.4,5.5-1.4c3.5,0,6.5,1.4,8.9,4.1
		c2.4,2.7,3.7,6.6,3.7,11.4c0,5-1.2,8.9-3.7,11.7c-2.5,2.8-5.4,4.2-8.9,4.2c-1.7,0-3.2-0.3-4.5-1c-1.3-0.7-2.8-1.8-4.3-3.4v15.2h-8
		V222.2z M308.4,236.8c0,3.4,0.7,5.9,2,7.5s3,2.4,4.9,2.4c1.9,0,3.4-0.7,4.6-2.2c1.2-1.5,1.8-3.9,1.8-7.3c0-3.2-0.6-5.5-1.9-7
		s-2.8-2.3-4.7-2.3c-1.9,0-3.6,0.8-4.8,2.3S308.4,233.8,308.4,236.8z"/>
	<path class="st2" d="M336,222.2h7.4v4.4c1-1.5,2.3-2.7,3.9-3.7c1.6-0.9,3.5-1.4,5.5-1.4c3.5,0,6.5,1.4,8.9,4.1
		c2.4,2.7,3.7,6.6,3.7,11.4c0,5-1.2,8.9-3.7,11.7c-2.5,2.8-5.4,4.2-8.9,4.2c-1.7,0-3.2-0.3-4.5-1c-1.3-0.7-2.8-1.8-4.3-3.4v15.2h-8
		V222.2z M343.8,236.8c0,3.4,0.7,5.9,2,7.5s3,2.4,4.9,2.4c1.9,0,3.4-0.7,4.6-2.2c1.2-1.5,1.8-3.9,1.8-7.3c0-3.2-0.6-5.5-1.9-7
		s-2.8-2.3-4.7-2.3c-1.9,0-3.6,0.8-4.8,2.3S343.8,233.8,343.8,236.8z"/>
	<path class="st2" d="M389,242.7l7.9,1.3c-1,2.9-2.6,5.1-4.8,6.6c-2.2,1.5-5,2.3-8.3,2.3c-5.2,0-9.1-1.7-11.6-5.1
		c-2-2.7-3-6.2-3-10.4c0-5,1.3-8.9,3.9-11.7c2.6-2.8,5.9-4.2,9.9-4.2c4.5,0,8,1.5,10.6,4.4c2.6,3,3.8,7.5,3.7,13.6h-19.9
		c0.1,2.4,0.7,4.2,1.9,5.5c1.2,1.3,2.8,2,4.6,2c1.2,0,2.3-0.3,3.1-1S388.6,244.2,389,242.7z M389.5,234.7c-0.1-2.3-0.7-4.1-1.8-5.3
		c-1.1-1.2-2.5-1.8-4.1-1.8c-1.7,0-3.2,0.6-4.3,1.9c-1.1,1.3-1.7,3-1.7,5.2H389.5z"/>
	<path class="st2" d="M438.7,252.3h-8v-30c-2.9,2.7-6.3,4.7-10.3,6v-7.2c2.1-0.7,4.3-2,6.8-3.9s4.1-4.1,5-6.6h6.5V252.3z"/>
</g>
<g>
</g>
<g>
</g>
<g>
</g>
<g>
</g>
<g>
</g>
<g>
</g>
<g>
</g>
<g>
</g>
<g>
</g>
<g>
</g>
<g>
</g>
</svg>
