<?xml version="1.0" encoding="UTF-8" standalone="no"?>
<svg
   xmlns:dc="http://purl.org/dc/elements/1.1/"
   xmlns:cc="http://creativecommons.org/ns#"
   xmlns:rdf="http://www.w3.org/1999/02/22-rdf-syntax-ns#"
   xmlns:svg="http://www.w3.org/2000/svg"
   xmlns="http://www.w3.org/2000/svg"
   id="svg2"
   version="1.1"
   viewBox="0 0 128 88"
   height="88"
   width="128">
  <metadata
     id="metadata7">
    <rdf:RDF>
      <cc:Work
         rdf:about="">
        <dc:format>image/svg+xml</dc:format>
        <dc:type
           rdf:resource="http://purl.org/dc/dcmitype/StillImage" />
        <dc:title></dc:title>
      </cc:Work>
    </rdf:RDF>
  </metadata>
  <defs
     id="defs8" />
  <path
     id="Shamrock"
     d="m 99.202982,86.042212 c -2.359074,-1.830671 -3.668286,-4.069129 -4.446673,-6.651785 -0.849455,-2.819521 -0.995971,-5.734934 -1.13474,-8.647992 -0.09195,-1.931608 -0.183903,-3.864898 -0.210175,-5.798189 -0.0192,-1.405723 -0.929955,-2.11195 -1.991269,-2.672153 -1.050199,-0.554483 -2.088272,-0.505697 -3.04753,0.321654 -2.441932,2.10623 -4.898683,4.195974 -7.361498,6.277979 -2.236472,1.89056 -4.561528,3.640817 -7.398884,4.568097 -2.635265,0.86167 -5.244932,0.735162 -7.703368,-0.476762 -2.34358,-1.155398 -3.591155,-3.253217 -3.77371,-5.798862 -0.138769,-1.938337 -0.06602,-3.934209 0.235099,-5.853704 0.716412,-4.567424 0.703613,-9.086734 -0.158978,-13.63027 -0.296063,-1.559821 -0.441906,-3.175158 -0.424054,-4.762233 0.05254,-4.680137 3.534906,-7.562577 8.134158,-6.643373 1.588434,0.317281 3.147229,1.01846 4.584432,1.794334 1.470548,0.794041 2.769992,1.901999 4.153978,2.858551 1.775368,1.226727 3.574314,2.419473 5.334863,3.666724 0.821499,0.581737 1.569909,1.266093 2.364463,1.886523 0.507248,0.396011 0.995634,0.858978 1.571593,1.112332 0.597852,0.263447 1.291361,0.310887 1.943104,0.452536 0.07949,-0.109012 0.158978,-0.218025 0.238467,-0.327374 -0.338165,-0.710264 -0.54194,-1.536942 -1.03841,-2.110604 -2.072779,-2.394575 -4.282643,-4.671389 -6.348011,-7.072357 -1.806356,-2.099837 -3.651783,-4.198329 -5.182958,-6.494995 -2.148563,-3.223272 -2.834325,-6.819004 -1.597192,-10.602479 0.70294,-2.14997 2.182582,-3.714838 4.163072,-4.745747 0.578654,-0.300794 1.355694,-0.369431 2.026299,-0.322327 4.560854,0.319299 9.112614,0.790341 13.676837,1.028553 3.566567,0.186062 7.086993,-0.384572 10.623583,-0.920214 5.99334,-0.907428 9.83172,2.137858 9.30662,8.386228 -0.22331,2.658022 -1.4473,4.929117 -3.04888,7.001365 -2.89832,3.749829 -5.82796,7.475434 -8.73403,11.219208 -1.04885,1.351217 -2.06031,2.731706 -3.10411,4.087297 -0.3513,0.455901 -0.46683,0.85595 -0.0296,1.339441 0.4254,0.470369 0.79725,0.547082 1.37455,0.19952 2.91651,-1.754631 5.27323,-4.169057 7.73301,-6.462694 1.99464,-1.859943 4.02329,-3.683211 6.49688,-4.89278 1.98521,-0.971019 4.04687,-1.69104 6.32478,-1.230765 1.11015,0.224418 2.01686,0.730115 2.74304,1.644609 1.95826,2.466914 2.42206,5.264566 1.84846,8.25871 -0.47458,2.475325 -1.11891,4.917677 -1.64064,7.384927 -0.53015,2.505607 -0.35467,4.954688 0.21994,7.481491 0.65478,2.880421 1.11487,5.848994 0.85249,8.840447 -0.18256,2.079649 -1.02494,3.860524 -2.85824,4.996744 -1.36007,0.843502 -2.92358,0.939392 -4.47564,0.884886 -2.83601,-0.100264 -5.29175,-1.27686 -7.45816,-2.987415 -2.17652,-1.718293 -4.19979,-3.629377 -6.31939,-5.421019 -1.71171,-1.446771 -3.4123,-2.916422 -5.21866,-4.238367 -1.730233,-1.266093 -3.636623,-0.278251 -3.838714,1.858597 -0.315936,3.336658 -0.369153,6.664233 0.343554,9.961526 0.582696,2.696041 1.622453,5.190545 3.44969,7.298457 0.36276,0.418218 0.47256,0.827351 0.23375,1.295365 -0.44055,0.863353 -0.917826,1.707527 -1.433158,2.658359 l 0,0 z m -5.923957,-25.95508 c 0.05153,-0.17193 0.143147,-0.310551 0.11957,-0.424947 C 93.217387,58.791767 92.962079,57.933461 92.832404,57.056314 92.721591,56.305338 92.349407,56.138455 91.643773,56.14081 86.283985,56.16133 80.923861,56.161 75.564074,56.1287 73.910297,56.11861 72.25652,56.003537 70.604427,55.9026 c -0.276528,-0.01682 -0.665552,-0.132228 -0.790512,-0.333431 -0.415297,-0.668879 -0.511964,-1.41077 -0.173461,-2.166792 0.303473,-0.677964 0.89122,-0.650711 1.497493,-0.64701 6.650811,0.03869 13.301622,0.06797 19.952433,0.100265 1.844416,0.0091 2.823547,-0.971019 2.788181,-2.794288 -0.0064,-0.336459 -0.02324,-0.67258 -0.02897,-1.008703 -0.13136,-7.791705 -0.265076,-15.58341 -0.380268,-23.375116 -0.0044,-0.308869 0.102056,-0.666861 0.275517,-0.921223 0.421697,-0.617738 1.065019,-0.721367 1.721478,-0.463303 0.679362,0.266811 1.157307,0.675945 1.14956,1.552082 -0.07141,8.100911 -0.109466,16.202495 -0.15561,24.303742 -0.01078,1.833699 0.737969,2.603516 2.521421,2.603516 6.370581,3.36e-4 12.741161,-10e-4 19.111741,0.0017 1.05795,6.73e-4 2.02596,0.769481 2.03371,1.597169 0.01,1.030235 -0.71574,1.655375 -1.92525,1.670179 -6.14525,0.07537 -12.2905,0.141313 -18.435415,0.235185 -2.365137,0.03634 -2.381641,0.06124 -3.07616,2.34276 -0.152916,0.502333 -0.135401,1.05648 -0.212869,1.727378 0.624797,-0.143668 1.049862,-0.182697 1.425751,-0.339486 0.994624,-0.41519 1.883824,-0.213315 2.809073,0.256381 2.37692,1.206877 4.41231,2.874365 6.40459,4.606117 1.86227,1.619038 3.63259,3.357182 5.59354,4.845338 1.57261,1.193418 3.29745,2.244851 5.08427,3.083305 2.64369,1.240523 5.75757,-0.09185 6.35475,-2.582655 0.19232,-0.801444 0.24655,-1.678591 0.15258,-2.496858 -0.21691,-1.89056 -0.45807,-3.789868 -0.88044,-5.642409 -0.76323,-3.348098 -0.58203,-6.671635 -0.10206,-10.023434 0.47188,-3.296284 0.95522,-6.595932 1.256,-9.910048 0.18996,-2.092436 -1.37119,-3.600106 -3.48405,-3.451391 -1.02662,0.07234 -2.0748,0.468013 -3.0216,0.911802 -2.43991,1.143286 -4.43118,2.926516 -6.42581,4.70268 -2.48943,2.216925 -5.01624,4.392129 -7.54439,6.564978 -0.86967,0.747611 -1.92458,0.904064 -3.01419,0.665515 -2.144863,-0.469696 -3.143866,-1.460566 -2.926618,-3.580591 0.09801,-0.956215 0.329745,-1.95617 0.758178,-2.807073 0.548676,-1.08878 1.29002,-2.10152 2.06571,-3.051342 2.62314,-3.213179 5.30893,-6.375888 7.9479,-9.576954 0.78377,-0.950832 1.52646,-1.939683 2.2267,-2.953433 1.10409,-1.597505 1.80299,-3.36694 1.8909,-5.320754 0.0647,-1.43836 0.0404,-2.888496 -1.21288,-3.936901 -1.54364,-1.292 -3.36414,-1.790295 -5.27457,-1.322282 -6.21295,1.521466 -12.420179,1.587748 -18.693753,0.406779 -1.826902,-0.343861 -3.730598,-0.378516 -5.598255,-0.371787 -1.348956,0.0044 -2.328424,0.8075 -2.98084,2.023125 -1.768295,3.295611 -1.450002,6.513836 0.46683,9.577627 0.989908,1.582364 2.196728,3.044276 3.41803,4.464467 1.388028,1.614665 2.958948,3.072539 4.345628,4.688213 1.641652,1.913103 3.233117,3.876338 4.729264,5.904173 1.088933,1.475707 0.805332,3.027117 -0.567876,4.389101 -1.209177,1.199811 -2.624824,1.369723 -4.104466,0.368758 -2.834325,-1.916467 -5.614422,-3.912675 -8.450093,-5.826451 -2.672316,-1.803417 -5.324422,-3.65293 -8.117318,-5.252117 -0.978793,-0.560203 -2.4325,-0.79135 -3.522781,-0.539343 -1.559131,0.360347 -2.649411,1.668834 -2.837019,3.329257 -0.151905,1.341796 -0.209164,2.782175 0.112497,4.074176 1.157981,4.649519 1.205809,9.299039 0.550698,14.011476 -0.284948,2.047014 -0.450326,4.124981 -0.470198,6.1905 -0.0229,2.368668 1.835996,4.566751 3.9886,4.837264 0.987888,0.123816 2.041455,0.143331 3.007786,-0.06124 2.729575,-0.577699 5.005118,-2.070902 7.057351,-3.89989 1.234775,-1.099883 2.373221,-2.307769 3.602607,-3.414381 1.102406,-0.992552 2.217611,-1.985441 3.420051,-2.84913 2.109492,-1.514736 4.427812,-1.97804 6.93037,-1.024516 0.12395,0.0471 0.261708,0.05787 0.431128,0.09387 l 0,0 z m 1.978133,-6.17906 c -0.109803,0.01144 -0.219943,0.02288 -0.330082,0.03432 -0.180535,0.445471 -0.443253,0.881184 -0.497817,1.341459 -0.01954,0.165538 0.622776,0.601925 0.690477,0.551119 0.312567,-0.234175 0.708665,-0.584764 0.728874,-0.915167 0.01987,-0.324009 -0.377236,-0.673589 -0.591452,-1.01173 l 0,0 z"
     style="fill:#ffffff;fill-rule:evenodd;stroke:none;stroke-width:1" />
  <path
     id="Liliy"
     d="m 34.113121,48.882777 c 0.117027,-0.864494 0.256036,-1.726727 0.347848,-2.593481 0.583841,-5.512156 2.695823,-10.221176 7.239185,-13.618761 4.714377,-3.525145 11.624141,-3.208347 15.971597,0.764061 2.351207,2.148155 2.614356,4.930552 1.875341,7.81435 -0.349141,1.362135 -1.099149,2.62093 -1.656481,3.931396 -0.346556,0.81573 -0.726732,1.623065 -0.995376,2.46463 -0.520803,1.634368 -0.319077,3.188971 0.698929,4.606004 0.07759,0.108183 0.13998,0.227668 0.205928,0.343924 0.01164,0.02099 0.0068,0.05135 0.0236,0.209261 -2.383859,0.303558 -4.761253,0.782146 -7.047158,-0.44694 -0.311641,-0.167603 -0.55701,-0.49538 -0.775546,-0.791188 -0.878349,-1.19001 -1.662947,-2.45688 -2.61662,-3.581658 -1.115312,-1.315955 -2.507998,-2.217909 -4.365559,-1.970864 -0.979212,0.130142 -2.844531,1.8559 -3.01005,2.810169 -0.03912,0.225085 0.0653,0.537685 0.214657,0.719173 0.287718,0.350384 0.640092,0.652972 0.990527,0.945228 1.346457,1.121548 1.625769,2.534061 1.150873,4.151636 -0.49979,1.700569 -1.414669,2.98197 -3.360162,3.103716 -1.019621,0.06362 -2.045062,0.03068 -3.06727,0.06685 -0.761322,0.0268 -1.018006,0.37977 -0.630394,1.018533 0.307438,0.507006 0.753563,1.027898 1.267253,1.291412 1.021562,0.524122 2.119094,0.912934 3.209837,1.286245 0.966281,0.331007 1.976204,0.532518 2.948304,0.848347 3.765876,1.223919 4.909314,3.480903 4.414697,7.493678 -0.127372,1.03371 -0.674036,2.020273 -1.062941,3.014909 -0.193644,0.495057 -0.583518,0.538008 -1.115636,0.514756 -1.955191,-0.08461 -3.914261,-0.08558 -5.872038,-0.0788 -0.382439,0.0013 -0.764555,0.178583 -1.128244,0.270296 0.197847,1.246524 0.424465,2.40295 0.557656,3.570032 0.259593,2.275069 -0.501729,4.193941 -2.207025,5.710438 -0.964018,0.857389 -1.983317,1.652775 -2.986774,2.46463 -1.021885,0.826388 -2.055085,1.639212 -3.116086,2.484329 -2.163706,-1.875599 -4.41696,-3.670142 -6.478833,-5.661997 -1.958748,-1.892392 -2.443989,-4.237214 -1.355509,-6.816808 0.146122,-0.346508 0.263472,-0.70561 0.389874,-1.060192 0.01713,-0.04812 0.0081,-0.105276 0.01746,-0.261899 -1.081045,-0.56578 -2.295927,-0.797323 -3.515658,-0.82122 -1.200982,-0.02358 -2.404872,0.174707 -3.60941,0.243492 -0.287718,0.01615 -0.696343,0.01033 -0.857012,-0.163082 -2.234828,-2.412961 -1.959071,-7.972911 0.169721,-9.411904 1.05098,-0.710454 2.249375,-1.242972 3.443568,-1.689912 1.178998,-0.440805 2.487954,-0.548664 3.644646,-1.030804 1.068761,-0.445326 2.036981,-1.156749 2.990654,-1.833295 0.23664,-0.168249 0.355284,-0.670088 0.312287,-0.989792 -0.02037,-0.150487 -0.545048,-0.306464 -0.851839,-0.332299 -0.991497,-0.08299 -1.995278,-0.04618 -2.981279,-0.165342 -2.182133,-0.263837 -3.761027,-2.489496 -3.54831,-4.693519 0.127372,-1.316924 0.676623,-2.172698 1.837195,-2.787887 1.20292,-0.637794 1.234602,-1.158363 0.317136,-2.206283 C 19.874949,47.712787 19.61083,47.406 19.324405,47.122787 17.785274,45.601769 16.262307,45.397352 14.582873,46.775633 13.477905,47.682431 12.61766,48.891495 11.672392,49.98624 11.075619,50.677319 10.570658,51.452037 9.9415567,52.10953 8.8831385,53.215579 7.5599577,53.648956 6.0389303,53.350242 4.9595019,53.138398 3.8645561,52.947867 2.9739226,52.148606 2.9981686,52.044298 2.9978456,51.930948 3.0479536,51.847954 4.3168234,49.7505 4.0898816,47.628502 3.1261876,45.51264 2.5242422,44.190873 1.829839,42.91044 1.2430877,41.582214 -0.31705651,38.051902 0.33467385,35.504278 3.3621812,33.109079 8.5853992,28.977141 15.79452,29.500294 20.876142,34.344946 c 2.883325,2.749135 4.29767,6.187087 4.876986,10.040333 0.203666,1.355999 0.396663,2.713935 0.603885,4.069611 0.03265,0.215719 0.113471,0.424012 0.171984,0.635856 0.07338,-0.0032 0.146769,-0.0065 0.220153,-0.0097 0.04688,-0.216042 0.111208,-0.429825 0.137394,-0.648128 0.43287,-3.605555 -0.01487,-7.134252 -1.443764,-10.43851 -1.406263,-3.25162 -3.00811,-6.433809 -4.738946,-9.526545 -2.268772,-4.055079 -2.559723,-8.151817 -0.776193,-12.394197 0.549898,-1.308205 1.187727,-2.609628 1.984286,-3.778971 2.73979,-4.0205243 5.567511,-7.9816295 8.381654,-11.99375823 -0.0013,-0.001292 0.09504,0.0471483 0.149678,0.12465242 1.965859,2.79305391 3.918464,5.59547281 5.893052,8.38206811 1.588269,2.2418057 3.181065,4.4748927 4.228812,7.0425387 1.071023,2.624805 1.583743,5.341001 0.991173,8.129211 -0.292244,1.374083 -0.891926,2.705539 -1.502924,3.985002 -1.344517,2.815336 -2.827074,5.565117 -4.174824,8.379485 -1.46801,3.064964 -2.403579,6.282676 -2.332134,9.720951 0.0194,0.93457 0.161962,1.866557 0.247954,2.799513 0.106359,0.0061 0.212395,0.01227 0.318754,0.01841 l 0,0 z M 30.219549,4.9279433 c -2.007239,2.870558 -4.000577,5.6752367 -5.937988,8.5183457 -0.648821,0.952009 -1.225874,1.968281 -1.712732,3.012649 -1.736008,3.721811 -1.678464,7.354493 0.529208,10.926786 1.143438,1.850733 2.158533,3.78769 3.126754,5.737564 1.980083,3.988231 3.332359,8.166025 3.481068,12.661263 0.04009,1.202282 0.0061,2.407148 0.0061,3.610399 1.241714,0.340695 1.413376,0.211198 1.326413,-0.987532 -0.04073,-0.562873 -0.101832,-1.126392 -0.106682,-1.689912 -0.0333,-3.968855 0.864772,-7.752347 2.504442,-11.336266 1.655189,-3.618472 3.481392,-7.158795 5.184748,-10.756277 0.30162,-0.637148 0.456793,-1.377312 0.524682,-2.08486 0.199463,-2.080016 -0.101833,-4.134521 -1.117575,-5.947148 C 36.756896,14.324992 35.302141,12.155846 33.854497,9.9921904 32.707504,8.277735 31.451565,6.6359399 30.219549,4.9279433 l 0,0 z M 26.525117,71.991592 c -0.517893,1.111215 -0.985677,2.073558 -1.418871,3.051401 -1.052596,2.374855 -0.780396,4.173596 1.116605,5.931647 1.156692,1.071817 2.504119,1.940832 3.790769,2.866037 0.158407,0.113996 0.552484,0.112381 0.702162,-0.0061 1.41079,-1.116382 2.838389,-2.218877 4.168036,-3.427618 1.189666,-1.081183 1.413052,-2.498862 0.948177,-4.0089 -0.23664,-0.769551 -0.557333,-1.512944 -0.830504,-2.271839 -0.218213,-0.606469 -0.469078,-1.208095 -0.605825,-1.833617 -0.04558,-0.209261 0.167782,-0.656525 0.344292,-0.705934 2.913067,-0.817022 5.853612,-1.492599 8.913448,-1.084411 0.487828,0.06491 0.733843,-0.05748 0.774899,-0.524767 0.08211,-0.934571 0.227912,-1.875277 0.185562,-2.805972 -0.04881,-1.060837 -0.525651,-1.899173 -1.685576,-2.185615 -0.809167,-0.199896 -1.603787,-0.459858 -2.400346,-0.707871 -1.412406,-0.439513 -2.852614,-0.811209 -4.223963,-1.355676 -1.967476,-0.781176 -3.321045,-2.177219 -3.706393,-4.337969 -0.08341,-0.465993 -0.295154,-0.623262 -0.752594,-0.613251 -1.023177,0.02228 -2.047648,0.02454 -3.070503,-0.0016 -0.498173,-0.0126 -0.695696,0.169217 -0.793327,0.668149 -0.359809,1.835879 -1.406586,3.205764 -3.094102,3.993399 -1.165744,0.54382 -2.406489,0.927466 -3.616199,1.376021 -1.260464,0.467285 -2.526748,0.918746 -3.785273,1.391198 -0.993113,0.372989 -1.505833,1.147707 -1.537514,2.163979 -0.02522,0.822835 0.104742,1.652129 0.19235,2.47561 0.04623,0.435315 0.309055,0.548988 0.745482,0.479234 0.528884,-0.08461 1.071346,-0.10011 1.608636,-0.110766 2.735263,-0.05522 5.309533,0.685911 8.030572,1.585281 l 0,0 z M 54.124734,50.377637 c -0.27705,-3.206086 0.89419,-5.897093 2.415864,-8.477979 1.532019,-2.598002 0.793003,-6.00786 -1.793552,-7.55665 -3.795941,-2.272807 -7.652013,-1.926622 -11.33125,0.242524 -3.205958,1.890131 -4.752524,5.028078 -5.685831,8.492188 -0.49397,1.833295 -0.776839,3.705019 -0.653023,5.739501 0.534703,-0.946518 0.965311,-1.80197 1.479971,-2.604137 2.517697,-3.923968 8.008913,-3.769283 10.413461,-0.369114 0.403776,0.570301 0.797853,1.148676 1.227491,1.699278 0.528237,0.676546 1.042574,1.374083 1.649046,1.976031 0.574466,0.570301 1.290529,0.946519 2.277823,0.858358 l 0,0 z M 23.658279,48.614419 c 0,-0.300328 0.0071,-0.486338 -9.69e-4,-0.672025 -0.150648,-3.398878 -1.175766,-6.54845 -2.786342,-9.515243 -1.597968,-2.943541 -4.289911,-4.592117 -7.378842,-5.317104 -2.821255,-0.662337 -5.6263464,-0.0071 -8.0942579,1.654067 -1.9862258,1.3363 -2.7620953,3.708571 -1.8898887,5.972336 0.404422,1.048566 0.9523798,2.045786 1.4819107,3.041713 1.1227478,2.113602 2.2060555,4.226234 1.3723191,6.721866 0.9459142,0.195052 2.0146744,-0.286119 2.5325673,-0.955884 1.0833078,-1.399918 2.0612265,-2.932884 3.3601615,-4.104165 3.382791,-3.050432 6.449738,-2.881537 9.454939,0.489568 0.704748,0.790542 1.254646,1.718976 1.948402,2.684871 l 0,0 z m 6.610408,3.637526 0,-0.08396 c -2.69356,0 -5.387443,-0.01356 -8.08068,0.0155 -0.368538,0.0039 -0.806581,0.128527 -1.087187,0.353612 -0.610674,0.489568 -0.548281,1.19098 -0.316814,1.853317 0.213364,0.610345 0.702162,0.824127 1.336759,0.823158 5.279791,-0.0084 10.55926,-0.0048 15.839052,-0.0055 0.08082,0 0.161963,0.0016 0.242136,-0.0068 1.039988,-0.107859 1.74312,-0.797969 1.717904,-1.68313 -0.02716,-0.948134 -0.420586,-1.255244 -1.731805,-1.262348 -2.639573,-0.01356 -5.279469,-0.0039 -7.919365,-0.0039 l 0,0 z"
     style="fill:#ffffff;fill-rule:evenodd;stroke:none;stroke-width:1" />
</svg>
