<?xml version="1.0" encoding="utf-8"?>
<!-- Generator: Adobe Illustrator 23.0.1, SVG Export Plug-In . SVG Version: 6.00 Build 0)  -->
<svg version="1.1" id="Ebene_1" xmlns="http://www.w3.org/2000/svg" xmlns:xlink="http://www.w3.org/1999/xlink" x="0px" y="0px"
	 viewBox="0 0 500 500" style="enable-background:new 0 0 500 500;" xml:space="preserve">
<style type="text/css">
	.st0{fill:#D903E5;}
	.st1{fill:none;}
	.st2{fill:#FFFFFF;}
</style>
<circle class="st0" cx="250" cy="250" r="250"/>
<g>
	<rect x="21" y="210.8" class="st1" width="461" height="62.1"/>
	<path class="st2" d="M88.1,252.3v-41.5h13.5c5.1,0,8.4,0.2,10,0.6c2.4,0.6,4.4,2,6,4.1c1.6,2.1,2.4,4.8,2.4,8.1
		c0,2.5-0.5,4.7-1.4,6.4c-0.9,1.7-2.1,3.1-3.5,4.1c-1.4,1-2.9,1.6-4.3,2c-2,0.4-4.9,0.6-8.7,0.6h-5.5v15.7H88.1z M96.5,217.8v11.8
		h4.6c3.3,0,5.5-0.2,6.6-0.7c1.1-0.4,2-1.1,2.6-2c0.6-0.9,0.9-2,0.9-3.2c0-1.5-0.4-2.8-1.3-3.7c-0.9-1-2-1.6-3.4-1.8
		c-1-0.2-3-0.3-6-0.3H96.5z"/>
	<path class="st2" d="M126.8,218.1v-7.4h8v7.4H126.8z M126.8,252.3v-30.1h8v30.1H126.8z"/>
	<path class="st2" d="M141.1,236.8c0-2.6,0.7-5.2,2-7.7c1.3-2.5,3.1-4.4,5.5-5.7c2.4-1.3,5.1-2,8-2c4.5,0,8.3,1.5,11.2,4.4
		c2.9,3,4.4,6.7,4.4,11.2c0,4.6-1.5,8.3-4.4,11.3c-2.9,3-6.6,4.5-11.1,4.5c-2.8,0-5.4-0.6-7.9-1.9c-2.5-1.2-4.4-3.1-5.7-5.5
		S141.1,240.3,141.1,236.8z M149.2,237.3c0,3,0.7,5.3,2.1,6.9s3.2,2.4,5.2,2.4c2.1,0,3.8-0.8,5.2-2.4c1.4-1.6,2.1-3.9,2.1-6.9
		c0-2.9-0.7-5.2-2.1-6.8c-1.4-1.6-3.1-2.4-5.2-2.4c-2.1,0-3.8,0.8-5.2,2.4S149.2,234.3,149.2,237.3z"/>
	<path class="st2" d="M177.6,254.3l9.1,1.1c0.2,1.1,0.5,1.8,1,2.2c0.8,0.6,1.9,0.8,3.6,0.8c2.1,0,3.6-0.3,4.7-0.9
		c0.7-0.4,1.2-1.1,1.6-2c0.2-0.7,0.4-1.9,0.4-3.7v-4.4c-2.4,3.2-5.4,4.9-9,4.9c-4,0-7.2-1.7-9.6-5.1c-1.9-2.7-2.8-6.1-2.8-10.1
		c0-5,1.2-8.9,3.6-11.6c2.4-2.7,5.4-4,9-4c3.7,0,6.8,1.6,9.2,4.9v-4.2h7.4v27c0,3.5-0.3,6.2-0.9,8c-0.6,1.8-1.4,3.1-2.5,4.1
		c-1.1,1-2.5,1.8-4.2,2.4c-1.8,0.6-4,0.8-6.7,0.8c-5.1,0-8.7-0.9-10.8-2.6c-2.1-1.7-3.2-4-3.2-6.6
		C177.6,255,177.6,254.7,177.6,254.3z M184.7,236.6c0,3.2,0.6,5.5,1.9,7c1.2,1.5,2.8,2.2,4.6,2.2c1.9,0,3.6-0.8,4.9-2.3
		c1.3-1.5,2-3.8,2-6.8c0-3.1-0.6-5.4-1.9-6.9c-1.3-1.5-2.9-2.3-4.9-2.3c-1.9,0-3.5,0.7-4.7,2.2C185.3,231.3,184.7,233.6,184.7,236.6
		z"/>
	<path class="st2" d="M221.4,252.3h-8v-30.1h7.4v4.3c1.3-2,2.4-3.4,3.4-4c1-0.6,2.2-1,3.4-1c1.8,0,3.6,0.5,5.2,1.5l-2.5,6.9
		c-1.3-0.9-2.6-1.3-3.7-1.3c-1.1,0-2.1,0.3-2.8,0.9c-0.8,0.6-1.4,1.7-1.8,3.3c-0.4,1.6-0.7,5-0.7,10.1V252.3z"/>
	<path class="st2" d="M256.1,252.3v-4.5c-1.1,1.6-2.5,2.9-4.3,3.8c-1.8,0.9-3.7,1.4-5.6,1.4c-2,0-3.8-0.4-5.4-1.3
		c-1.6-0.9-2.8-2.1-3.5-3.7c-0.7-1.6-1.1-3.8-1.1-6.7v-19h8V236c0,4.2,0.1,6.8,0.4,7.8c0.3,1,0.8,1.7,1.6,2.3
		c0.8,0.6,1.8,0.8,2.9,0.8c1.4,0,2.6-0.4,3.7-1.1c1.1-0.7,1.8-1.7,2.2-2.8s0.6-3.8,0.6-8.1v-12.7h8v30.1H256.1z"/>
	<path class="st2" d="M271.5,222.2h7.4v4.4c1-1.5,2.3-2.7,3.9-3.7c1.6-0.9,3.5-1.4,5.5-1.4c3.5,0,6.5,1.4,8.9,4.1
		c2.4,2.7,3.7,6.6,3.7,11.4c0,5-1.2,8.9-3.7,11.7c-2.5,2.8-5.4,4.2-8.9,4.2c-1.7,0-3.2-0.3-4.5-1c-1.3-0.7-2.8-1.8-4.3-3.4v15.2h-8
		V222.2z M279.4,236.8c0,3.4,0.7,5.9,2,7.5s3,2.4,4.9,2.4c1.9,0,3.4-0.7,4.6-2.2c1.2-1.5,1.8-3.9,1.8-7.3c0-3.2-0.6-5.5-1.9-7
		s-2.8-2.3-4.7-2.3c-1.9,0-3.6,0.8-4.8,2.3S279.4,233.8,279.4,236.8z"/>
	<path class="st2" d="M307,222.2h7.4v4.4c1-1.5,2.3-2.7,3.9-3.7c1.6-0.9,3.5-1.4,5.5-1.4c3.5,0,6.5,1.4,8.9,4.1
		c2.4,2.7,3.7,6.6,3.7,11.4c0,5-1.2,8.9-3.7,11.7c-2.5,2.8-5.4,4.2-8.9,4.2c-1.7,0-3.2-0.3-4.5-1c-1.3-0.7-2.8-1.8-4.3-3.4v15.2h-8
		V222.2z M314.8,236.8c0,3.4,0.7,5.9,2,7.5s3,2.4,4.9,2.4c1.9,0,3.4-0.7,4.6-2.2c1.2-1.5,1.8-3.9,1.8-7.3c0-3.2-0.6-5.5-1.9-7
		s-2.8-2.3-4.7-2.3c-1.9,0-3.6,0.8-4.8,2.3S314.8,233.8,314.8,236.8z"/>
	<path class="st2" d="M360,242.7l7.9,1.3c-1,2.9-2.6,5.1-4.8,6.6c-2.2,1.5-5,2.3-8.3,2.3c-5.2,0-9.1-1.7-11.6-5.1
		c-2-2.7-3-6.2-3-10.4c0-5,1.3-8.9,3.9-11.7c2.6-2.8,5.9-4.2,9.9-4.2c4.5,0,8,1.5,10.6,4.4c2.6,3,3.8,7.5,3.7,13.6h-19.9
		c0.1,2.4,0.7,4.2,1.9,5.5c1.2,1.3,2.8,2,4.6,2c1.2,0,2.3-0.3,3.1-1S359.6,244.2,360,242.7z M360.5,234.7c-0.1-2.3-0.7-4.1-1.8-5.3
		c-1.1-1.2-2.5-1.8-4.1-1.8c-1.7,0-3.2,0.6-4.3,1.9c-1.1,1.3-1.7,3-1.7,5.2H360.5z"/>
	<path class="st2" d="M409.6,252.3h-8v-30c-2.9,2.7-6.3,4.7-10.3,6v-7.2c2.1-0.7,4.3-2,6.8-3.9s4.1-4.1,5-6.6h6.5V252.3z"/>
</g>
<g>
</g>
<g>
</g>
<g>
</g>
<g>
</g>
<g>
</g>
<g>
</g>
<g>
</g>
<g>
</g>
<g>
</g>
<g>
</g>
<g>
</g>
</svg>
