<?xml version="1.0" encoding="UTF-8" standalone="no"?>
<svg
   xmlns:dc="http://purl.org/dc/elements/1.1/"
   xmlns:cc="http://creativecommons.org/ns#"
   xmlns:rdf="http://www.w3.org/1999/02/22-rdf-syntax-ns#"
   xmlns:svg="http://www.w3.org/2000/svg"
   xmlns="http://www.w3.org/2000/svg"
   id="svg2"
   version="1.1"
   viewBox="0 0 91 100"
   height="100px"
   width="91px">
  <metadata
     id="metadata27">
    <rdf:RDF>
      <cc:Work
         rdf:about="">
        <dc:format>image/svg+xml</dc:format>
        <dc:type
           rdf:resource="http://purl.org/dc/dcmitype/StillImage" />
        <dc:title></dc:title>
      </cc:Work>
    </rdf:RDF>
  </metadata>
  <defs
     id="defs8" />
  <path
     id="Shape"
     d="m 12.911868,33.508648 c -0.575474,0 -1.087006,-0.411756 -1.193035,-0.9994 C 11.696979,32.388476 9.5173025,20.339738 8.0846892,11.646653 6.6990203,3.2567101 8.9604449,1.3584158 9.9956497,0.9328802 14.8204,-2.1034181 20.32989,4.4230831 25.198348,10.187673 l 0.343179,0.405272 c 2.348839,2.780167 3.515164,4.067311 4.076878,4.654955 11.583933,-6.0798916 16.548707,0.513074 16.758338,0.802439 0.393361,0.543875 0.272763,1.304165 -0.269526,1.69809 -0.53986,0.393114 -1.295017,0.273964 -1.689998,-0.262617 -0.182112,-0.240731 -4.233089,-5.360938 -14.391693,0.305575 -1.007686,0.508212 -1.109668,0.559276 -6.335874,-5.627607 l -0.34318,-0.406083 C 19.298733,6.9665705 14.267589,1.0050186 11.212157,3.0402949 c -0.07123,0.047822 -0.147308,0.087539 -0.226628,0.1191499 -0.142452,0.1159079 -1.5953001,1.4930223 -0.505867,8.0908522 1.430186,8.674443 3.606625,20.704538 3.627669,20.825309 0.118979,0.660594 -0.318898,1.293629 -0.977739,1.413589 -0.07284,0.01297 -0.145689,0.01945 -0.217724,0.01945 l 0,0 z"
     style="fill:#ffffff;fill-rule:evenodd;stroke:none;stroke-width:1" />
  <path
     id="path13"
     d="m 45.353679,99.838715 c -8.374718,0 -14.176397,-8.485586 -14.418403,-8.846278 C 19.69776,74.039096 1.4760522,64.595447 1.2923216,64.502234 0.8155932,64.25826 0.55335213,63.729786 0.64966907,63.202121 1.2389021,59.953461 2.287057,56.01989 2.8851933,53.876001 l -1.264261,0.0097 C 1.2526617,53.880864 0.87872532,53.712271 0.64724091,53.408317 0.4157565,53.105173 0.33967421,52.710438 0.44246624,52.342451 3.0697333,42.927171 11.211347,32.486552 11.926035,31.582796 12.347725,30.93355 16.005341,25.43725 22.033648,20.661524 19.976189,17.287229 15.748766,10.617261 13.887987,8.8283904 12.274881,7.2778195 11.556955,7.3005147 11.429882,7.3215889 c -0.22501,0.035664 -0.425737,0.3315125 -0.55443,0.5730547 -0.208012,0.4579574 -0.443543,1.0674866 -0.486441,1.2741753 -0.03318,0.6419509 -0.5633324,1.1517831 -1.21246,1.1517831 -0.670981,0 -1.2140791,-0.543875 -1.2140791,-1.2158161 0,-0.4555258 0.2484815,-1.2263532 0.7389695,-2.2922187 0.7349225,-1.3827883 1.6786666,-1.7864393 2.3464096,-1.8926205 1.316062,-0.2066888 2.79562,0.4952424 4.520422,2.1544262 2.704968,2.6002255 8.846589,12.8276711 9.106402,13.2613131 0.320517,0.534148 0.185349,1.224732 -0.312423,1.598392 -6.437857,4.834896 -10.387661,10.952072 -10.426511,11.013674 -0.02266,0.03485 -0.04775,0.06971 -0.07365,0.102939 -0.07932,0.100507 -7.6033727,9.619538 -10.5964823,18.390435 l 1.2237917,-0.0097 c 0.3804115,-0.01945 0.7478727,0.176698 0.9793571,0.484705 0.2314845,0.307196 0.3035198,0.706795 0.1942527,1.076403 -0.016997,0.05674 -1.5888248,5.402276 -2.4581054,9.774351 3.7587888,2.057972 19.3872242,11.242247 29.7481742,26.874401 0.04775,0.06971 5.328189,7.766634 12.400604,7.766634 0.670981,0 1.214079,0.543875 1.214079,1.215816 0,0.671941 -0.543098,1.215005 -1.214079,1.215005 l 0,0 z"
     style="fill:#ffffff;fill-rule:evenodd;stroke:none;stroke-width:1" />
  <path
     id="path15"
     d="m 45.358535,86.615499 c -2.627267,0 -4.736527,-0.745701 -6.099533,-2.157669 -1.246455,-1.291196 -1.840544,-3.070341 -1.76608,-5.289611 0.151355,-4.532562 5.361373,-4.532562 7.865613,-4.532562 0.670981,0 1.214079,0.543875 1.214079,1.215816 0,0.671941 -0.543098,1.215816 -1.214079,1.215816 -4.955871,0 -5.400224,1.032633 -5.439074,2.182795 -0.05099,1.535171 0.314042,2.718565 1.085387,3.517762 1.129902,1.170425 2.99149,1.41602 4.353687,1.41602 0.670981,0 1.214079,0.543875 1.214079,1.215817 0,0.671941 -0.543907,1.215816 -1.214079,1.215816 l 0,0 z"
     style="fill:#ffffff;fill-rule:evenodd;stroke:none;stroke-width:1" />
  <path
     id="path17"
     d="m 31.214514,53.04114 c -2.373929,0 -4.304315,-1.933958 -4.304315,-4.310473 0,-2.376515 1.931195,-4.311284 4.304315,-4.311284 2.37312,0 4.304315,1.933958 4.304315,4.311284 0,2.377326 -1.931195,4.310473 -4.304315,4.310473 l 0,0 z m 0,-6.190125 c -1.034395,0 -1.876157,0.842966 -1.876157,1.879652 0,1.035875 0.841762,1.878841 1.876157,1.878841 1.034395,0 1.876157,-0.842966 1.876157,-1.878841 0,-1.036686 -0.840952,-1.879652 -1.876157,-1.879652 l 0,0 z"
     style="fill:#ffffff;fill-rule:evenodd;stroke:none;stroke-width:1" />
  <path
     id="path19"
     d="m 40.6989,89.665576 c -0.952648,0 -1.694855,-0.102128 -1.906105,-0.135361 -7.251289,-1.527065 -8.847398,-7.011206 -7.943314,-11.663729 0.06394,-0.672752 0.608658,-5.474415 4.219329,-19.369573 0.169162,-0.649246 0.83043,-1.039928 1.481177,-0.870525 0.649127,0.168594 1.037633,0.83324 0.86928,1.483296 -3.75717,14.459297 -4.151341,18.980512 -4.155388,19.024281 -0.004,0.04701 -0.01052,0.09645 -0.02023,0.143466 -0.437878,2.192522 -0.731685,7.446469 5.983791,8.86249 1.37029,0.203446 4.49533,0.188857 4.98258,-1.240133 0.216916,-0.635466 0.905703,-0.974274 1.541071,-0.757858 0.634559,0.217225 0.973692,0.90862 0.756776,1.543275 -0.861996,2.524845 -3.801686,2.980371 -5.808963,2.980371 l 0,0 z"
     style="fill:#ffffff;fill-rule:evenodd;stroke:none;stroke-width:1" />
  <path
     id="path21"
     d="m 2.4027992,62.257027 c -0.2444346,0 -0.4912973,-0.07376 -0.7057846,-0.226952 C 1.1522978,61.639392 1.026843,60.879913 1.416967,60.333606 15.621692,40.472843 31.300309,44.298612 32.447209,44.611482 c 2.290562,0.494432 6.440285,2.868515 6.020213,8.408584 -0.05018,0.66951 -0.624846,1.167994 -1.302302,1.120172 -0.668553,-0.05025 -1.169563,-0.634656 -1.118571,-1.304165 0.358558,-4.728715 -3.67866,-5.751621 -4.140819,-5.852939 -0.02509,-0.0057 -0.05585,-0.01297 -0.08094,-0.02026 -0.604611,-0.168593 -15.038392,-3.944107 -28.4337314,14.787567 -0.2371501,0.329891 -0.6094677,0.50659 -0.9882604,0.50659 l 0,0 z"
     style="fill:#ffffff;fill-rule:evenodd;stroke:none;stroke-width:1" />
  <path
     id="path23"
     d="m 37.473496,53.793325 c -0.106029,0 -0.213678,-0.01378 -0.320517,-0.04296 -0.591661,-0.162108 -0.970453,-0.740837 -0.881421,-1.348745 0.385268,-2.647237 -2.647502,-4.713314 -2.678258,-4.733578 -0.556049,-0.37285 -0.708213,-1.126656 -0.337514,-1.68431 0.370698,-0.558465 1.120999,-0.711658 1.678666,-0.34205 0.09146,0.06079 1.247264,0.838913 2.259806,2.152805 0.02023,-1.138004 -0.142452,-2.351388 -0.675028,-3.435896 -0.757585,-1.543276 -2.194245,-2.619679 -4.270321,-3.200028 -0.238769,-0.05674 -6.885447,-1.562729 -8.632102,4.616048 -0.182921,0.646004 -0.853093,1.021286 -1.498983,0.838914 -0.64508,-0.183183 -1.019826,-0.855124 -0.837714,-1.501128 1.910151,-6.755885 8.409521,-7.080103 11.582314,-6.306033 2.815854,0.786228 4.768093,2.29465 5.842149,4.492035 2.084168,4.263462 -0.01781,9.51822 -0.108458,9.740309 -0.189397,0.465252 -0.640225,0.754616 -1.122619,0.754616 l 0,0 z"
     style="fill:#ffffff;fill-rule:evenodd;stroke:none;stroke-width:1" />
  <path
     id="path25"
     d="m 45.420048,34.837941 c -0.670981,0 -1.214079,-0.543875 -1.214079,-1.215816 l 0,-16.78718 c 0,-0.671941 0.543098,-1.215816 1.214079,-1.215816 0.670982,0 1.21408,0.543875 1.21408,1.215816 l 0,16.78718 c 0,0.671941 -0.543098,1.215816 -1.21408,1.215816 l 0,0 z"
     style="fill:#ffffff;fill-rule:evenodd;stroke:none;stroke-width:1" />
  <path
     id="path27"
     d="m 33.834497,68.832161 c -0.50182,0 -0.970454,-0.313681 -1.146091,-0.813786 -1.724802,-4.928109 -3.937663,-6.571081 -7.603373,-9.29451 l -1.056248,-0.787849 c -4.722768,-3.544509 -4.694439,-10.582464 -4.690392,-10.879933 0.0081,-0.671941 0.583567,-1.188258 1.228648,-1.201227 0.670171,0.0081 1.206794,0.557655 1.19951,1.227975 l 0,0 c 0,0.06079 -0.0089,6.110692 3.719129,8.90869 l 1.046536,0.780554 c 3.759598,2.792325 6.475897,4.810579 8.448371,10.44305 0.221772,0.633846 -0.111695,1.327672 -0.743826,1.549761 -0.133548,0.04539 -0.269525,0.06727 -0.402264,0.06727 l 0,0 z"
     style="fill:#ffffff;fill-rule:evenodd;stroke:none;stroke-width:1" />
  <path
     id="path29"
     d="m 45.2865,94.538567 c -0.963979,0 -6.108437,-0.132118 -8.902437,-2.870136 -1.211651,-1.187447 -1.825975,-2.678849 -1.825975,-4.432056 0,-0.671941 0.543098,-1.215816 1.214079,-1.215816 0.670981,0 1.214079,0.543875 1.214079,1.215816 0,1.088561 0.357748,1.968812 1.09348,2.691007 2.289754,2.24926 7.254527,2.179553 7.306328,2.178743 l 0.02428,0 c 0.65884,0 1.200319,0.527664 1.214079,1.190689 0.01376,0.67113 -0.517198,1.225543 -1.18656,1.240132 -0.01943,0 -0.07123,0.0016 -0.151355,0.0016 l 0,0 z"
     style="fill:#ffffff;fill-rule:evenodd;stroke:none;stroke-width:1" />
  <path
     id="path31"
     d="m 45.526078,86.615499 c -2.627267,0 -4.735718,-0.745701 -6.099533,-2.157669 -1.246455,-1.290386 -1.841353,-3.070341 -1.767699,-5.2888 0.151355,-4.533373 5.362182,-4.533373 7.867232,-4.533373 0.670981,0 1.214079,0.543875 1.214079,1.215816 0,0.671941 -0.543098,1.215816 -1.214079,1.215816 -4.957489,0 -5.401842,1.032633 -5.440693,2.182795 -0.05018,1.535171 0.314851,2.718565 1.086196,3.517762 1.130712,1.170425 2.991491,1.41602 4.353688,1.41602 0.670981,0 1.214079,0.543875 1.214079,1.215817 0,0.671941 -0.542289,1.215816 -1.21327,1.215816 l 0,0 z"
     style="fill:#ffffff;fill-rule:evenodd;stroke:none;stroke-width:1" />
  <path
     id="path33"
     d="m 78.089297,33.508648 c -0.07203,0 -0.14488,-0.0065 -0.218534,-0.01945 -0.65965,-0.11996 -1.097527,-0.752185 -0.977738,-1.413589 0.02185,-0.11996 2.197483,-12.150866 3.627668,-20.824499 1.089434,-6.5986429 -0.362605,-7.9757573 -0.505866,-8.0908546 -0.07932,-0.031611 -0.155403,-0.071328 -0.226628,-0.11915 -3.053814,-2.0377079 -8.087386,3.9262757 -12.132697,8.7165916 l -0.34318,0.406893 c -5.227824,6.186883 -5.330616,6.135009 -6.291358,5.651114 -10.33505,-5.762969 -14.391693,-0.392304 -14.431353,-0.337187 -0.394171,0.543065 -1.152565,0.664647 -1.695664,0.269912 -0.542288,-0.393925 -0.663696,-1.154215 -0.269525,-1.69809 0.209631,-0.288554 5.160645,-6.8685514 16.758338,-0.802439 0.560904,-0.587644 1.72723,-1.873978 4.076877,-4.654955 l 0.34318,-0.406082 c 4.867648,-5.7645904 10.378757,-12.2910916 15.202698,-9.2547934 1.036014,0.4255357 3.296629,2.32383 1.91177,10.7145834 -1.433423,8.693085 -3.61229,20.741823 -3.634143,20.862595 -0.106839,0.587644 -0.618371,0.9994 -1.193845,0.9994 l 0,0 z"
     style="fill:#ffffff;fill-rule:evenodd;stroke:none;stroke-width:1" />
  <path
     id="path35"
     d="m 45.647486,99.838715 c -0.670981,0 -1.214079,-0.543875 -1.214079,-1.215816 0,-0.671941 0.543098,-1.215816 1.214079,-1.215816 7.096697,0 12.35285,-7.695306 12.40465,-7.773118 10.356904,-15.625669 25.985339,-24.809134 29.744128,-26.867106 -0.87009,-4.374506 -2.441108,-9.717613 -2.458105,-9.774351 -0.109268,-0.369608 -0.03642,-0.768396 0.194252,-1.076403 0.231485,-0.308007 0.574664,-0.510643 0.979357,-0.484705 l 1.223792,0.0097 C 84.741641,42.670229 77.217589,33.151198 77.138269,33.050691 c -0.0259,-0.03323 -0.05099,-0.06728 -0.07365,-0.102939 -0.03885,-0.0616 -3.989464,-6.178778 -10.426512,-11.013674 -0.497772,-0.37366 -0.632939,-1.064244 -0.312422,-1.598392 0.259812,-0.433642 6.401434,-10.6610876 9.106402,-13.2613131 1.725611,-1.6591838 3.20274,-2.3643572 4.520421,-2.1544262 0.667743,0.1061812 1.611487,0.5098322 2.314844,1.829398 0.522054,1.1298985 0.770536,1.900726 0.770536,2.3562518 0,0.671941 -0.543098,1.2158165 -1.214079,1.2158165 -0.649128,0 -1.179276,-0.5098326 -1.212461,-1.1517835 -0.0429,-0.2050677 -0.283285,-0.8283761 -0.518007,-1.3382084 -0.09713,-0.1783197 -0.297854,-0.4733578 -0.522863,-0.5090217 -0.125455,-0.021074 -0.84419,-0.042959 -2.458106,1.5068015 -1.861588,1.7896821 -6.088201,8.4596491 -8.14647,11.8331341 6.029116,4.775726 9.686732,10.272025 10.108422,10.921271 0.713879,0.903757 8.856302,11.344376 11.483569,20.759656 0.101983,0.367987 0.02671,0.762722 -0.204774,1.065865 -0.232294,0.303955 -0.579521,0.465253 -0.973692,0.477411 l -1.264261,-0.0097 c 0.598136,2.14389 1.646291,6.07746 2.235524,9.326121 0.09632,0.527664 -0.165924,1.056139 -0.642652,1.300113 -0.182921,0.09321 -18.404629,9.536862 -29.638098,26.483718 -0.246054,0.367177 -6.047733,8.851952 -14.42245,8.851952 l 0,0 z"
     style="fill:#ffffff;fill-rule:evenodd;stroke:none;stroke-width:1" />
  <path
     id="path37"
     d="m 45.64263,86.615499 c -0.670981,0 -1.214079,-0.543875 -1.214079,-1.215816 0,-0.671942 0.543098,-1.215817 1.214079,-1.215817 1.362196,0 3.222975,-0.245595 4.353687,-1.41602 0.771345,-0.799197 1.136378,-1.982591 1.085387,-3.517762 -0.03804,-1.150162 -0.483204,-2.182795 -5.439074,-2.182795 -0.670981,0 -1.214079,-0.543875 -1.214079,-1.215816 0,-0.671941 0.543098,-1.215816 1.214079,-1.215816 2.50424,0 7.714258,0 7.865613,4.532562 0.07446,2.21927 -0.519626,3.998415 -1.76608,5.289611 -1.363006,1.411968 -3.472266,2.157669 -6.099533,2.157669 l 0,0 z"
     style="fill:#ffffff;fill-rule:evenodd;stroke:none;stroke-width:1" />
  <path
     id="path39"
     d="m 59.786651,53.04114 c -2.37393,0 -4.304315,-1.933958 -4.304315,-4.310473 0,-2.376515 1.931195,-4.311284 4.304315,-4.311284 2.37312,0 4.304315,1.933958 4.304315,4.311284 0,2.377326 -1.930386,4.310473 -4.304315,4.310473 l 0,0 z m 0,-6.190125 c -1.034396,0 -1.876157,0.842966 -1.876157,1.879652 0,1.035875 0.841761,1.878841 1.876157,1.878841 1.034395,0 1.876156,-0.842966 1.876156,-1.878841 0,-1.036686 -0.841761,-1.879652 -1.876156,-1.879652 l 0,0 z"
     style="fill:#ffffff;fill-rule:evenodd;stroke:none;stroke-width:1" />
  <path
     id="path41"
     d="m 50.298218,89.661524 c -2.026703,0 -4.946158,-0.4612 -5.804107,-2.977129 -0.216916,-0.635467 0.121408,-1.32605 0.756776,-1.543276 0.635368,-0.216415 1.324155,0.121582 1.541071,0.757859 0.53986,1.581371 4.119775,1.37063 5.04895,1.228785 6.649916,-1.403863 6.356108,-6.65781 5.918231,-8.850332 -0.0097,-0.04863 -0.017,-0.09726 -0.02023,-0.145897 -0.0032,-0.04134 -0.398218,-4.562553 -4.155388,-19.02185 -0.168352,-0.650056 0.220153,-1.313892 0.869281,-1.483296 0.649937,-0.167782 1.312014,0.220469 1.481176,0.870525 3.610671,13.895968 4.156198,18.697631 4.21933,19.369573 0.904084,4.652523 -0.691216,10.136664 -7.877755,11.651571 -0.234722,0.03728 -1.003639,0.143467 -1.97733,0.143467 l 0,0 z"
     style="fill:#ffffff;fill-rule:evenodd;stroke:none;stroke-width:1" />
  <path
     id="path43"
     d="m 88.598366,62.257027 c -0.378793,0 -0.751111,-0.176699 -0.988261,-0.507401 C 74.1573,42.938519 59.32611,46.921532 59.176374,46.96206 c -0.02914,0.0081 -0.05747,0.0154 -0.0866,0.02107 -0.454875,0.0997 -4.492902,1.122603 -4.134344,5.851318 0.05099,0.669509 -0.450018,1.253911 -1.118571,1.304165 -0.670172,0.04944 -1.25212,-0.450662 -1.302302,-1.120172 -0.420881,-5.539258 3.728841,-7.914153 6.020213,-8.408584 1.1469,-0.312871 16.825517,-4.139449 31.030242,15.722124 0.390124,0.546306 0.264669,1.305786 -0.280047,1.696469 -0.214488,0.154813 -0.46216,0.228573 -0.706594,0.228573 l 0,0 z"
     style="fill:#ffffff;fill-rule:evenodd;stroke:none;stroke-width:1" />
  <path
     id="path45"
     d="m 53.527668,53.793325 c -0.482394,0 -0.933222,-0.289364 -1.123427,-0.755427 -0.09065,-0.221278 -2.191818,-5.476036 -0.108458,-9.740308 1.074864,-2.197385 3.027104,-3.705808 5.803298,-4.481499 3.211644,-0.782985 9.711823,-0.460389 11.621165,6.295496 0.182921,0.646004 -0.192634,1.317945 -0.837715,1.501128 -0.645081,0.182373 -1.316062,-0.192099 -1.498983,-0.838913 -1.756368,-6.216873 -8.389286,-4.674408 -8.670953,-4.605512 -2.037224,0.569813 -3.473885,1.646215 -4.23147,3.189491 -0.532576,1.085319 -0.696072,2.297893 -0.675028,3.436707 1.012542,-1.313892 2.168345,-2.092825 2.259806,-2.152805 0.559286,-0.370418 1.312824,-0.216415 1.681904,0.344482 0.36908,0.559275 0.216106,1.31227 -0.340751,1.682689 -0.03885,0.02675 -3.062717,2.091204 -2.678259,4.733578 0.08822,0.607908 -0.28976,1.186636 -0.881421,1.348745 -0.106839,0.02837 -0.214487,0.04215 -0.319708,0.04215 l 0,0 z"
     style="fill:#ffffff;fill-rule:evenodd;stroke:none;stroke-width:1" />
  <path
     id="path47"
     d="m 45.581116,34.837941 c -0.670981,0 -1.214079,-0.543875 -1.214079,-1.215816 l 0,-16.78718 c 0,-0.671941 0.543098,-1.215816 1.214079,-1.215816 0.670981,0 1.214079,0.543875 1.214079,1.215816 l 0,16.78718 c 0,0.671941 -0.543098,1.215816 -1.214079,1.215816 l 0,0 z"
     style="fill:#ffffff;fill-rule:evenodd;stroke:none;stroke-width:1" />
  <path
     id="path49"
     d="m 57.167477,68.832161 c -0.133548,0 -0.268716,-0.02188 -0.401455,-0.0689 -0.63294,-0.22209 -0.965598,-0.915915 -0.743826,-1.549761 1.971665,-5.632471 4.687964,-7.649915 8.448372,-10.44305 l 1.046536,-0.779744 c 3.728032,-2.798808 3.719938,-8.847899 3.719129,-8.90869 -0.0057,-0.67032 0.531766,-1.219869 1.201938,-1.227164 l 0.01295,0 c 0.663697,0 1.205985,0.534149 1.214079,1.200416 0.0032,0.29747 0.03238,7.336235 -4.691201,10.880744 l -1.056249,0.787849 c -3.665709,2.722618 -5.878571,4.366401 -7.603372,9.29451 -0.176447,0.500105 -0.645891,0.813786 -1.146901,0.813786 l 0,0 z"
     style="fill:#ffffff;fill-rule:evenodd;stroke:none;stroke-width:1" />
  <path
     id="path51"
     d="m 45.714665,94.538567 c -0.08013,0 -0.131121,-8.1e-4 -0.150546,-0.0016 -0.670172,-0.01459 -1.200319,-0.569812 -1.18656,-1.240132 0.01376,-0.663025 0.555239,-1.190689 1.214079,-1.190689 0.01214,0 -0.05342,0 0.09227,8.1e-4 0.607849,0 5.094276,-0.07376 7.23753,-2.179553 0.735732,-0.722195 1.093481,-1.602446 1.093481,-2.691007 0,-0.671941 0.543098,-1.215816 1.214079,-1.215816 0.670981,0 1.214079,0.543875 1.214079,1.215816 0,1.754018 -0.614324,3.244609 -1.825975,4.432056 -2.794001,2.737207 -7.937649,2.870136 -8.902437,2.870136 l 0,0 z"
     style="fill:#ffffff;fill-rule:evenodd;stroke:none;stroke-width:1" />
  <path
     id="path53"
     d="m 45.475087,86.615499 c -0.670981,0 -1.214079,-0.543875 -1.214079,-1.215816 0,-0.671942 0.543098,-1.215817 1.214079,-1.215817 1.362196,0 3.222975,-0.245595 4.353687,-1.41602 0.772154,-0.799197 1.137188,-1.982591 1.086196,-3.517762 -0.03804,-1.149351 -0.483203,-2.181984 -5.440693,-2.181984 -0.670981,0 -1.214079,-0.543875 -1.214079,-1.215817 0,-0.671941 0.543098,-1.215816 1.214079,-1.215816 2.504241,0 7.715878,0 7.867233,4.532563 0.07365,2.21927 -0.521245,3.999225 -1.7677,5.289611 -1.363006,1.411157 -3.471456,2.156858 -6.098723,2.156858 l 0,0 z"
     style="fill:#ffffff;fill-rule:evenodd;stroke:none;stroke-width:1" />
</svg>
