<?xml version="1.0" encoding="utf-8"?>
<!-- Generator: Adobe Illustrator 23.0.1, SVG Export Plug-In . SVG Version: 6.00 Build 0)  -->
<svg version="1.1" id="Ebene_1" xmlns="http://www.w3.org/2000/svg" xmlns:xlink="http://www.w3.org/1999/xlink" x="0px" y="0px"
	 viewBox="0 0 500 500" style="enable-background:new 0 0 500 500;" xml:space="preserve">
<style type="text/css">
	.st0{fill:#776724;}
	.st1{fill:none;}
	.st2{fill:#FFFFFF;}
</style>
<circle class="st0" cx="250" cy="250" r="250"/>
<g>
	<rect x="21" y="210.8" class="st1" width="461" height="62.1"/>
	<path class="st2" d="M62.4,252.3v-41.5h13.5c5.1,0,8.4,0.2,10,0.6c2.4,0.6,4.4,2,6,4.1c1.6,2.1,2.4,4.8,2.4,8.1
		c0,2.5-0.5,4.7-1.4,6.4c-0.9,1.7-2.1,3.1-3.5,4.1c-1.4,1-2.9,1.6-4.3,2c-2,0.4-4.9,0.6-8.7,0.6h-5.5v15.7H62.4z M70.7,217.8v11.8
		h4.6c3.3,0,5.5-0.2,6.6-0.7c1.1-0.4,2-1.1,2.6-2c0.6-0.9,0.9-2,0.9-3.2c0-1.5-0.4-2.8-1.3-3.7c-0.9-1-2-1.6-3.4-1.8
		c-1-0.2-3-0.3-6-0.3H70.7z"/>
	<path class="st2" d="M97.5,222.2h4.4V220c0-2.5,0.3-4.4,0.8-5.7s1.5-2.3,3-3c1.4-0.8,3.3-1.2,5.5-1.2c2.3,0,4.5,0.3,6.7,1l-1.1,5.6
		c-1.3-0.3-2.5-0.5-3.7-0.5c-1.2,0-2,0.3-2.5,0.8c-0.5,0.5-0.8,1.6-0.8,3.1v2.1h5.9v6.3h-5.9v23.8h-8v-23.8h-4.4V222.2z"/>
	<path class="st2" d="M126.3,231.4l-7.2-1.3c0.8-2.9,2.2-5.1,4.2-6.5c2-1.4,4.9-2.1,8.8-2.1c3.5,0,6.2,0.4,7.9,1.3
		c1.7,0.8,3,1.9,3.7,3.2c0.7,1.3,1.1,3.7,1.1,7.1l-0.1,9.3c0,2.6,0.1,4.6,0.4,5.8c0.3,1.3,0.7,2.6,1.4,4h-7.9
		c-0.2-0.5-0.5-1.3-0.8-2.4c-0.1-0.5-0.2-0.8-0.3-0.9c-1.4,1.3-2.8,2.3-4.4,3c-1.5,0.7-3.2,1-5,1c-3.1,0-5.5-0.8-7.3-2.5
		s-2.7-3.8-2.7-6.4c0-1.7,0.4-3.2,1.2-4.5c0.8-1.3,1.9-2.4,3.4-3.1c1.5-0.7,3.6-1.3,6.3-1.9c3.7-0.7,6.3-1.3,7.7-2v-0.8
		c0-1.5-0.4-2.6-1.1-3.3c-0.8-0.7-2.2-1-4.3-1c-1.4,0-2.5,0.3-3.3,0.8C127.4,229,126.7,230,126.3,231.4z M136.9,237.9
		c-1,0.3-2.6,0.7-4.8,1.2c-2.2,0.5-3.7,0.9-4.3,1.4c-1,0.7-1.6,1.7-1.6,2.8c0,1.1,0.4,2.1,1.2,2.9c0.8,0.8,1.9,1.2,3.2,1.2
		c1.4,0,2.8-0.5,4.1-1.4c1-0.7,1.6-1.6,1.9-2.6c0.2-0.7,0.3-2,0.3-3.9V237.9z"/>
	<path class="st2" d="M180.1,252.3h-7.4v-4.4c-1.2,1.7-2.7,3-4.3,3.8s-3.4,1.3-5.1,1.3c-3.5,0-6.4-1.4-8.9-4.2
		c-2.5-2.8-3.7-6.7-3.7-11.7c0-5.1,1.2-9,3.6-11.6c2.4-2.7,5.4-4,9.1-4c3.4,0,6.3,1.4,8.7,4.2v-15h8V252.3z M158.9,236.6
		c0,3.2,0.4,5.5,1.3,7c1.3,2.1,3.1,3.1,5.4,3.1c1.8,0,3.4-0.8,4.7-2.3c1.3-1.6,1.9-3.9,1.9-7c0-3.5-0.6-5.9-1.9-7.5
		c-1.2-1.5-2.8-2.3-4.8-2.3c-1.9,0-3.5,0.8-4.7,2.3S158.9,233.6,158.9,236.6z"/>
	<path class="st2" d="M188,218.1v-7.4h8v7.4H188z M188,252.3v-30.1h8v30.1H188z"/>
	<path class="st2" d="M203.4,254.3l9.1,1.1c0.2,1.1,0.5,1.8,1,2.2c0.8,0.6,1.9,0.8,3.6,0.8c2.1,0,3.6-0.3,4.7-0.9
		c0.7-0.4,1.2-1.1,1.6-2c0.2-0.7,0.4-1.9,0.4-3.7v-4.4c-2.4,3.2-5.4,4.9-9,4.9c-4,0-7.2-1.7-9.6-5.1c-1.9-2.7-2.8-6.1-2.8-10.1
		c0-5,1.2-8.9,3.6-11.6c2.4-2.7,5.4-4,9-4c3.7,0,6.8,1.6,9.2,4.9v-4.2h7.4v27c0,3.5-0.3,6.2-0.9,8c-0.6,1.8-1.4,3.1-2.5,4.1
		c-1.1,1-2.5,1.8-4.2,2.4c-1.8,0.6-4,0.8-6.7,0.8c-5.1,0-8.7-0.9-10.8-2.6c-2.1-1.7-3.2-4-3.2-6.6
		C203.3,255,203.4,254.7,203.4,254.3z M210.5,236.6c0,3.2,0.6,5.5,1.9,7c1.2,1.5,2.8,2.2,4.6,2.2c1.9,0,3.6-0.8,4.9-2.3
		c1.3-1.5,2-3.8,2-6.8c0-3.1-0.6-5.4-1.9-6.9c-1.3-1.5-2.9-2.3-4.9-2.3c-1.9,0-3.5,0.7-4.7,2.2C211.1,231.3,210.5,233.6,210.5,236.6
		z"/>
	<path class="st2" d="M247.2,252.3h-8v-30.1h7.4v4.3c1.3-2,2.4-3.4,3.4-4c1-0.6,2.2-1,3.4-1c1.8,0,3.6,0.5,5.2,1.5l-2.5,6.9
		c-1.3-0.9-2.6-1.3-3.7-1.3c-1.1,0-2.1,0.3-2.8,0.9c-0.8,0.6-1.4,1.7-1.8,3.3c-0.4,1.6-0.7,5-0.7,10.1V252.3z"/>
	<path class="st2" d="M281.9,252.3v-4.5c-1.1,1.6-2.5,2.9-4.3,3.8c-1.8,0.9-3.7,1.4-5.7,1.4c-2,0-3.8-0.4-5.4-1.3
		c-1.6-0.9-2.8-2.1-3.5-3.7c-0.7-1.6-1.1-3.8-1.1-6.7v-19h8V236c0,4.2,0.1,6.8,0.4,7.8c0.3,1,0.8,1.7,1.6,2.3
		c0.8,0.6,1.8,0.8,2.9,0.8c1.4,0,2.6-0.4,3.7-1.1c1.1-0.7,1.8-1.7,2.2-2.8s0.6-3.8,0.6-8.1v-12.7h8v30.1H281.9z"/>
	<path class="st2" d="M297.3,222.2h7.4v4.4c1-1.5,2.3-2.7,3.9-3.7c1.6-0.9,3.5-1.4,5.5-1.4c3.5,0,6.5,1.4,8.9,4.1
		c2.4,2.7,3.7,6.6,3.7,11.4c0,5-1.2,8.9-3.7,11.7c-2.5,2.8-5.4,4.2-8.9,4.2c-1.7,0-3.2-0.3-4.5-1c-1.3-0.7-2.8-1.8-4.3-3.4v15.2h-8
		V222.2z M305.2,236.8c0,3.4,0.7,5.9,2,7.5s3,2.4,4.9,2.4c1.9,0,3.4-0.7,4.6-2.2c1.2-1.5,1.8-3.9,1.8-7.3c0-3.2-0.6-5.5-1.9-7
		s-2.8-2.3-4.7-2.3c-1.9,0-3.6,0.8-4.8,2.3S305.2,233.8,305.2,236.8z"/>
	<path class="st2" d="M332.7,222.2h7.4v4.4c1-1.5,2.3-2.7,3.9-3.7c1.6-0.9,3.5-1.4,5.5-1.4c3.5,0,6.5,1.4,8.9,4.1
		c2.4,2.7,3.7,6.6,3.7,11.4c0,5-1.2,8.9-3.7,11.7c-2.5,2.8-5.4,4.2-8.9,4.2c-1.7,0-3.2-0.3-4.5-1c-1.3-0.7-2.8-1.8-4.3-3.4v15.2h-8
		V222.2z M340.6,236.8c0,3.4,0.7,5.9,2,7.5s3,2.4,4.9,2.4c1.9,0,3.4-0.7,4.6-2.2c1.2-1.5,1.8-3.9,1.8-7.3c0-3.2-0.6-5.5-1.9-7
		s-2.8-2.3-4.7-2.3c-1.9,0-3.6,0.8-4.8,2.3S340.6,233.8,340.6,236.8z"/>
	<path class="st2" d="M385.8,242.7l7.9,1.3c-1,2.9-2.6,5.1-4.8,6.6c-2.2,1.5-5,2.3-8.3,2.3c-5.2,0-9.1-1.7-11.6-5.1
		c-2-2.7-3-6.2-3-10.4c0-5,1.3-8.9,3.9-11.7c2.6-2.8,5.9-4.2,9.9-4.2c4.5,0,8,1.5,10.6,4.4c2.6,3,3.8,7.5,3.7,13.6h-19.9
		c0.1,2.4,0.7,4.2,1.9,5.5c1.2,1.3,2.8,2,4.6,2c1.2,0,2.3-0.3,3.1-1S385.4,244.2,385.8,242.7z M386.3,234.7
		c-0.1-2.3-0.7-4.1-1.8-5.3c-1.1-1.2-2.5-1.8-4.1-1.8c-1.7,0-3.2,0.6-4.3,1.9c-1.1,1.3-1.7,3-1.7,5.2H386.3z"/>
	<path class="st2" d="M441.9,244.9v7.4H414c0.3-2.8,1.2-5.4,2.7-7.9c1.5-2.5,4.5-5.8,8.9-10c3.6-3.3,5.8-5.6,6.6-6.8
		c1.1-1.6,1.6-3.3,1.6-4.9c0-1.8-0.5-3.1-1.4-4.1c-1-1-2.3-1.4-4-1.4c-1.7,0-3,0.5-4,1.5c-1,1-1.5,2.7-1.7,5l-7.9-0.8
		c0.5-4.4,2-7.5,4.4-9.4c2.5-1.9,5.6-2.9,9.3-2.9c4.1,0,7.3,1.1,9.7,3.3s3.5,5,3.5,8.2c0,1.9-0.3,3.6-1,5.3
		c-0.7,1.7-1.7,3.5-3.2,5.3c-1,1.2-2.7,3-5.2,5.3c-2.5,2.3-4.1,3.8-4.8,4.6c-0.7,0.8-1.2,1.5-1.6,2.2H441.9z"/>
</g>
<g>
</g>
<g>
</g>
<g>
</g>
<g>
</g>
<g>
</g>
<g>
</g>
<g>
</g>
<g>
</g>
<g>
</g>
<g>
</g>
<g>
</g>
</svg>
