<?xml version="1.0" encoding="UTF-8" standalone="no"?>
<svg
   xmlns:dc="http://purl.org/dc/elements/1.1/"
   xmlns:cc="http://creativecommons.org/ns#"
   xmlns:rdf="http://www.w3.org/1999/02/22-rdf-syntax-ns#"
   xmlns:svg="http://www.w3.org/2000/svg"
   xmlns="http://www.w3.org/2000/svg"
   viewBox="0 0 100 100"
   height="100"
   width="100"
   version="1.1"
   id="svg2">
  <metadata
     id="metadata8">
    <rdf:RDF>
      <cc:Work
         rdf:about="">
        <dc:format>image/svg+xml</dc:format>
        <dc:type
           rdf:resource="http://purl.org/dc/dcmitype/StillImage" />
        <dc:title></dc:title>
      </cc:Work>
    </rdf:RDF>
  </metadata>
  <defs
     id="defs6" />
  <path
     id="path4358"
     d="m 50,7.3493515 c -0.5636,4.118e-4 -1.126885,0.00798 -1.690479,0.00984 -11.576,0.027049 -23.081424,6.0875115 -29.295077,15.9542665 -0.386979,0.646297 -0.97488,1.186374 -1.716063,0.619906 -3.157598,-1.178351 -6.733595,-2.0181 -9.9224617,-0.434919 -4.1027609,1.831599 -6.45780755,6.73518 -5.071437,11.075689 0.7337569,2.840843 2.8250057,5.325645 5.3823746,6.775691 1.206122,2.111631 -0.4535637,4.358272 -0.852127,6.429331 C 3.5927407,57.812954 0.13525365,68.042266 -8.5e-7,78.69977 1.3834747,78.077473 2.7109281,77.3257 4.1523982,76.840044 c 1.5184247,3.140233 0.8693038,6.759518 1.8065888,10.034638 0.2672719,1.476713 0.6252572,2.939422 1.1138663,4.359034 1.9132236,-1.585988 3.0095767,-4.285659 5.5339077,-5.041918 2.271641,0.383984 3.529295,2.601593 5.53194,3.548236 3.575968,2.335359 7.851212,3.026575 12.051798,2.735466 6.600985,0.09068 13.205347,0.16122 19.809501,0.175149 6.604154,-0.01393 13.208517,-0.08447 19.809502,-0.175149 4.200586,0.291109 8.475829,-0.400107 12.051797,-2.735466 2.002643,-0.946643 3.260299,-3.164252 5.53194,-3.548236 2.524331,0.756259 3.620686,3.45593 5.533908,5.041918 0.488609,-1.419612 0.846595,-2.882321 1.113867,-4.359034 0.937284,-3.27512 0.288163,-6.894405 1.806588,-10.034638 C 97.289071,77.3257 98.616531,78.077473 100,78.69977 99.864751,68.042266 96.40726,57.812954 93.165271,47.779156 c -0.398565,-2.071059 -2.058251,-4.3177 -0.852128,-6.429331 2.557368,-1.450046 4.648618,-3.934848 5.382378,-6.775691 1.38637,-4.340513 -0.968679,-9.244093 -5.07144,-11.075693 -3.188867,-1.58318 -6.764865,-0.743433 -9.922463,0.434919 -0.741183,0.566467 -1.329082,0.02639 -1.716061,-0.619906 C 74.771903,13.446703 63.26648,7.3862352 51.690479,7.3591912 51.126885,7.3573312 50.563599,7.3497612 50,7.3493512 Z M 50,9.98642 c 6.482442,0.00347 13.007537,1.632213 18.573622,4.994687 5.830602,3.306879 10.142642,8.799127 12.758296,14.903373 0.70321,-1.07139 1.4241,-2.155248 2.393041,-3.009012 2.918719,-2.806059 8.090871,-2.159557 10.414452,1.078442 0.976309,0.912393 0.02492,2.328228 -1.100091,2.467824 -2.375354,-0.08076 -4.55392,1.532086 -5.415829,3.707639 -0.848258,1.381694 -0.505393,3.099267 -1.23588,4.508601 -0.808889,0.654785 0.107445,1.503709 0.527414,2.103751 4.264894,7.828068 6.750225,16.490563 8.615735,25.170229 0.226019,2.430489 1.702082,5.063709 0.318811,7.407407 -1.808113,0.01685 -3.400889,-0.952965 -4.980912,-1.702286 0.539268,2.54785 1.016087,5.118625 1.19652,7.720313 0.05577,1.449152 0.491929,3.69512 -1.190614,4.408235 -1.679364,0.29146 -2.380248,-1.551799 -3.32389,-2.532768 -3.192077,3.278201 -6.862766,6.495504 -11.242964,8.206401 C 67.54146,89.56915 58.771209,89.602411 50,89.592436 c -8.771209,0.01 -17.54146,-0.02328 -26.307711,-0.17318 -4.380197,-1.710897 -8.050888,-4.9282 -11.242965,-8.206401 C 11.505683,82.193824 10.8048,84.037083 9.1254378,83.745623 7.4428935,83.032508 7.8790448,80.78654 7.9348198,79.337388 8.1152548,76.7357 8.5920728,74.164925 9.1313408,71.617075 7.5513172,72.366396 5.9585424,73.336223 4.1504302,73.319361 2.7671587,70.975663 4.2432172,68.342443 4.46924,65.911954 6.3347501,57.232288 8.8200808,48.569793 13.084977,40.741725 13.504943,40.141683 14.421279,39.292759 13.61239,38.637974 12.881903,37.22864 13.224766,35.511067 12.37651,34.129373 11.514598,31.95382 9.3360348,30.340986 6.9606793,30.421734 5.8356725,30.282138 4.8842793,28.866303 5.860589,27.95391 c 2.3235818,-3.237999 7.495733,-3.884501 10.414452,-1.078442 0.968941,0.853764 1.689831,1.937622 2.393041,3.009012 C 21.283735,23.780234 25.595775,18.287986 31.426379,14.981107 36.992463,11.618633 43.517558,9.9898895 50,9.98642 Z M 34.470058,32.380186 c -0.197486,-0.0064 -0.395524,-0.0018 -0.59256,0.01461 -2.931846,0.327376 -5.587643,3.812627 -3.954729,6.613943 1.384815,2.43672 5.023329,3.066932 7.177281,1.238694 1.993079,-1.262319 2.936181,-4.442666 1.05849,-6.206458 -0.941744,-1.018223 -2.30608,-1.615604 -3.688482,-1.660792 z m 31.059884,0 c -1.382402,0.0452 -2.746738,0.642569 -3.688482,1.660792 -1.877691,1.763792 -0.934589,4.944139 1.058491,6.206458 2.153953,1.828238 5.792465,1.198025 7.177281,-1.238694 1.632912,-2.801315 -1.022883,-6.286568 -3.95473,-6.613943 -0.197035,-0.01644 -0.395074,-0.02109 -0.59256,-0.01461 z M 6.6556454,32.89743 c 2.9669995,0.01021 4.5961426,3.490829 4.0382576,6.088873 -0.406779,0.999985 -1.9332011,0.914208 -2.2690601,-0.100368 -1.3750327,-1.499414 -3.7462884,-2.790774 -3.68796,-5.07734 0.3115417,-0.730366 1.2048208,-0.912194 1.9187625,-0.911165 z m 86.6887086,0 c 0.713943,-10e-4 1.60722,0.1808 1.918764,0.911165 0.05834,2.286567 -2.312928,3.577927 -3.687961,5.077342 -0.335861,1.014575 -1.862282,1.100351 -2.269059,0.100369 -0.557886,-2.598045 1.071257,-6.078647 4.038256,-6.088875 z m -58.629155,1.484472 c 2.110053,-0.123411 3.153064,3.103555 1.368571,4.245328 -1.462611,1.251028 -4.402344,0.603833 -4.586253,-1.503316 -0.03307,-1.664453 1.697416,-2.758439 3.217682,-2.742012 z m 30.569602,0 c 1.520267,-0.01643 3.250756,1.077559 3.217683,2.742012 -0.183912,2.107149 -3.123643,2.754344 -4.586252,1.503316 -1.784494,-1.141773 -0.741482,-4.368739 1.368569,-4.245328 z M 50,46.220529 c -0.45561,-3.14e-4 -0.910903,-0.0017 -1.365765,0.002 -1.572058,0.133021 -3.165536,0.06578 -4.719172,0.373912 1.571448,2.334684 3.917089,4.106264 5.301689,6.553312 -0.174617,4.637377 0.378329,9.36831 -0.332587,13.946944 -4.197883,4.221063 -10.60931,6.694418 -16.475773,4.858897 -6.63118,-1.882216 -11.407796,-8.658722 -10.924156,-15.54296 0.0033,-1.681704 0.519299,-3.38138 0.948558,-4.929744 -0.494412,-0.503897 -1.651558,-1.424341 -2.166725,-1.170938 -3.039278,7.443505 -0.484064,16.956183 6.460816,21.261858 3.032444,2.095328 6.75152,3.024905 10.339672,3.308144 1.424361,1.260155 0.509471,3.310518 0.842287,4.925809 l 0.14563,5.402053 11.945526,0 11.945527,0 0.145629,-5.402053 c 0.332815,-1.615291 -0.582074,-3.665654 0.842288,-4.925809 3.588151,-0.283239 7.307228,-1.212816 10.339671,-3.308144 6.94488,-4.305675 9.500093,-13.818353 6.460818,-21.261858 -0.51517,-0.253403 -1.672315,0.667041 -2.166727,1.170938 0.42926,1.548364 0.945334,3.24804 0.948558,4.929744 0.483642,6.884238 -4.292975,13.660744 -10.924154,15.54296 -5.866465,1.835521 -12.277892,-0.637834 -16.475776,-4.858897 -0.710916,-4.578636 -0.157967,-9.309567 -0.332585,-13.946944 1.3846,-2.447048 3.730241,-4.218628 5.301688,-6.553312 -1.553635,-0.308136 -3.147114,-0.240891 -4.719172,-0.373912 -0.454863,-0.0037 -0.910154,-0.0023 -1.365765,-0.002 z m -14.986027,9.023105 c -0.239348,0 -0.79511,0.358218 -1.233913,0.797024 -0.438807,0.438802 -0.797024,0.992598 -0.797024,1.231943 0,0.239353 0.358217,0.79511 0.797024,1.233914 0.438803,0.438805 0.994565,0.797023 1.233913,0.797024 0.239349,0 0.793145,-0.358219 1.231944,-0.797024 0.438807,-0.438804 0.798991,-0.994562 0.798991,-1.233914 0,-0.239344 -0.360184,-0.793141 -0.798991,-1.231943 -0.438799,-0.438806 -0.992595,-0.797024 -1.231944,-0.797024 z m 29.954343,0 c -0.239355,0 -0.795103,0.358218 -1.233912,0.797024 -0.438804,0.438802 -0.797024,0.992598 -0.797024,1.231943 0,0.239353 0.35822,0.79511 0.797024,1.233914 0.438809,0.438805 0.994557,0.797023 1.233912,0.797024 0.239344,0 0.795114,-0.358219 1.233912,-0.797024 0.438809,-0.438804 0.797025,-0.994562 0.797025,-1.233914 0,-0.239344 -0.358216,-0.793141 -0.797025,-1.231943 -0.438798,-0.438806 -0.994568,-0.797024 -1.233912,-0.797024 z m -37.062621,2.536703 c -0.239346,0 -0.795109,0.360183 -1.233911,0.798993 -0.438808,0.4388 -0.797025,0.992597 -0.797025,1.231943 0,0.239352 0.358217,0.795108 0.797025,1.233913 0.438802,0.438806 0.994565,0.797023 1.233911,0.797023 0.23935,0 0.793146,-0.358217 1.231943,-0.797023 0.438808,-0.438805 0.798993,-0.994561 0.798993,-1.233913 0,-0.239346 -0.360185,-0.793143 -0.798993,-1.231943 -0.438797,-0.43881 -0.992593,-0.798993 -1.231943,-0.798993 z m 44.170899,0 c -0.239355,0 -0.795104,0.360183 -1.233913,0.798993 -0.438807,0.4388 -0.797024,0.992597 -0.797024,1.231943 0,0.239352 0.358217,0.795108 0.797024,1.233913 0.438809,0.438806 0.994558,0.797023 1.233913,0.797023 0.239344,0 0.793145,-0.358217 1.231944,-0.797023 0.438808,-0.438805 0.798993,-0.994561 0.798993,-1.233913 0,-0.239346 -0.360185,-0.793143 -0.798993,-1.231943 -0.438799,-0.43881 -0.9926,-0.798993 -1.231944,-0.798993 z m -39.093558,4.569607 c -0.239346,0 -0.795108,0.360187 -1.233913,0.798992 -0.438805,0.438803 -0.797023,0.992598 -0.797023,1.231943 0,0.239352 0.358218,0.795109 0.797023,1.233913 0.438805,0.438805 0.994567,0.797024 1.233913,0.797024 0.23935,0 0.793146,-0.358219 1.231944,-0.797024 0.438808,-0.438804 0.798992,-0.994561 0.798993,-1.233913 0,-0.239345 -0.360185,-0.79314 -0.798993,-1.231943 -0.438798,-0.438805 -0.992594,-0.798992 -1.231944,-0.798992 z m 34.016217,0 c -0.239355,0 -0.795114,0.360187 -1.233912,0.798992 -0.438808,0.438803 -0.797025,0.992598 -0.797025,1.231943 0,0.239352 0.358217,0.795109 0.797025,1.233913 0.438798,0.438805 0.994557,0.797024 1.233912,0.797024 0.239344,0 0.795114,-0.358219 1.233913,-0.797024 0.438807,-0.438804 0.797023,-0.994561 0.797023,-1.233913 0,-0.239345 -0.358216,-0.79314 -0.797023,-1.231943 -0.4388,-0.438805 -0.994569,-0.798992 -1.233913,-0.798992 z m -18.919983,9.587909 0.09643,0.10627 c 1.730255,2.064694 0.719111,4.910973 1.037115,7.336561 10e-4,1.258052 0.0033,2.516499 0.0039,3.774549 l -8.607865,0 0,-8.086354 c 2.485843,-1.054195 4.962766,-2.129734 7.470382,-3.131026 z m 3.84146,0 c 2.507617,1.001292 4.984529,2.076831 7.470384,3.131026 l 0,8.086354 -8.607865,0 c 7.05e-4,-1.258051 0.0029,-2.516497 0.0039,-3.774549 0.318005,-2.425588 -0.693139,-5.271867 1.037117,-7.336561 z"
     style="fill:#ffffff;fill-opacity:1" />
</svg>
